M48
; DRILL file {KiCad 9.0.6} date 2025-12-23T17:03:05-0500
; FORMAT={-:-/ absolute / inch / decimal}
; #@! TF.CreationDate,2025-12-23T17:03:05-05:00
; #@! TF.GenerationSoftware,Kicad,Pcbnew,9.0.6
; #@! TF.FileFunction,Plated,1,2,PTH
FMAT,2
INCH
; #@! TA.AperFunction,Plated,PTH,ComponentDrill
T1C0.0276
; #@! TA.AperFunction,Plated,PTH,ComponentDrill
T2C0.0295
; #@! TA.AperFunction,Plated,PTH,ComponentDrill
T3C0.0315
; #@! TA.AperFunction,Plated,PTH,ComponentDrill
T4C0.0354
; #@! TA.AperFunction,Plated,PTH,ComponentDrill
T5C0.0394
; #@! TA.AperFunction,Plated,PTH,ComponentDrill
T6C0.0512
; #@! TA.AperFunction,Plated,PTH,ComponentDrill
T7C0.0728
%
G90
G05
T1
X4.8624Y-2.6105
X4.8624Y-2.9105
X5.0246Y-4.9069
X5.0246Y-5.0053
X5.0269Y-4.7002
X5.0272Y-4.8053
X5.3246Y-4.9069
X5.3246Y-5.0053
X5.3269Y-4.7002
X5.3272Y-4.8053
T2
X5.9254Y-2.7097
X5.9254Y-2.7597
X5.9254Y-2.8097
T3
X4.4866Y-5.9449
X4.5866Y-5.9449
X4.6866Y-5.9449
X5.5268Y-4.7098
X5.5268Y-4.8098
X5.5268Y-4.9098
X5.5268Y-5.0098
X5.8268Y-4.7098
X5.8268Y-4.8098
X5.8268Y-4.9098
X5.8268Y-5.0098
T4
X4.0551Y-3.3661
X4.1551Y-3.3661
X4.5774Y-3.7795
X4.6774Y-3.7795
X4.9705Y-3.3162
X4.9809Y-4.202
X5.0705Y-3.3162
X5.0787Y-5.5807
X5.0787Y-5.6807
X5.0809Y-4.202
X5.266Y-3.7841
X5.366Y-3.7841
X5.4528Y-5.5807
X5.4528Y-5.6807
X5.5597Y-3.3215
X5.5991Y-4.227
X5.6597Y-3.3215
X5.6991Y-4.227
X5.8268Y-5.5807
X5.8268Y-5.6807
X6.08Y-3.7697
X6.18Y-3.7697
X6.6115Y-3.2776
X6.7115Y-3.2776
T5
X5.2266Y-2.7801
X5.5258Y-2.7801
T6
X6.2106Y-5.0591
X6.2106Y-5.2559
X6.7028Y-5.0591
X6.7028Y-5.2559
T7
X4.3898Y-4.7795
X4.3898Y-5.6142
M30
