%TF.GenerationSoftware,KiCad,Pcbnew,9.0.5*%
%TF.CreationDate,2025-12-23T23:47:00-05:00*%
%TF.ProjectId,catch-man,63617463-682d-46d6-916e-2e6b69636164,rev?*%
%TF.SameCoordinates,Original*%
%TF.FileFunction,Legend,Bot*%
%TF.FilePolarity,Positive*%
%FSLAX46Y46*%
G04 Gerber Fmt 4.6, Leading zero omitted, Abs format (unit mm)*
G04 Created by KiCad (PCBNEW 9.0.5) date 2025-12-23 23:47:00*
%MOMM*%
%LPD*%
G01*
G04 APERTURE LIST*
G04 Aperture macros list*
%AMRoundRect*
0 Rectangle with rounded corners*
0 $1 Rounding radius*
0 $2 $3 $4 $5 $6 $7 $8 $9 X,Y pos of 4 corners*
0 Add a 4 corners polygon primitive as box body*
4,1,4,$2,$3,$4,$5,$6,$7,$8,$9,$2,$3,0*
0 Add four circle primitives for the rounded corners*
1,1,$1+$1,$2,$3*
1,1,$1+$1,$4,$5*
1,1,$1+$1,$6,$7*
1,1,$1+$1,$8,$9*
0 Add four rect primitives between the rounded corners*
20,1,$1+$1,$2,$3,$4,$5,0*
20,1,$1+$1,$4,$5,$6,$7,0*
20,1,$1+$1,$6,$7,$8,$9,0*
20,1,$1+$1,$8,$9,$2,$3,0*%
G04 Aperture macros list end*
%ADD10C,0.100000*%
%ADD11C,0.000000*%
%ADD12C,2.100000*%
%ADD13R,1.600000X1.600000*%
%ADD14C,1.600000*%
%ADD15O,1.200000X1.600000*%
%ADD16C,1.200000*%
%ADD17C,1.400000*%
%ADD18R,1.800000X1.800000*%
%ADD19C,1.800000*%
%ADD20O,3.200000X1.900000*%
%ADD21C,3.000000*%
%ADD22R,1.500000X1.500000*%
%ADD23O,2.400000X1.600000*%
%ADD24RoundRect,0.250000X-0.950000X-0.550000X0.950000X-0.550000X0.950000X0.550000X-0.950000X0.550000X0*%
G04 APERTURE END LIST*
D10*
X158330000Y-114420000D02*
X189660000Y-114420000D01*
X189660000Y-121920000D01*
X158330000Y-121920000D01*
X158330000Y-114420000D01*
G36*
X158330000Y-114420000D02*
G01*
X189660000Y-114420000D01*
X189660000Y-121920000D01*
X158330000Y-121920000D01*
X158330000Y-114420000D01*
G37*
X186756353Y-110462419D02*
X186470639Y-110557657D01*
X186470639Y-110557657D02*
X186375401Y-110652895D01*
X186375401Y-110652895D02*
X186280163Y-110843371D01*
X186280163Y-110843371D02*
X186280163Y-111129085D01*
X186280163Y-111129085D02*
X186375401Y-111319561D01*
X186375401Y-111319561D02*
X186470639Y-111414800D01*
X186470639Y-111414800D02*
X186661115Y-111510038D01*
X186661115Y-111510038D02*
X187423020Y-111510038D01*
X187423020Y-111510038D02*
X187423020Y-109510038D01*
X187423020Y-109510038D02*
X186756353Y-109510038D01*
X186756353Y-109510038D02*
X186565877Y-109605276D01*
X186565877Y-109605276D02*
X186470639Y-109700514D01*
X186470639Y-109700514D02*
X186375401Y-109890990D01*
X186375401Y-109890990D02*
X186375401Y-110081466D01*
X186375401Y-110081466D02*
X186470639Y-110271942D01*
X186470639Y-110271942D02*
X186565877Y-110367180D01*
X186565877Y-110367180D02*
X186756353Y-110462419D01*
X186756353Y-110462419D02*
X187423020Y-110462419D01*
X184661115Y-111414800D02*
X184851591Y-111510038D01*
X184851591Y-111510038D02*
X185232544Y-111510038D01*
X185232544Y-111510038D02*
X185423020Y-111414800D01*
X185423020Y-111414800D02*
X185518258Y-111224323D01*
X185518258Y-111224323D02*
X185518258Y-110462419D01*
X185518258Y-110462419D02*
X185423020Y-110271942D01*
X185423020Y-110271942D02*
X185232544Y-110176704D01*
X185232544Y-110176704D02*
X184851591Y-110176704D01*
X184851591Y-110176704D02*
X184661115Y-110271942D01*
X184661115Y-110271942D02*
X184565877Y-110462419D01*
X184565877Y-110462419D02*
X184565877Y-110652895D01*
X184565877Y-110652895D02*
X185518258Y-110843371D01*
X183423020Y-111510038D02*
X183613496Y-111414800D01*
X183613496Y-111414800D02*
X183708734Y-111224323D01*
X183708734Y-111224323D02*
X183708734Y-109510038D01*
X182375401Y-111510038D02*
X182565877Y-111414800D01*
X182565877Y-111414800D02*
X182661115Y-111319561D01*
X182661115Y-111319561D02*
X182756353Y-111129085D01*
X182756353Y-111129085D02*
X182756353Y-110557657D01*
X182756353Y-110557657D02*
X182661115Y-110367180D01*
X182661115Y-110367180D02*
X182565877Y-110271942D01*
X182565877Y-110271942D02*
X182375401Y-110176704D01*
X182375401Y-110176704D02*
X182089686Y-110176704D01*
X182089686Y-110176704D02*
X181899210Y-110271942D01*
X181899210Y-110271942D02*
X181803972Y-110367180D01*
X181803972Y-110367180D02*
X181708734Y-110557657D01*
X181708734Y-110557657D02*
X181708734Y-111129085D01*
X181708734Y-111129085D02*
X181803972Y-111319561D01*
X181803972Y-111319561D02*
X181899210Y-111414800D01*
X181899210Y-111414800D02*
X182089686Y-111510038D01*
X182089686Y-111510038D02*
X182375401Y-111510038D01*
X180851591Y-110176704D02*
X180851591Y-111510038D01*
X180851591Y-110367180D02*
X180756353Y-110271942D01*
X180756353Y-110271942D02*
X180565877Y-110176704D01*
X180565877Y-110176704D02*
X180280162Y-110176704D01*
X180280162Y-110176704D02*
X180089686Y-110271942D01*
X180089686Y-110271942D02*
X179994448Y-110462419D01*
X179994448Y-110462419D02*
X179994448Y-111510038D01*
X178184924Y-110176704D02*
X178184924Y-111795752D01*
X178184924Y-111795752D02*
X178280162Y-111986228D01*
X178280162Y-111986228D02*
X178375400Y-112081466D01*
X178375400Y-112081466D02*
X178565877Y-112176704D01*
X178565877Y-112176704D02*
X178851591Y-112176704D01*
X178851591Y-112176704D02*
X179042067Y-112081466D01*
X178184924Y-111414800D02*
X178375400Y-111510038D01*
X178375400Y-111510038D02*
X178756353Y-111510038D01*
X178756353Y-111510038D02*
X178946829Y-111414800D01*
X178946829Y-111414800D02*
X179042067Y-111319561D01*
X179042067Y-111319561D02*
X179137305Y-111129085D01*
X179137305Y-111129085D02*
X179137305Y-110557657D01*
X179137305Y-110557657D02*
X179042067Y-110367180D01*
X179042067Y-110367180D02*
X178946829Y-110271942D01*
X178946829Y-110271942D02*
X178756353Y-110176704D01*
X178756353Y-110176704D02*
X178375400Y-110176704D01*
X178375400Y-110176704D02*
X178184924Y-110271942D01*
X177327781Y-111414800D02*
X177137305Y-111510038D01*
X177137305Y-111510038D02*
X176756353Y-111510038D01*
X176756353Y-111510038D02*
X176565876Y-111414800D01*
X176565876Y-111414800D02*
X176470638Y-111224323D01*
X176470638Y-111224323D02*
X176470638Y-111129085D01*
X176470638Y-111129085D02*
X176565876Y-110938609D01*
X176565876Y-110938609D02*
X176756353Y-110843371D01*
X176756353Y-110843371D02*
X177042067Y-110843371D01*
X177042067Y-110843371D02*
X177232543Y-110748133D01*
X177232543Y-110748133D02*
X177327781Y-110557657D01*
X177327781Y-110557657D02*
X177327781Y-110462419D01*
X177327781Y-110462419D02*
X177232543Y-110271942D01*
X177232543Y-110271942D02*
X177042067Y-110176704D01*
X177042067Y-110176704D02*
X176756353Y-110176704D01*
X176756353Y-110176704D02*
X176565876Y-110271942D01*
X174375399Y-110176704D02*
X173613495Y-110176704D01*
X174089685Y-109510038D02*
X174089685Y-111224323D01*
X174089685Y-111224323D02*
X173994447Y-111414800D01*
X173994447Y-111414800D02*
X173803971Y-111510038D01*
X173803971Y-111510038D02*
X173613495Y-111510038D01*
X172661114Y-111510038D02*
X172851590Y-111414800D01*
X172851590Y-111414800D02*
X172946828Y-111319561D01*
X172946828Y-111319561D02*
X173042066Y-111129085D01*
X173042066Y-111129085D02*
X173042066Y-110557657D01*
X173042066Y-110557657D02*
X172946828Y-110367180D01*
X172946828Y-110367180D02*
X172851590Y-110271942D01*
X172851590Y-110271942D02*
X172661114Y-110176704D01*
X172661114Y-110176704D02*
X172375399Y-110176704D01*
X172375399Y-110176704D02*
X172184923Y-110271942D01*
X172184923Y-110271942D02*
X172089685Y-110367180D01*
X172089685Y-110367180D02*
X171994447Y-110557657D01*
X171994447Y-110557657D02*
X171994447Y-111129085D01*
X171994447Y-111129085D02*
X172089685Y-111319561D01*
X172089685Y-111319561D02*
X172184923Y-111414800D01*
X172184923Y-111414800D02*
X172375399Y-111510038D01*
X172375399Y-111510038D02*
X172661114Y-111510038D01*
X171137304Y-111319561D02*
X171042066Y-111414800D01*
X171042066Y-111414800D02*
X171137304Y-111510038D01*
X171137304Y-111510038D02*
X171232542Y-111414800D01*
X171232542Y-111414800D02*
X171137304Y-111319561D01*
X171137304Y-111319561D02*
X171137304Y-111510038D01*
X171137304Y-110271942D02*
X171042066Y-110367180D01*
X171042066Y-110367180D02*
X171137304Y-110462419D01*
X171137304Y-110462419D02*
X171232542Y-110367180D01*
X171232542Y-110367180D02*
X171137304Y-110271942D01*
X171137304Y-110271942D02*
X171137304Y-110462419D01*
X112620163Y-108689785D02*
X112715401Y-108785024D01*
X112715401Y-108785024D02*
X113001115Y-108880262D01*
X113001115Y-108880262D02*
X113191591Y-108880262D01*
X113191591Y-108880262D02*
X113477306Y-108785024D01*
X113477306Y-108785024D02*
X113667782Y-108594547D01*
X113667782Y-108594547D02*
X113763020Y-108404071D01*
X113763020Y-108404071D02*
X113858258Y-108023119D01*
X113858258Y-108023119D02*
X113858258Y-107737404D01*
X113858258Y-107737404D02*
X113763020Y-107356452D01*
X113763020Y-107356452D02*
X113667782Y-107165976D01*
X113667782Y-107165976D02*
X113477306Y-106975500D01*
X113477306Y-106975500D02*
X113191591Y-106880262D01*
X113191591Y-106880262D02*
X113001115Y-106880262D01*
X113001115Y-106880262D02*
X112715401Y-106975500D01*
X112715401Y-106975500D02*
X112620163Y-107070738D01*
X110905877Y-108880262D02*
X110905877Y-107832643D01*
X110905877Y-107832643D02*
X111001115Y-107642166D01*
X111001115Y-107642166D02*
X111191591Y-107546928D01*
X111191591Y-107546928D02*
X111572544Y-107546928D01*
X111572544Y-107546928D02*
X111763020Y-107642166D01*
X110905877Y-108785024D02*
X111096353Y-108880262D01*
X111096353Y-108880262D02*
X111572544Y-108880262D01*
X111572544Y-108880262D02*
X111763020Y-108785024D01*
X111763020Y-108785024D02*
X111858258Y-108594547D01*
X111858258Y-108594547D02*
X111858258Y-108404071D01*
X111858258Y-108404071D02*
X111763020Y-108213595D01*
X111763020Y-108213595D02*
X111572544Y-108118357D01*
X111572544Y-108118357D02*
X111096353Y-108118357D01*
X111096353Y-108118357D02*
X110905877Y-108023119D01*
X110239210Y-107546928D02*
X109477306Y-107546928D01*
X109953496Y-106880262D02*
X109953496Y-108594547D01*
X109953496Y-108594547D02*
X109858258Y-108785024D01*
X109858258Y-108785024D02*
X109667782Y-108880262D01*
X109667782Y-108880262D02*
X109477306Y-108880262D01*
X107953496Y-108785024D02*
X108143972Y-108880262D01*
X108143972Y-108880262D02*
X108524925Y-108880262D01*
X108524925Y-108880262D02*
X108715401Y-108785024D01*
X108715401Y-108785024D02*
X108810639Y-108689785D01*
X108810639Y-108689785D02*
X108905877Y-108499309D01*
X108905877Y-108499309D02*
X108905877Y-107927881D01*
X108905877Y-107927881D02*
X108810639Y-107737404D01*
X108810639Y-107737404D02*
X108715401Y-107642166D01*
X108715401Y-107642166D02*
X108524925Y-107546928D01*
X108524925Y-107546928D02*
X108143972Y-107546928D01*
X108143972Y-107546928D02*
X107953496Y-107642166D01*
X107096353Y-108880262D02*
X107096353Y-106880262D01*
X106239210Y-108880262D02*
X106239210Y-107832643D01*
X106239210Y-107832643D02*
X106334448Y-107642166D01*
X106334448Y-107642166D02*
X106524924Y-107546928D01*
X106524924Y-107546928D02*
X106810639Y-107546928D01*
X106810639Y-107546928D02*
X107001115Y-107642166D01*
X107001115Y-107642166D02*
X107096353Y-107737404D01*
X105286829Y-108118357D02*
X103763020Y-108118357D01*
X102810639Y-108880262D02*
X102810639Y-107546928D01*
X102810639Y-107737404D02*
X102715401Y-107642166D01*
X102715401Y-107642166D02*
X102524925Y-107546928D01*
X102524925Y-107546928D02*
X102239210Y-107546928D01*
X102239210Y-107546928D02*
X102048734Y-107642166D01*
X102048734Y-107642166D02*
X101953496Y-107832643D01*
X101953496Y-107832643D02*
X101953496Y-108880262D01*
X101953496Y-107832643D02*
X101858258Y-107642166D01*
X101858258Y-107642166D02*
X101667782Y-107546928D01*
X101667782Y-107546928D02*
X101382068Y-107546928D01*
X101382068Y-107546928D02*
X101191591Y-107642166D01*
X101191591Y-107642166D02*
X101096353Y-107832643D01*
X101096353Y-107832643D02*
X101096353Y-108880262D01*
X99286829Y-108880262D02*
X99286829Y-107832643D01*
X99286829Y-107832643D02*
X99382067Y-107642166D01*
X99382067Y-107642166D02*
X99572543Y-107546928D01*
X99572543Y-107546928D02*
X99953496Y-107546928D01*
X99953496Y-107546928D02*
X100143972Y-107642166D01*
X99286829Y-108785024D02*
X99477305Y-108880262D01*
X99477305Y-108880262D02*
X99953496Y-108880262D01*
X99953496Y-108880262D02*
X100143972Y-108785024D01*
X100143972Y-108785024D02*
X100239210Y-108594547D01*
X100239210Y-108594547D02*
X100239210Y-108404071D01*
X100239210Y-108404071D02*
X100143972Y-108213595D01*
X100143972Y-108213595D02*
X99953496Y-108118357D01*
X99953496Y-108118357D02*
X99477305Y-108118357D01*
X99477305Y-108118357D02*
X99286829Y-108023119D01*
X98334448Y-107546928D02*
X98334448Y-108880262D01*
X98334448Y-107737404D02*
X98239210Y-107642166D01*
X98239210Y-107642166D02*
X98048734Y-107546928D01*
X98048734Y-107546928D02*
X97763019Y-107546928D01*
X97763019Y-107546928D02*
X97572543Y-107642166D01*
X97572543Y-107642166D02*
X97477305Y-107832643D01*
X97477305Y-107832643D02*
X97477305Y-108880262D01*
X95191590Y-107546928D02*
X94715400Y-108880262D01*
X94715400Y-108880262D02*
X94239209Y-107546928D01*
X92429685Y-108880262D02*
X93572542Y-108880262D01*
X93001114Y-108880262D02*
X93001114Y-106880262D01*
X93001114Y-106880262D02*
X93191590Y-107165976D01*
X93191590Y-107165976D02*
X93382066Y-107356452D01*
X93382066Y-107356452D02*
X93572542Y-107451690D01*
X91572542Y-108689785D02*
X91477304Y-108785024D01*
X91477304Y-108785024D02*
X91572542Y-108880262D01*
X91572542Y-108880262D02*
X91667780Y-108785024D01*
X91667780Y-108785024D02*
X91572542Y-108689785D01*
X91572542Y-108689785D02*
X91572542Y-108880262D01*
X90239209Y-106880262D02*
X90048732Y-106880262D01*
X90048732Y-106880262D02*
X89858256Y-106975500D01*
X89858256Y-106975500D02*
X89763018Y-107070738D01*
X89763018Y-107070738D02*
X89667780Y-107261214D01*
X89667780Y-107261214D02*
X89572542Y-107642166D01*
X89572542Y-107642166D02*
X89572542Y-108118357D01*
X89572542Y-108118357D02*
X89667780Y-108499309D01*
X89667780Y-108499309D02*
X89763018Y-108689785D01*
X89763018Y-108689785D02*
X89858256Y-108785024D01*
X89858256Y-108785024D02*
X90048732Y-108880262D01*
X90048732Y-108880262D02*
X90239209Y-108880262D01*
X90239209Y-108880262D02*
X90429685Y-108785024D01*
X90429685Y-108785024D02*
X90524923Y-108689785D01*
X90524923Y-108689785D02*
X90620161Y-108499309D01*
X90620161Y-108499309D02*
X90715399Y-108118357D01*
X90715399Y-108118357D02*
X90715399Y-107642166D01*
X90715399Y-107642166D02*
X90620161Y-107261214D01*
X90620161Y-107261214D02*
X90524923Y-107070738D01*
X90524923Y-107070738D02*
X90429685Y-106975500D01*
X90429685Y-106975500D02*
X90239209Y-106880262D01*
X112905877Y-112100150D02*
X112905877Y-110100150D01*
X112905877Y-112004912D02*
X113096353Y-112100150D01*
X113096353Y-112100150D02*
X113477306Y-112100150D01*
X113477306Y-112100150D02*
X113667782Y-112004912D01*
X113667782Y-112004912D02*
X113763020Y-111909673D01*
X113763020Y-111909673D02*
X113858258Y-111719197D01*
X113858258Y-111719197D02*
X113858258Y-111147769D01*
X113858258Y-111147769D02*
X113763020Y-110957292D01*
X113763020Y-110957292D02*
X113667782Y-110862054D01*
X113667782Y-110862054D02*
X113477306Y-110766816D01*
X113477306Y-110766816D02*
X113096353Y-110766816D01*
X113096353Y-110766816D02*
X112905877Y-110862054D01*
X111191591Y-112004912D02*
X111382067Y-112100150D01*
X111382067Y-112100150D02*
X111763020Y-112100150D01*
X111763020Y-112100150D02*
X111953496Y-112004912D01*
X111953496Y-112004912D02*
X112048734Y-111814435D01*
X112048734Y-111814435D02*
X112048734Y-111052531D01*
X112048734Y-111052531D02*
X111953496Y-110862054D01*
X111953496Y-110862054D02*
X111763020Y-110766816D01*
X111763020Y-110766816D02*
X111382067Y-110766816D01*
X111382067Y-110766816D02*
X111191591Y-110862054D01*
X111191591Y-110862054D02*
X111096353Y-111052531D01*
X111096353Y-111052531D02*
X111096353Y-111243007D01*
X111096353Y-111243007D02*
X112048734Y-111433483D01*
X110334448Y-112004912D02*
X110143972Y-112100150D01*
X110143972Y-112100150D02*
X109763020Y-112100150D01*
X109763020Y-112100150D02*
X109572543Y-112004912D01*
X109572543Y-112004912D02*
X109477305Y-111814435D01*
X109477305Y-111814435D02*
X109477305Y-111719197D01*
X109477305Y-111719197D02*
X109572543Y-111528721D01*
X109572543Y-111528721D02*
X109763020Y-111433483D01*
X109763020Y-111433483D02*
X110048734Y-111433483D01*
X110048734Y-111433483D02*
X110239210Y-111338245D01*
X110239210Y-111338245D02*
X110334448Y-111147769D01*
X110334448Y-111147769D02*
X110334448Y-111052531D01*
X110334448Y-111052531D02*
X110239210Y-110862054D01*
X110239210Y-110862054D02*
X110048734Y-110766816D01*
X110048734Y-110766816D02*
X109763020Y-110766816D01*
X109763020Y-110766816D02*
X109572543Y-110862054D01*
X108620162Y-112100150D02*
X108620162Y-110766816D01*
X108620162Y-110100150D02*
X108715400Y-110195388D01*
X108715400Y-110195388D02*
X108620162Y-110290626D01*
X108620162Y-110290626D02*
X108524924Y-110195388D01*
X108524924Y-110195388D02*
X108620162Y-110100150D01*
X108620162Y-110100150D02*
X108620162Y-110290626D01*
X106810638Y-110766816D02*
X106810638Y-112385864D01*
X106810638Y-112385864D02*
X106905876Y-112576340D01*
X106905876Y-112576340D02*
X107001114Y-112671578D01*
X107001114Y-112671578D02*
X107191591Y-112766816D01*
X107191591Y-112766816D02*
X107477305Y-112766816D01*
X107477305Y-112766816D02*
X107667781Y-112671578D01*
X106810638Y-112004912D02*
X107001114Y-112100150D01*
X107001114Y-112100150D02*
X107382067Y-112100150D01*
X107382067Y-112100150D02*
X107572543Y-112004912D01*
X107572543Y-112004912D02*
X107667781Y-111909673D01*
X107667781Y-111909673D02*
X107763019Y-111719197D01*
X107763019Y-111719197D02*
X107763019Y-111147769D01*
X107763019Y-111147769D02*
X107667781Y-110957292D01*
X107667781Y-110957292D02*
X107572543Y-110862054D01*
X107572543Y-110862054D02*
X107382067Y-110766816D01*
X107382067Y-110766816D02*
X107001114Y-110766816D01*
X107001114Y-110766816D02*
X106810638Y-110862054D01*
X105858257Y-110766816D02*
X105858257Y-112100150D01*
X105858257Y-110957292D02*
X105763019Y-110862054D01*
X105763019Y-110862054D02*
X105572543Y-110766816D01*
X105572543Y-110766816D02*
X105286828Y-110766816D01*
X105286828Y-110766816D02*
X105096352Y-110862054D01*
X105096352Y-110862054D02*
X105001114Y-111052531D01*
X105001114Y-111052531D02*
X105001114Y-112100150D01*
X103286828Y-112004912D02*
X103477304Y-112100150D01*
X103477304Y-112100150D02*
X103858257Y-112100150D01*
X103858257Y-112100150D02*
X104048733Y-112004912D01*
X104048733Y-112004912D02*
X104143971Y-111814435D01*
X104143971Y-111814435D02*
X104143971Y-111052531D01*
X104143971Y-111052531D02*
X104048733Y-110862054D01*
X104048733Y-110862054D02*
X103858257Y-110766816D01*
X103858257Y-110766816D02*
X103477304Y-110766816D01*
X103477304Y-110766816D02*
X103286828Y-110862054D01*
X103286828Y-110862054D02*
X103191590Y-111052531D01*
X103191590Y-111052531D02*
X103191590Y-111243007D01*
X103191590Y-111243007D02*
X104143971Y-111433483D01*
X101477304Y-112100150D02*
X101477304Y-110100150D01*
X101477304Y-112004912D02*
X101667780Y-112100150D01*
X101667780Y-112100150D02*
X102048733Y-112100150D01*
X102048733Y-112100150D02*
X102239209Y-112004912D01*
X102239209Y-112004912D02*
X102334447Y-111909673D01*
X102334447Y-111909673D02*
X102429685Y-111719197D01*
X102429685Y-111719197D02*
X102429685Y-111147769D01*
X102429685Y-111147769D02*
X102334447Y-110957292D01*
X102334447Y-110957292D02*
X102239209Y-110862054D01*
X102239209Y-110862054D02*
X102048733Y-110766816D01*
X102048733Y-110766816D02*
X101667780Y-110766816D01*
X101667780Y-110766816D02*
X101477304Y-110862054D01*
X99001113Y-112100150D02*
X99001113Y-110100150D01*
X99001113Y-110862054D02*
X98810637Y-110766816D01*
X98810637Y-110766816D02*
X98429684Y-110766816D01*
X98429684Y-110766816D02*
X98239208Y-110862054D01*
X98239208Y-110862054D02*
X98143970Y-110957292D01*
X98143970Y-110957292D02*
X98048732Y-111147769D01*
X98048732Y-111147769D02*
X98048732Y-111719197D01*
X98048732Y-111719197D02*
X98143970Y-111909673D01*
X98143970Y-111909673D02*
X98239208Y-112004912D01*
X98239208Y-112004912D02*
X98429684Y-112100150D01*
X98429684Y-112100150D02*
X98810637Y-112100150D01*
X98810637Y-112100150D02*
X99001113Y-112004912D01*
X97382065Y-110766816D02*
X96905875Y-112100150D01*
X96429684Y-110766816D02*
X96905875Y-112100150D01*
X96905875Y-112100150D02*
X97096351Y-112576340D01*
X97096351Y-112576340D02*
X97191589Y-112671578D01*
X97191589Y-112671578D02*
X97382065Y-112766816D01*
X114048734Y-113986704D02*
X113286830Y-113986704D01*
X113763020Y-113320038D02*
X113763020Y-115034323D01*
X113763020Y-115034323D02*
X113667782Y-115224800D01*
X113667782Y-115224800D02*
X113477306Y-115320038D01*
X113477306Y-115320038D02*
X113286830Y-115320038D01*
X112620163Y-115320038D02*
X112620163Y-113320038D01*
X111763020Y-115320038D02*
X111763020Y-114272419D01*
X111763020Y-114272419D02*
X111858258Y-114081942D01*
X111858258Y-114081942D02*
X112048734Y-113986704D01*
X112048734Y-113986704D02*
X112334449Y-113986704D01*
X112334449Y-113986704D02*
X112524925Y-114081942D01*
X112524925Y-114081942D02*
X112620163Y-114177180D01*
X110048734Y-115224800D02*
X110239210Y-115320038D01*
X110239210Y-115320038D02*
X110620163Y-115320038D01*
X110620163Y-115320038D02*
X110810639Y-115224800D01*
X110810639Y-115224800D02*
X110905877Y-115034323D01*
X110905877Y-115034323D02*
X110905877Y-114272419D01*
X110905877Y-114272419D02*
X110810639Y-114081942D01*
X110810639Y-114081942D02*
X110620163Y-113986704D01*
X110620163Y-113986704D02*
X110239210Y-113986704D01*
X110239210Y-113986704D02*
X110048734Y-114081942D01*
X110048734Y-114081942D02*
X109953496Y-114272419D01*
X109953496Y-114272419D02*
X109953496Y-114462895D01*
X109953496Y-114462895D02*
X110905877Y-114653371D01*
X108239210Y-115320038D02*
X108239210Y-114272419D01*
X108239210Y-114272419D02*
X108334448Y-114081942D01*
X108334448Y-114081942D02*
X108524924Y-113986704D01*
X108524924Y-113986704D02*
X108905877Y-113986704D01*
X108905877Y-113986704D02*
X109096353Y-114081942D01*
X108239210Y-115224800D02*
X108429686Y-115320038D01*
X108429686Y-115320038D02*
X108905877Y-115320038D01*
X108905877Y-115320038D02*
X109096353Y-115224800D01*
X109096353Y-115224800D02*
X109191591Y-115034323D01*
X109191591Y-115034323D02*
X109191591Y-114843847D01*
X109191591Y-114843847D02*
X109096353Y-114653371D01*
X109096353Y-114653371D02*
X108905877Y-114558133D01*
X108905877Y-114558133D02*
X108429686Y-114558133D01*
X108429686Y-114558133D02*
X108239210Y-114462895D01*
X107286829Y-115320038D02*
X107286829Y-113986704D01*
X107286829Y-114177180D02*
X107191591Y-114081942D01*
X107191591Y-114081942D02*
X107001115Y-113986704D01*
X107001115Y-113986704D02*
X106715400Y-113986704D01*
X106715400Y-113986704D02*
X106524924Y-114081942D01*
X106524924Y-114081942D02*
X106429686Y-114272419D01*
X106429686Y-114272419D02*
X106429686Y-115320038D01*
X106429686Y-114272419D02*
X106334448Y-114081942D01*
X106334448Y-114081942D02*
X106143972Y-113986704D01*
X106143972Y-113986704D02*
X105858258Y-113986704D01*
X105858258Y-113986704D02*
X105667781Y-114081942D01*
X105667781Y-114081942D02*
X105572543Y-114272419D01*
X105572543Y-114272419D02*
X105572543Y-115320038D01*
X104620162Y-115320038D02*
X104620162Y-113320038D01*
X104429686Y-114558133D02*
X103858257Y-115320038D01*
X103858257Y-113986704D02*
X104620162Y-114748609D01*
D11*
%TO.C,G\u002A\u002A\u002A*%
G36*
X105213144Y-121460706D02*
G01*
X105369518Y-121709800D01*
X105388574Y-121996702D01*
X105307286Y-122210923D01*
X105174141Y-122385825D01*
X105033644Y-122458042D01*
X104881486Y-122433516D01*
X104683440Y-122245250D01*
X104601891Y-122122864D01*
X104538109Y-121813427D01*
X104610483Y-121516382D01*
X104805761Y-121330803D01*
X104982753Y-121321746D01*
X105213144Y-121460706D01*
G37*
G36*
X112469128Y-123687742D02*
G01*
X112393696Y-123991168D01*
X112375976Y-124049989D01*
X112378046Y-124216947D01*
X112545707Y-124258224D01*
X112563202Y-124258687D01*
X112868408Y-124376466D01*
X113209182Y-124672456D01*
X113545026Y-125103673D01*
X113835443Y-125627133D01*
X113958940Y-125911116D01*
X114068779Y-126263017D01*
X114098024Y-126615502D01*
X114091809Y-126703841D01*
X114064997Y-127084919D01*
X114037111Y-127314767D01*
X113875594Y-127998740D01*
X113595606Y-128508719D01*
X113170118Y-128882214D01*
X112572103Y-129156734D01*
X112546508Y-129164487D01*
X112214074Y-129187432D01*
X111755042Y-129136379D01*
X111253418Y-129025010D01*
X110793208Y-128867008D01*
X110717153Y-128833550D01*
X110215888Y-128554811D01*
X109786240Y-128182804D01*
X109351343Y-127652799D01*
X109221169Y-127464068D01*
X109087933Y-127188877D01*
X109028318Y-126868168D01*
X109026859Y-126810164D01*
X109374870Y-126810164D01*
X109420173Y-127066882D01*
X109536476Y-127296679D01*
X109744425Y-127582642D01*
X110197152Y-128044589D01*
X110796827Y-128439100D01*
X111322098Y-128663024D01*
X112004315Y-128820529D01*
X112599833Y-128796712D01*
X113084095Y-128593676D01*
X113432540Y-128213523D01*
X113563078Y-127896819D01*
X113665845Y-127332935D01*
X113678556Y-126703841D01*
X113601175Y-126099140D01*
X113433661Y-125608435D01*
X113185029Y-125224043D01*
X112847219Y-124853543D01*
X112500285Y-124593638D01*
X112201027Y-124495607D01*
X111961176Y-124530788D01*
X111628364Y-124672729D01*
X111370243Y-124876792D01*
X111266495Y-125092113D01*
X111233509Y-125227818D01*
X111088458Y-125326448D01*
X111006823Y-125315244D01*
X110910421Y-125226447D01*
X110901641Y-125201282D01*
X110758303Y-125067325D01*
X110495010Y-124902733D01*
X110079600Y-124679019D01*
X109765662Y-124992957D01*
X109623594Y-125155024D01*
X109507044Y-125380451D01*
X109438652Y-125697671D01*
X109395726Y-126179471D01*
X109379916Y-126443434D01*
X109374870Y-126810164D01*
X109026859Y-126810164D01*
X109016709Y-126406537D01*
X109041726Y-125888770D01*
X109146287Y-125397570D01*
X109357407Y-125013566D01*
X109701985Y-124668529D01*
X109741364Y-124636120D01*
X110003358Y-124451836D01*
X110220666Y-124404699D01*
X110503154Y-124467086D01*
X110521851Y-124472807D01*
X110782112Y-124537778D01*
X110889084Y-124499367D01*
X110909261Y-124336133D01*
X110882893Y-124176041D01*
X110839738Y-124040091D01*
X111414367Y-124040091D01*
X111414369Y-124227709D01*
X111554497Y-124241514D01*
X111830280Y-124069491D01*
X111869862Y-124037676D01*
X112136307Y-123740828D01*
X112216028Y-123418780D01*
X112174496Y-123159473D01*
X112050479Y-123084645D01*
X111864174Y-123215513D01*
X111636006Y-123547543D01*
X111558965Y-123690677D01*
X111414367Y-124040091D01*
X110839738Y-124040091D01*
X110775042Y-123836283D01*
X110612532Y-123445270D01*
X110580182Y-123375504D01*
X110404782Y-122974485D01*
X110332629Y-122737751D01*
X110357044Y-122625153D01*
X110471349Y-122596542D01*
X110549633Y-122638119D01*
X110718077Y-122842228D01*
X110899156Y-123159324D01*
X111172577Y-123722106D01*
X111396059Y-123286495D01*
X111618866Y-122959951D01*
X111951364Y-122755500D01*
X112346080Y-122778185D01*
X112475185Y-122838475D01*
X112553440Y-122989881D01*
X112537591Y-123290622D01*
X112534371Y-123314444D01*
X112516136Y-123418780D01*
X112469128Y-123687742D01*
G37*
G36*
X102146084Y-117550134D02*
G01*
X102243397Y-117700610D01*
X102233145Y-117795295D01*
X102212677Y-117984345D01*
X102067897Y-118442336D01*
X101998278Y-118648481D01*
X101904888Y-119015018D01*
X101921893Y-119194924D01*
X102048881Y-119204705D01*
X102169802Y-119204471D01*
X102365020Y-119332997D01*
X102415373Y-119383412D01*
X102671012Y-119562859D01*
X103007166Y-119739208D01*
X103086940Y-119774403D01*
X103554782Y-119951741D01*
X103914945Y-120088263D01*
X104750074Y-120320789D01*
X105555308Y-120468759D01*
X106293630Y-120528952D01*
X106928020Y-120498149D01*
X107421462Y-120373130D01*
X107736936Y-120150673D01*
X107814656Y-120070962D01*
X108101236Y-119886198D01*
X108455252Y-119740048D01*
X108788830Y-119664186D01*
X109014094Y-119690290D01*
X109075280Y-119761963D01*
X109130047Y-119985327D01*
X109146198Y-120113697D01*
X109235590Y-120273929D01*
X109308263Y-120338561D01*
X109415738Y-120621603D01*
X109402022Y-121014331D01*
X109265357Y-121447381D01*
X109224827Y-121537740D01*
X109034755Y-122012728D01*
X108980036Y-122173247D01*
X108876245Y-122477719D01*
X108633488Y-122989249D01*
X108230111Y-123486598D01*
X108030628Y-123692549D01*
X107792480Y-123974050D01*
X107669125Y-124169205D01*
X107568437Y-124295472D01*
X107323725Y-124377359D01*
X107313744Y-124377515D01*
X107020243Y-124444177D01*
X106696319Y-124595287D01*
X106351801Y-124753066D01*
X105820493Y-124915385D01*
X105223882Y-125043630D01*
X104652964Y-125118640D01*
X104198730Y-125121251D01*
X103718348Y-125068720D01*
X103723949Y-125700331D01*
X103723964Y-125702023D01*
X103722017Y-126014823D01*
X103688399Y-126236823D01*
X103592136Y-126335228D01*
X103403178Y-126372883D01*
X103375067Y-126376417D01*
X103142444Y-126464232D01*
X103078593Y-126669612D01*
X103098424Y-126841883D01*
X103193663Y-127106822D01*
X103214864Y-127138376D01*
X103343282Y-127222955D01*
X103546310Y-127136495D01*
X103728574Y-127049764D01*
X104008513Y-126988130D01*
X104257629Y-127074808D01*
X104539339Y-127303467D01*
X104764858Y-127594522D01*
X104857150Y-127868093D01*
X104856458Y-127900332D01*
X104747629Y-128269956D01*
X104496328Y-128543160D01*
X104164679Y-128649813D01*
X104111475Y-128648550D01*
X103689534Y-128528924D01*
X103334757Y-128207061D01*
X103038890Y-127672520D01*
X102793682Y-126914856D01*
X102771563Y-126830501D01*
X102656874Y-126511097D01*
X102493541Y-126329707D01*
X102215052Y-126204701D01*
X101779080Y-126053763D01*
X101709663Y-126491274D01*
X101677961Y-126676793D01*
X101593573Y-127120725D01*
X101497997Y-127581588D01*
X101487547Y-127629510D01*
X101403268Y-127978049D01*
X101316121Y-128153119D01*
X101177882Y-128207771D01*
X100940327Y-128195052D01*
X100905187Y-128191381D01*
X100599277Y-128131076D01*
X100412150Y-128046688D01*
X100344611Y-127999708D01*
X100106437Y-127937663D01*
X100094299Y-127937126D01*
X99878815Y-127844480D01*
X99634720Y-127640934D01*
X99611982Y-127617178D01*
X99389586Y-127424747D01*
X99228282Y-127347746D01*
X99210039Y-127353622D01*
X99070338Y-127490881D01*
X98859674Y-127772759D01*
X98616114Y-128149406D01*
X98614453Y-128152142D01*
X98467657Y-128405072D01*
X98368532Y-128575864D01*
X98237831Y-128864998D01*
X98202465Y-129079744D01*
X98242547Y-129280303D01*
X98254752Y-129318351D01*
X98285033Y-129604747D01*
X98144859Y-129843597D01*
X98063574Y-129929574D01*
X97887624Y-130050168D01*
X97684996Y-130035277D01*
X97368123Y-129890150D01*
X97105348Y-129750590D01*
X96859384Y-129585333D01*
X96716126Y-129396287D01*
X96655009Y-129130273D01*
X96655465Y-128734114D01*
X96696930Y-128154631D01*
X96710659Y-127967336D01*
X97025322Y-127967336D01*
X97030331Y-128336383D01*
X97064726Y-128548435D01*
X97153166Y-128633949D01*
X97320234Y-128649813D01*
X97340760Y-128649361D01*
X97556500Y-128568471D01*
X97625381Y-128405072D01*
X97509391Y-128241264D01*
X97464628Y-128175454D01*
X97385034Y-127924577D01*
X97318117Y-127566195D01*
X97310060Y-127510399D01*
X97238829Y-127193951D01*
X97163451Y-127096888D01*
X97095214Y-127203741D01*
X97045409Y-127499046D01*
X97025322Y-127967336D01*
X96710659Y-127967336D01*
X96722910Y-127800212D01*
X96747721Y-127353045D01*
X96755132Y-127037366D01*
X96743199Y-126905644D01*
X96684535Y-126906002D01*
X96461108Y-126978068D01*
X96139104Y-127116565D01*
X95865796Y-127233597D01*
X95568858Y-127296628D01*
X95414175Y-127196128D01*
X95382432Y-126912637D01*
X95397600Y-126810093D01*
X97023505Y-126810093D01*
X97082851Y-126869439D01*
X97142196Y-126810093D01*
X97082851Y-126750747D01*
X97023505Y-126810093D01*
X95397600Y-126810093D01*
X95454313Y-126426697D01*
X95514827Y-126130562D01*
X95599281Y-125746779D01*
X95661714Y-125497246D01*
X95679595Y-125370384D01*
X95607880Y-125273970D01*
X95394755Y-125197743D01*
X94993412Y-125114924D01*
X94637984Y-125037590D01*
X94305869Y-124939994D01*
X94131400Y-124855652D01*
X94102593Y-124725618D01*
X94187169Y-124412543D01*
X94405034Y-123917148D01*
X94473829Y-123771847D01*
X94658832Y-123310998D01*
X94703949Y-123018062D01*
X94608575Y-122873536D01*
X94372102Y-122857918D01*
X94334808Y-122862135D01*
X94153261Y-122813132D01*
X94079887Y-122586380D01*
X94110073Y-122351629D01*
X94182402Y-122221942D01*
X94649673Y-122221942D01*
X94649726Y-122223818D01*
X94756317Y-122319837D01*
X95005748Y-122400701D01*
X95108078Y-122426539D01*
X95303832Y-122550675D01*
X95349646Y-122770795D01*
X95245141Y-123115940D01*
X94989941Y-123615150D01*
X94861087Y-123856857D01*
X94720786Y-124210519D01*
X94735650Y-124391678D01*
X94842422Y-124445690D01*
X95137121Y-124521110D01*
X95526432Y-124578748D01*
X95813353Y-124616806D01*
X96117810Y-124681541D01*
X96260169Y-124746193D01*
X96267498Y-124801648D01*
X96214489Y-125032449D01*
X96089415Y-125352360D01*
X95970955Y-125644854D01*
X95845884Y-126034095D01*
X95760242Y-126390196D01*
X95728628Y-126650100D01*
X95765644Y-126750747D01*
X95841085Y-126731509D01*
X96045910Y-126635796D01*
X96290219Y-126522392D01*
X96654465Y-126391582D01*
X97030217Y-126283333D01*
X97340180Y-126219532D01*
X97507057Y-126222065D01*
X97533019Y-126251791D01*
X97596332Y-126462965D01*
X97625992Y-126787425D01*
X97626756Y-126810093D01*
X97628017Y-126847528D01*
X97681878Y-127293475D01*
X97782534Y-127693115D01*
X97796193Y-127730576D01*
X97905543Y-127985725D01*
X98015302Y-128107096D01*
X98148316Y-128079871D01*
X98327434Y-127889235D01*
X98575504Y-127520369D01*
X98915372Y-126958458D01*
X98988942Y-126840499D01*
X99163484Y-126606418D01*
X99280243Y-126513364D01*
X99301619Y-126518914D01*
X99450350Y-126644250D01*
X99644282Y-126882868D01*
X99895318Y-127155497D01*
X100305557Y-127410491D01*
X100896488Y-127630218D01*
X100988107Y-127651295D01*
X101084967Y-127623494D01*
X101155583Y-127488227D01*
X101218631Y-127202815D01*
X101292789Y-126724577D01*
X101344096Y-126384475D01*
X101431173Y-125931600D01*
X101534435Y-125662947D01*
X101682160Y-125545277D01*
X101902628Y-125545353D01*
X102224120Y-125629935D01*
X102499032Y-125705896D01*
X102925156Y-125785807D01*
X103210227Y-125784815D01*
X103314159Y-125700331D01*
X103284181Y-125621789D01*
X103144183Y-125391973D01*
X102928411Y-125089165D01*
X102780899Y-124893754D01*
X102561200Y-124601659D01*
X102424838Y-124418963D01*
X102373406Y-124290162D01*
X102458389Y-124016651D01*
X102483923Y-123974385D01*
X102545430Y-123772114D01*
X102427850Y-123592343D01*
X102321964Y-123464164D01*
X102245935Y-123291926D01*
X102247438Y-123275885D01*
X102333989Y-123077298D01*
X102515859Y-122784231D01*
X102740210Y-122471084D01*
X102954208Y-122212262D01*
X103105017Y-122082168D01*
X103110787Y-122056340D01*
X102947719Y-122027451D01*
X102631682Y-122012454D01*
X102320925Y-122003258D01*
X102108108Y-121964997D01*
X102025131Y-121866851D01*
X102012757Y-121676682D01*
X102054754Y-121399551D01*
X102067090Y-121367174D01*
X102483318Y-121367174D01*
X102554145Y-121394252D01*
X102768453Y-121363796D01*
X103059076Y-121334881D01*
X103421257Y-121365765D01*
X103501560Y-121385629D01*
X103751462Y-121546556D01*
X103802046Y-121803263D01*
X103655537Y-122132006D01*
X103314159Y-122509041D01*
X103090446Y-122718878D01*
X102883471Y-122968859D01*
X102882576Y-123115539D01*
X103093471Y-123177146D01*
X103521869Y-123171908D01*
X103847668Y-123156910D01*
X104088162Y-123173159D01*
X104199572Y-123245170D01*
X104241403Y-123391068D01*
X104245968Y-123444453D01*
X104196873Y-123604244D01*
X104012535Y-123755617D01*
X103647946Y-123940221D01*
X103017430Y-124228960D01*
X103492196Y-124362879D01*
X103934358Y-124460960D01*
X104501199Y-124537083D01*
X105040013Y-124566778D01*
X105450608Y-124540936D01*
X105532784Y-124523532D01*
X105875047Y-124428740D01*
X106260215Y-124300351D01*
X106773094Y-124113453D01*
X106527271Y-123851787D01*
X106502340Y-123824119D01*
X106332919Y-123504099D01*
X106281449Y-123040990D01*
X106285374Y-122876124D01*
X106327422Y-122561584D01*
X106400166Y-122435288D01*
X106484352Y-122513099D01*
X106560726Y-122810882D01*
X106640648Y-123090043D01*
X106814449Y-123425748D01*
X107024095Y-123681649D01*
X107219284Y-123783458D01*
X107279303Y-123762146D01*
X107492324Y-123631198D01*
X107778446Y-123420515D01*
X108051678Y-123175648D01*
X108350094Y-122820468D01*
X108554199Y-122472625D01*
X108646629Y-122173247D01*
X108610018Y-121963460D01*
X108427004Y-121884392D01*
X108356335Y-121875500D01*
X108084587Y-121753253D01*
X107794125Y-121537943D01*
X107562776Y-121294300D01*
X107468365Y-121087055D01*
X107465539Y-121048102D01*
X107401531Y-120967635D01*
X107212573Y-120953537D01*
X106845234Y-120998191D01*
X106381659Y-121054492D01*
X105943810Y-121066713D01*
X105485462Y-121025104D01*
X104938150Y-120923288D01*
X104233410Y-120754886D01*
X103893054Y-120669839D01*
X103446456Y-120561675D01*
X103122700Y-120487579D01*
X102975312Y-120460093D01*
X102932172Y-120490189D01*
X102805764Y-120667601D01*
X102657723Y-120930233D01*
X102534693Y-121192089D01*
X102483318Y-121367174D01*
X102067090Y-121367174D01*
X102186589Y-121053551D01*
X102271289Y-120897752D01*
X102344183Y-120677885D01*
X102247978Y-120598660D01*
X101965643Y-120627216D01*
X101893073Y-120639788D01*
X101596667Y-120650198D01*
X101420536Y-120549655D01*
X101355288Y-120310269D01*
X101391534Y-119904154D01*
X101415334Y-119792756D01*
X101771168Y-119792756D01*
X101815312Y-119910763D01*
X102028333Y-119985327D01*
X102177754Y-119977958D01*
X102236044Y-119951741D01*
X102165424Y-119900230D01*
X101978879Y-119759170D01*
X101921130Y-119716351D01*
X101798603Y-119666466D01*
X101771168Y-119792756D01*
X101415334Y-119792756D01*
X101519881Y-119303419D01*
X101655826Y-118736419D01*
X101733898Y-118360932D01*
X101748791Y-118144146D01*
X101696040Y-118049773D01*
X101571180Y-118041522D01*
X101369747Y-118083104D01*
X101040758Y-118169279D01*
X100819660Y-118293078D01*
X100747001Y-118495031D01*
X100775269Y-118835247D01*
X100848107Y-119332523D01*
X100538143Y-119011301D01*
X100497390Y-118967384D01*
X100306006Y-118704835D01*
X100228178Y-118495750D01*
X100186893Y-118374371D01*
X99997411Y-118241074D01*
X99831261Y-118127706D01*
X99766181Y-117920923D01*
X100346869Y-117920923D01*
X100379765Y-117965141D01*
X100515809Y-117948629D01*
X100642758Y-117850238D01*
X100653594Y-117795295D01*
X100531071Y-117803591D01*
X100439971Y-117844694D01*
X100346869Y-117920923D01*
X99766181Y-117920923D01*
X99730355Y-117807092D01*
X99724236Y-117750659D01*
X99694068Y-117628930D01*
X99640814Y-117664918D01*
X99549227Y-117881779D01*
X99404061Y-118302670D01*
X99385450Y-118358434D01*
X99192516Y-118916503D01*
X99036776Y-119263856D01*
X98883782Y-119414059D01*
X98699084Y-119380675D01*
X98448235Y-119177267D01*
X98096784Y-118817401D01*
X97962613Y-118673670D01*
X97664381Y-118329654D01*
X97457199Y-118054479D01*
X97379579Y-117897542D01*
X97370426Y-117825910D01*
X97285047Y-117730187D01*
X97278047Y-117732037D01*
X97210717Y-117865193D01*
X97130488Y-118165328D01*
X97048572Y-118571135D01*
X96976180Y-119021303D01*
X96924523Y-119454525D01*
X96904813Y-119809492D01*
X96895111Y-119945396D01*
X96802423Y-120177874D01*
X96648988Y-120236497D01*
X96481080Y-120090569D01*
X96460080Y-120065526D01*
X96279574Y-119938881D01*
X95995823Y-119786432D01*
X95686015Y-119644339D01*
X95427333Y-119548760D01*
X95296965Y-119535854D01*
X95292474Y-119591578D01*
X95334680Y-119821277D01*
X95425521Y-120158093D01*
X95478466Y-120339699D01*
X95574547Y-120783699D01*
X95557183Y-121106201D01*
X95411954Y-121379997D01*
X95124439Y-121677877D01*
X94938549Y-121857428D01*
X94730575Y-122087692D01*
X94649673Y-122221942D01*
X94182402Y-122221942D01*
X94274482Y-122056843D01*
X94599728Y-121661623D01*
X95155244Y-121043756D01*
X95021968Y-120425523D01*
X94979363Y-120234324D01*
X94859255Y-119735299D01*
X94744827Y-119303468D01*
X94667167Y-118953777D01*
X94693085Y-118738900D01*
X94852034Y-118676726D01*
X95166049Y-118759423D01*
X95657168Y-118979156D01*
X95753174Y-119025076D01*
X96138756Y-119192369D01*
X96426284Y-119290082D01*
X96559452Y-119298299D01*
X96578826Y-119254552D01*
X96636975Y-119015851D01*
X96708794Y-118626875D01*
X96783038Y-118145607D01*
X96815596Y-117923124D01*
X96923602Y-117314803D01*
X97031624Y-116923203D01*
X97145108Y-116732441D01*
X97269499Y-116726630D01*
X97367992Y-116846303D01*
X97537678Y-117123280D01*
X97734608Y-117490732D01*
X97756835Y-117533624D01*
X97977025Y-117886363D01*
X98240247Y-118220799D01*
X98503321Y-118491803D01*
X98723063Y-118654244D01*
X98856291Y-118662995D01*
X98869662Y-118646385D01*
X98985231Y-118426755D01*
X99132530Y-118066273D01*
X99284171Y-117641004D01*
X99306827Y-117568068D01*
X100961322Y-117568068D01*
X101059019Y-117611495D01*
X101121854Y-117602929D01*
X101138146Y-117532367D01*
X101120750Y-117518162D01*
X100979891Y-117532367D01*
X100961322Y-117568068D01*
X99306827Y-117568068D01*
X99412766Y-117227015D01*
X99490927Y-116900372D01*
X99499010Y-116855031D01*
X99614230Y-116480412D01*
X99776053Y-116329837D01*
X99887022Y-116329049D01*
X99978932Y-116414833D01*
X100061398Y-116638407D01*
X100160061Y-117047710D01*
X100211722Y-117227098D01*
X100321499Y-117351365D01*
X100506783Y-117298144D01*
X100810168Y-117068818D01*
X101036190Y-116916083D01*
X101357073Y-116811060D01*
X101613785Y-116847272D01*
X101745081Y-117027431D01*
X101701961Y-117181853D01*
X101508910Y-117345800D01*
X101447698Y-117376056D01*
X101353778Y-117442944D01*
X101442609Y-117473744D01*
X101741495Y-117484770D01*
X101906763Y-117491917D01*
X102073047Y-117532367D01*
X102146084Y-117550134D01*
G37*
%TD*%
%LPC*%
%TO.C,BT1*%
D12*
X117567073Y-156466552D02*
G75*
G02*
X115467073Y-156466552I-1050000J0D01*
G01*
X115467073Y-156466552D02*
G75*
G02*
X117567073Y-156466552I1050000J0D01*
G01*
X117567073Y-135266552D02*
G75*
G02*
X115467073Y-135266552I-1050000J0D01*
G01*
X115467073Y-135266552D02*
G75*
G02*
X117567073Y-135266552I1050000J0D01*
G01*
%TD*%
D13*
%TO.C,LS1*%
X141705000Y-83820000D03*
D14*
X137705000Y-83820000D03*
%TD*%
%TO.C,C1*%
X149826138Y-142211958D03*
X147326138Y-142211958D03*
%TD*%
D15*
%TO.C,Q1*%
X153603579Y-82439645D03*
D16*
X152333579Y-83709645D03*
X153603579Y-84979645D03*
%TD*%
D17*
%TO.C,R5*%
X126933579Y-79899645D03*
X126933579Y-87519645D03*
%TD*%
D18*
%TO.C,D2*%
X118107045Y-109181123D03*
D19*
X120647045Y-109181123D03*
%TD*%
D20*
%TO.C,SW1*%
X181610000Y-140890000D03*
X169110000Y-140890000D03*
X181610000Y-135890000D03*
X169110000Y-135890000D03*
%TD*%
D21*
%TO.C,BT1*%
X116517073Y-135266552D03*
X116517073Y-156466552D03*
%TD*%
D19*
%TO.C,D8*%
X132080000Y-121920000D03*
D18*
X129540000Y-121920000D03*
%TD*%
D17*
%TO.C,R4*%
X157477579Y-130785159D03*
X157477579Y-138405159D03*
%TD*%
%TO.C,R2*%
X134625000Y-130810000D03*
X134625000Y-138430000D03*
%TD*%
D19*
%TO.C,D9*%
X163173806Y-156205281D03*
D18*
X163173806Y-158745281D03*
%TD*%
D19*
%TO.C,D6*%
X145393806Y-158745281D03*
D18*
X145393806Y-156205281D03*
%TD*%
%TO.C,D4*%
X158731259Y-109201259D03*
D19*
X161271259Y-109201259D03*
%TD*%
D14*
%TO.C,SW2*%
X132055159Y-157444263D03*
X132055159Y-152364263D03*
D22*
X132055159Y-154904263D03*
%TD*%
D18*
%TO.C,D10*%
X147320000Y-96520000D03*
D19*
X149860000Y-96520000D03*
%TD*%
%TO.C,D5*%
X154283806Y-156205281D03*
D18*
X154283806Y-158745281D03*
%TD*%
D23*
%TO.C,U1*%
X152392579Y-130785159D03*
X152392579Y-133325159D03*
X152392579Y-135865159D03*
X152392579Y-138405159D03*
X144772579Y-138405159D03*
X144772579Y-135865159D03*
X144772579Y-133325159D03*
D24*
X144772579Y-130785159D03*
%TD*%
D18*
%TO.C,D7*%
X132080000Y-96520000D03*
D19*
X129540000Y-96520000D03*
%TD*%
D18*
%TO.C,D1*%
X109220000Y-97790000D03*
D19*
X106680000Y-97790000D03*
%TD*%
D17*
%TO.C,R1*%
X162557579Y-130785159D03*
X162557579Y-138405159D03*
%TD*%
D18*
%TO.C,D3*%
X172693385Y-97762112D03*
D19*
X170153385Y-97762112D03*
%TD*%
%TO.C,D11*%
X147320000Y-121920000D03*
D18*
X149860000Y-121920000D03*
%TD*%
D17*
%TO.C,R3*%
X139705000Y-130810000D03*
X139705000Y-138430000D03*
%TD*%
D18*
%TO.C,D12*%
X138430000Y-109220000D03*
D19*
X140970000Y-109220000D03*
%TD*%
%LPD*%
M02*
