%TF.GenerationSoftware,KiCad,Pcbnew,9.0.6*%
%TF.CreationDate,2026-01-15T23:05:42-05:00*%
%TF.ProjectId,catch-man,63617463-682d-46d6-916e-2e6b69636164,rev?*%
%TF.SameCoordinates,Original*%
%TF.FileFunction,Copper,L1,Top*%
%TF.FilePolarity,Positive*%
%FSLAX46Y46*%
G04 Gerber Fmt 4.6, Leading zero omitted, Abs format (unit mm)*
G04 Created by KiCad (PCBNEW 9.0.6) date 2026-01-15 23:05:42*
%MOMM*%
%LPD*%
G01*
G04 APERTURE LIST*
G04 Aperture macros list*
%AMRoundRect*
0 Rectangle with rounded corners*
0 $1 Rounding radius*
0 $2 $3 $4 $5 $6 $7 $8 $9 X,Y pos of 4 corners*
0 Add a 4 corners polygon primitive as box body*
4,1,4,$2,$3,$4,$5,$6,$7,$8,$9,$2,$3,0*
0 Add four circle primitives for the rounded corners*
1,1,$1+$1,$2,$3*
1,1,$1+$1,$4,$5*
1,1,$1+$1,$6,$7*
1,1,$1+$1,$8,$9*
0 Add four rect primitives between the rounded corners*
20,1,$1+$1,$2,$3,$4,$5,0*
20,1,$1+$1,$4,$5,$6,$7,0*
20,1,$1+$1,$6,$7,$8,$9,0*
20,1,$1+$1,$8,$9,$2,$3,0*%
G04 Aperture macros list end*
%TA.AperFunction,SMDPad,CuDef*%
%ADD10R,9.500000X3.000000*%
%TD*%
%TA.AperFunction,ComponentPad*%
%ADD11C,4.000000*%
%TD*%
%TA.AperFunction,SMDPad,CuDef*%
%ADD12C,15.000000*%
%TD*%
%TA.AperFunction,ComponentPad*%
%ADD13RoundRect,0.250000X-0.550000X-0.550000X0.550000X-0.550000X0.550000X0.550000X-0.550000X0.550000X0*%
%TD*%
%TA.AperFunction,ComponentPad*%
%ADD14C,1.600000*%
%TD*%
%TA.AperFunction,ComponentPad*%
%ADD15R,1.800000X1.800000*%
%TD*%
%TA.AperFunction,ComponentPad*%
%ADD16C,1.800000*%
%TD*%
%TA.AperFunction,ComponentPad*%
%ADD17O,3.200000X1.900000*%
%TD*%
%TA.AperFunction,ComponentPad*%
%ADD18C,1.400000*%
%TD*%
%TA.AperFunction,ComponentPad*%
%ADD19R,1.500000X1.500000*%
%TD*%
%TA.AperFunction,ComponentPad*%
%ADD20RoundRect,0.250000X-0.950000X-0.550000X0.950000X-0.550000X0.950000X0.550000X-0.950000X0.550000X0*%
%TD*%
%TA.AperFunction,ComponentPad*%
%ADD21O,2.400000X1.600000*%
%TD*%
%TA.AperFunction,ComponentPad*%
%ADD22R,2.000000X2.000000*%
%TD*%
%TA.AperFunction,ComponentPad*%
%ADD23C,2.000000*%
%TD*%
%TA.AperFunction,ViaPad*%
%ADD24C,1.016000*%
%TD*%
%TA.AperFunction,ViaPad*%
%ADD25C,0.600000*%
%TD*%
%TA.AperFunction,Conductor*%
%ADD26C,0.508000*%
%TD*%
%TA.AperFunction,Conductor*%
%ADD27C,0.254000*%
%TD*%
%TA.AperFunction,Conductor*%
%ADD28C,0.200000*%
%TD*%
G04 APERTURE END LIST*
D10*
%TO.P,BT1,1,+*%
%TO.N,Net-(BT1-+)*%
X108712000Y-155288000D03*
D11*
X108712000Y-153788000D03*
X108712000Y-132588000D03*
D10*
X108712000Y-131088000D03*
D12*
%TO.P,BT1,2,-*%
%TO.N,GND*%
X108712000Y-143188000D03*
%TD*%
D13*
%TO.P,SW3,1,A*%
%TO.N,Net-(SW3-A)*%
X125264500Y-132600500D03*
D14*
%TO.P,SW3,2,B*%
%TO.N,Net-(SW3-B)*%
X132884500Y-132600500D03*
%TD*%
D15*
%TO.P,D2,1,K*%
%TO.N,Net-(D1-A)*%
X118107045Y-109181123D03*
D16*
%TO.P,D2,2,A*%
%TO.N,Net-(D1-K)*%
X120647045Y-109181123D03*
%TD*%
D17*
%TO.P,SW1,1,1*%
%TO.N,GND*%
X181864000Y-140716000D03*
X169364000Y-140716000D03*
%TO.P,SW1,2,2*%
%TO.N,Net-(U1-P3.0)*%
X181864000Y-135716000D03*
X169364000Y-135716000D03*
%TD*%
D15*
%TO.P,D8,1,K*%
%TO.N,Net-(D1-A)*%
X129540000Y-121920000D03*
D16*
%TO.P,D8,2,A*%
%TO.N,Net-(D11-K)*%
X132080000Y-121920000D03*
%TD*%
D18*
%TO.P,R4,1*%
%TO.N,Net-(U1-P3.2)*%
X159004000Y-138176000D03*
%TO.P,R4,2*%
%TO.N,Net-(D11-K)*%
X159004000Y-130556000D03*
%TD*%
%TO.P,R2,1*%
%TO.N,Net-(U1-P5.4)*%
X140716000Y-130556000D03*
%TO.P,R2,2*%
%TO.N,Net-(D1-K)*%
X140716000Y-138176000D03*
%TD*%
D15*
%TO.P,D9,1,K*%
%TO.N,Net-(D10-A)*%
X163173806Y-158745281D03*
D16*
%TO.P,D9,2,A*%
%TO.N,Net-(D1-A)*%
X163173806Y-156205281D03*
%TD*%
D14*
%TO.P,C1,1*%
%TO.N,/VCC*%
X145328000Y-141732000D03*
%TO.P,C1,2*%
%TO.N,GND*%
X147828000Y-141732000D03*
%TD*%
D15*
%TO.P,D6,1,K*%
%TO.N,Net-(D1-K)*%
X145393806Y-156205281D03*
D16*
%TO.P,D6,2,A*%
%TO.N,Net-(D10-A)*%
X145393806Y-158745281D03*
%TD*%
D15*
%TO.P,D4,1,K*%
%TO.N,Net-(D10-A)*%
X158731259Y-109201259D03*
D16*
%TO.P,D4,2,A*%
%TO.N,Net-(D11-K)*%
X161271259Y-109201259D03*
%TD*%
D15*
%TO.P,D12,1,K*%
%TO.N,Net-(D1-K)*%
X138430000Y-109220000D03*
D16*
%TO.P,D12,2,A*%
%TO.N,Net-(D11-K)*%
X140970000Y-109220000D03*
%TD*%
D19*
%TO.P,SW2,1,A*%
%TO.N,/VCC*%
X129032000Y-159004000D03*
D14*
%TO.P,SW2,2,B*%
%TO.N,Net-(BT1-+)*%
X131572000Y-159004000D03*
%TO.P,SW2,3,C*%
%TO.N,unconnected-(SW2-C-Pad3)*%
X126492000Y-159004000D03*
%TD*%
D15*
%TO.P,D10,1,K*%
%TO.N,Net-(D1-A)*%
X147320000Y-96520000D03*
D16*
%TO.P,D10,2,A*%
%TO.N,Net-(D10-A)*%
X149860000Y-96520000D03*
%TD*%
D15*
%TO.P,D5,1,K*%
%TO.N,Net-(D10-A)*%
X154283806Y-158745281D03*
D16*
%TO.P,D5,2,A*%
%TO.N,Net-(D1-K)*%
X154283806Y-156205281D03*
%TD*%
D20*
%TO.P,U1,1,P5.4*%
%TO.N,Net-(U1-P5.4)*%
X147828000Y-130556000D03*
D21*
%TO.P,U1,2,VCC*%
%TO.N,/VCC*%
X147828000Y-133096000D03*
%TO.P,U1,3,P5.5*%
%TO.N,Net-(U1-P5.5)*%
X147828000Y-135636000D03*
%TO.P,U1,4,GND*%
%TO.N,GND*%
X147828000Y-138176000D03*
%TO.P,U1,5,P3.0*%
%TO.N,Net-(U1-P3.0)*%
X155448000Y-138176000D03*
%TO.P,U1,6,P3.1*%
%TO.N,Net-(SW3-B)*%
X155448000Y-135636000D03*
%TO.P,U1,7,P3.2*%
%TO.N,Net-(U1-P3.2)*%
X155448000Y-133096000D03*
%TO.P,U1,8,P3.3*%
%TO.N,Net-(U1-P3.3)*%
X155448000Y-130556000D03*
%TD*%
D15*
%TO.P,D7,1,K*%
%TO.N,Net-(D11-K)*%
X132080000Y-96520000D03*
D16*
%TO.P,D7,2,A*%
%TO.N,Net-(D1-A)*%
X129540000Y-96520000D03*
%TD*%
D15*
%TO.P,D1,1,K*%
%TO.N,Net-(D1-K)*%
X109220000Y-97790000D03*
D16*
%TO.P,D1,2,A*%
%TO.N,Net-(D1-A)*%
X106680000Y-97790000D03*
%TD*%
D18*
%TO.P,R1,1*%
%TO.N,Net-(U1-P3.3)*%
X162560000Y-138176000D03*
%TO.P,R1,2*%
%TO.N,Net-(D1-A)*%
X162560000Y-130556000D03*
%TD*%
D15*
%TO.P,D3,1,K*%
%TO.N,Net-(D11-K)*%
X172693385Y-97762112D03*
D16*
%TO.P,D3,2,A*%
%TO.N,Net-(D10-A)*%
X170153385Y-97762112D03*
%TD*%
D15*
%TO.P,D11,1,K*%
%TO.N,Net-(D11-K)*%
X149860000Y-121920000D03*
D16*
%TO.P,D11,2,A*%
%TO.N,Net-(D1-K)*%
X147320000Y-121920000D03*
%TD*%
D18*
%TO.P,R3,1*%
%TO.N,Net-(U1-P5.5)*%
X144272000Y-138176000D03*
%TO.P,R3,2*%
%TO.N,Net-(D10-A)*%
X144272000Y-130556000D03*
%TD*%
D22*
%TO.P,LS1,1,1*%
%TO.N,/VCC*%
X132832000Y-145288000D03*
D23*
%TO.P,LS1,2,2*%
%TO.N,Net-(SW3-A)*%
X125232000Y-145288000D03*
%TD*%
D24*
%TO.N,Net-(BT1-+)*%
X110744000Y-159004000D03*
D25*
%TO.N,Net-(D1-K)*%
X140716000Y-144272000D03*
X140716000Y-140208000D03*
%TO.N,Net-(D10-A)*%
X138684000Y-137160000D03*
X138684000Y-144272000D03*
%TO.N,Net-(D1-A)*%
X165100000Y-139192000D03*
X165100000Y-142748000D03*
%TO.N,/VCC*%
X132842000Y-141732000D03*
%TO.N,Net-(D1-A)*%
X160020000Y-128016000D03*
X157988000Y-128016000D03*
%TO.N,Net-(D10-A)*%
X144272000Y-122936000D03*
X144272000Y-118872000D03*
X144272000Y-129032000D03*
X144272000Y-125984000D03*
%TO.N,Net-(D1-K)*%
X136652000Y-129032000D03*
D24*
%TO.N,GND*%
X127508000Y-143256000D03*
D25*
%TO.N,Net-(D1-K)*%
X136652000Y-121920000D03*
X136652000Y-125984000D03*
%TD*%
D26*
%TO.N,Net-(BT1-+)*%
X110744000Y-157320000D02*
X108712000Y-155288000D01*
X110744000Y-159004000D02*
X110744000Y-157320000D01*
D27*
%TO.N,Net-(D10-A)*%
X144272000Y-122936000D02*
X144272000Y-118872000D01*
%TO.N,Net-(D1-A)*%
X157988000Y-128016000D02*
X160020000Y-128016000D01*
%TO.N,Net-(D1-K)*%
X140716000Y-144272000D02*
X140716000Y-140208000D01*
%TO.N,Net-(D10-A)*%
X138684000Y-144272000D02*
X138684000Y-137160000D01*
%TO.N,Net-(D1-A)*%
X165100000Y-142748000D02*
X165100000Y-139192000D01*
%TO.N,Net-(D10-A)*%
X144272000Y-129032000D02*
X144272000Y-125984000D01*
%TO.N,Net-(D1-K)*%
X136652000Y-129032000D02*
X136652000Y-125984000D01*
D26*
%TO.N,/VCC*%
X132842000Y-141732000D02*
X132842000Y-145278000D01*
X132842000Y-145278000D02*
X132832000Y-145288000D01*
%TO.N,GND*%
X127508000Y-143256000D02*
X127440000Y-143188000D01*
X127440000Y-143188000D02*
X108712000Y-143188000D01*
D28*
%TO.N,Net-(D1-K)*%
X136652000Y-125984000D02*
X136652000Y-121920000D01*
%TD*%
M02*
