%TF.GenerationSoftware,KiCad,Pcbnew,9.0.6*%
%TF.CreationDate,2026-01-15T23:05:42-05:00*%
%TF.ProjectId,catch-man,63617463-682d-46d6-916e-2e6b69636164,rev?*%
%TF.SameCoordinates,Original*%
%TF.FileFunction,Soldermask,Bot*%
%TF.FilePolarity,Negative*%
%FSLAX46Y46*%
G04 Gerber Fmt 4.6, Leading zero omitted, Abs format (unit mm)*
G04 Created by KiCad (PCBNEW 9.0.6) date 2026-01-15 23:05:42*
%MOMM*%
%LPD*%
G01*
G04 APERTURE LIST*
G04 Aperture macros list*
%AMRoundRect*
0 Rectangle with rounded corners*
0 $1 Rounding radius*
0 $2 $3 $4 $5 $6 $7 $8 $9 X,Y pos of 4 corners*
0 Add a 4 corners polygon primitive as box body*
4,1,4,$2,$3,$4,$5,$6,$7,$8,$9,$2,$3,0*
0 Add four circle primitives for the rounded corners*
1,1,$1+$1,$2,$3*
1,1,$1+$1,$4,$5*
1,1,$1+$1,$6,$7*
1,1,$1+$1,$8,$9*
0 Add four rect primitives between the rounded corners*
20,1,$1+$1,$2,$3,$4,$5,0*
20,1,$1+$1,$4,$5,$6,$7,0*
20,1,$1+$1,$6,$7,$8,$9,0*
20,1,$1+$1,$8,$9,$2,$3,0*%
G04 Aperture macros list end*
%ADD10C,2.100000*%
%ADD11C,4.000000*%
%ADD12RoundRect,0.250000X-0.550000X-0.550000X0.550000X-0.550000X0.550000X0.550000X-0.550000X0.550000X0*%
%ADD13C,1.600000*%
%ADD14R,1.800000X1.800000*%
%ADD15C,1.800000*%
%ADD16O,3.200000X1.900000*%
%ADD17C,1.400000*%
%ADD18R,1.500000X1.500000*%
%ADD19RoundRect,0.250000X-0.950000X-0.550000X0.950000X-0.550000X0.950000X0.550000X-0.950000X0.550000X0*%
%ADD20O,2.400000X1.600000*%
%ADD21R,2.000000X2.000000*%
%ADD22C,2.000000*%
G04 APERTURE END LIST*
%TO.C,BT1*%
D10*
X109762000Y-153788000D02*
G75*
G02*
X107662000Y-153788000I-1050000J0D01*
G01*
X107662000Y-153788000D02*
G75*
G02*
X109762000Y-153788000I1050000J0D01*
G01*
X109762000Y-132588000D02*
G75*
G02*
X107662000Y-132588000I-1050000J0D01*
G01*
X107662000Y-132588000D02*
G75*
G02*
X109762000Y-132588000I1050000J0D01*
G01*
%TD*%
D11*
%TO.C,BT1*%
X108712000Y-153788000D03*
X108712000Y-132588000D03*
%TD*%
D12*
%TO.C,SW3*%
X125264500Y-132600500D03*
D13*
X132884500Y-132600500D03*
%TD*%
D14*
%TO.C,D2*%
X118107045Y-109181123D03*
D15*
X120647045Y-109181123D03*
%TD*%
D16*
%TO.C,SW1*%
X181864000Y-140716000D03*
X169364000Y-140716000D03*
X181864000Y-135716000D03*
X169364000Y-135716000D03*
%TD*%
D14*
%TO.C,D8*%
X129540000Y-121920000D03*
D15*
X132080000Y-121920000D03*
%TD*%
D17*
%TO.C,R4*%
X159004000Y-138176000D03*
X159004000Y-130556000D03*
%TD*%
%TO.C,R2*%
X140716000Y-130556000D03*
X140716000Y-138176000D03*
%TD*%
D14*
%TO.C,D9*%
X163173806Y-158745281D03*
D15*
X163173806Y-156205281D03*
%TD*%
D13*
%TO.C,C1*%
X145328000Y-141732000D03*
X147828000Y-141732000D03*
%TD*%
D14*
%TO.C,D6*%
X145393806Y-156205281D03*
D15*
X145393806Y-158745281D03*
%TD*%
D14*
%TO.C,D4*%
X158731259Y-109201259D03*
D15*
X161271259Y-109201259D03*
%TD*%
D14*
%TO.C,D12*%
X138430000Y-109220000D03*
D15*
X140970000Y-109220000D03*
%TD*%
D18*
%TO.C,SW2*%
X129032000Y-159004000D03*
D13*
X131572000Y-159004000D03*
X126492000Y-159004000D03*
%TD*%
D14*
%TO.C,D10*%
X147320000Y-96520000D03*
D15*
X149860000Y-96520000D03*
%TD*%
D14*
%TO.C,D5*%
X154283806Y-158745281D03*
D15*
X154283806Y-156205281D03*
%TD*%
D19*
%TO.C,U1*%
X147828000Y-130556000D03*
D20*
X147828000Y-133096000D03*
X147828000Y-135636000D03*
X147828000Y-138176000D03*
X155448000Y-138176000D03*
X155448000Y-135636000D03*
X155448000Y-133096000D03*
X155448000Y-130556000D03*
%TD*%
D14*
%TO.C,D7*%
X132080000Y-96520000D03*
D15*
X129540000Y-96520000D03*
%TD*%
D14*
%TO.C,D1*%
X109220000Y-97790000D03*
D15*
X106680000Y-97790000D03*
%TD*%
D17*
%TO.C,R1*%
X162560000Y-138176000D03*
X162560000Y-130556000D03*
%TD*%
D14*
%TO.C,D3*%
X172693385Y-97762112D03*
D15*
X170153385Y-97762112D03*
%TD*%
D14*
%TO.C,D11*%
X149860000Y-121920000D03*
D15*
X147320000Y-121920000D03*
%TD*%
D17*
%TO.C,R3*%
X144272000Y-138176000D03*
X144272000Y-130556000D03*
%TD*%
D21*
%TO.C,LS1*%
X132832000Y-145288000D03*
D22*
X125232000Y-145288000D03*
%TD*%
M02*
