%TF.GenerationSoftware,KiCad,Pcbnew,9.0.5*%
%TF.CreationDate,2025-12-24T12:41:54-05:00*%
%TF.ProjectId,catch-man,63617463-682d-46d6-916e-2e6b69636164,rev?*%
%TF.SameCoordinates,Original*%
%TF.FileFunction,Legend,Top*%
%TF.FilePolarity,Positive*%
%FSLAX46Y46*%
G04 Gerber Fmt 4.6, Leading zero omitted, Abs format (unit mm)*
G04 Created by KiCad (PCBNEW 9.0.5) date 2025-12-24 12:41:54*
%MOMM*%
%LPD*%
G01*
G04 APERTURE LIST*
G04 Aperture macros list*
%AMRoundRect*
0 Rectangle with rounded corners*
0 $1 Rounding radius*
0 $2 $3 $4 $5 $6 $7 $8 $9 X,Y pos of 4 corners*
0 Add a 4 corners polygon primitive as box body*
4,1,4,$2,$3,$4,$5,$6,$7,$8,$9,$2,$3,0*
0 Add four circle primitives for the rounded corners*
1,1,$1+$1,$2,$3*
1,1,$1+$1,$4,$5*
1,1,$1+$1,$6,$7*
1,1,$1+$1,$8,$9*
0 Add four rect primitives between the rounded corners*
20,1,$1+$1,$2,$3,$4,$5,0*
20,1,$1+$1,$4,$5,$6,$7,0*
20,1,$1+$1,$6,$7,$8,$9,0*
20,1,$1+$1,$8,$9,$2,$3,0*%
G04 Aperture macros list end*
%ADD10C,0.254000*%
%ADD11C,0.100000*%
%ADD12C,0.600000*%
%ADD13C,0.150000*%
%ADD14C,0.120000*%
%ADD15R,2.000000X2.000000*%
%ADD16C,2.000000*%
%ADD17R,1.600000X1.600000*%
%ADD18C,1.600000*%
%ADD19O,1.200000X1.600000*%
%ADD20C,1.200000*%
%ADD21C,1.400000*%
%ADD22R,1.800000X1.800000*%
%ADD23C,1.800000*%
%ADD24O,3.200000X1.900000*%
%ADD25C,15.000000*%
%ADD26R,9.500000X3.000000*%
%ADD27C,3.000000*%
%ADD28R,1.500000X1.500000*%
%ADD29O,2.400000X1.600000*%
%ADD30RoundRect,0.250000X-0.950000X-0.550000X0.950000X-0.550000X0.950000X0.550000X-0.950000X0.550000X0*%
G04 APERTURE END LIST*
D10*
X135335790Y-157277800D02*
X135577695Y-157277800D01*
X135577695Y-157277800D02*
X135698647Y-157338276D01*
X135698647Y-157338276D02*
X135819600Y-157459228D01*
X135819600Y-157459228D02*
X135880076Y-157701133D01*
X135880076Y-157701133D02*
X135880076Y-158124466D01*
X135880076Y-158124466D02*
X135819600Y-158366371D01*
X135819600Y-158366371D02*
X135698647Y-158487324D01*
X135698647Y-158487324D02*
X135577695Y-158547800D01*
X135577695Y-158547800D02*
X135335790Y-158547800D01*
X135335790Y-158547800D02*
X135214838Y-158487324D01*
X135214838Y-158487324D02*
X135093885Y-158366371D01*
X135093885Y-158366371D02*
X135033409Y-158124466D01*
X135033409Y-158124466D02*
X135033409Y-157701133D01*
X135033409Y-157701133D02*
X135093885Y-157459228D01*
X135093885Y-157459228D02*
X135214838Y-157338276D01*
X135214838Y-157338276D02*
X135335790Y-157277800D01*
X136847695Y-157882562D02*
X136424361Y-157882562D01*
X136424361Y-158547800D02*
X136424361Y-157277800D01*
X136424361Y-157277800D02*
X137029123Y-157277800D01*
X137936266Y-157882562D02*
X137512932Y-157882562D01*
X137512932Y-158547800D02*
X137512932Y-157277800D01*
X137512932Y-157277800D02*
X138117694Y-157277800D01*
X135447710Y-151905626D02*
X135689615Y-151905626D01*
X135689615Y-151905626D02*
X135810567Y-151966102D01*
X135810567Y-151966102D02*
X135931520Y-152087054D01*
X135931520Y-152087054D02*
X135991996Y-152328959D01*
X135991996Y-152328959D02*
X135991996Y-152752292D01*
X135991996Y-152752292D02*
X135931520Y-152994197D01*
X135931520Y-152994197D02*
X135810567Y-153115150D01*
X135810567Y-153115150D02*
X135689615Y-153175626D01*
X135689615Y-153175626D02*
X135447710Y-153175626D01*
X135447710Y-153175626D02*
X135326758Y-153115150D01*
X135326758Y-153115150D02*
X135205805Y-152994197D01*
X135205805Y-152994197D02*
X135145329Y-152752292D01*
X135145329Y-152752292D02*
X135145329Y-152328959D01*
X135145329Y-152328959D02*
X135205805Y-152087054D01*
X135205805Y-152087054D02*
X135326758Y-151966102D01*
X135326758Y-151966102D02*
X135447710Y-151905626D01*
X136536281Y-153175626D02*
X136536281Y-151905626D01*
X136536281Y-151905626D02*
X137261996Y-153175626D01*
X137261996Y-153175626D02*
X137261996Y-151905626D01*
D11*
X144123806Y-149855281D02*
X144123806Y-146045281D01*
X146663807Y-149206571D02*
X146663807Y-149508917D01*
X144123806Y-149855281D02*
X144123806Y-150663463D01*
X146663806Y-146045281D02*
X144123806Y-146045281D01*
X154283806Y-146045281D02*
X168253806Y-152395281D01*
X140313806Y-152395281D02*
X154283806Y-146045281D01*
X125220652Y-119256197D02*
G75*
G02*
X124549235Y-98224155I-16500000J10000000D01*
G01*
X154074154Y-98474156D02*
X169902737Y-109506197D01*
X124549235Y-98224156D02*
X108720652Y-109256197D01*
X153402737Y-119506197D02*
X169902737Y-109506197D01*
X125220652Y-119256197D02*
X108720652Y-109256197D01*
X154074154Y-98474155D02*
G75*
G02*
X153402737Y-119506197I15828578J-11032042D01*
G01*
X146663807Y-146045281D02*
X146663807Y-149206571D01*
X140313806Y-152395281D02*
X168253806Y-152395281D01*
X168253806Y-162555281D01*
X140313806Y-162555281D01*
X140313806Y-152395281D01*
D12*
X164617144Y-116473466D02*
X166331430Y-116473466D01*
X165474287Y-119473466D02*
X165474287Y-116473466D01*
X167331429Y-119473466D02*
X167331429Y-116473466D01*
X168617144Y-119473466D02*
X168617144Y-117902037D01*
X168617144Y-117902037D02*
X168474286Y-117616323D01*
X168474286Y-117616323D02*
X168188572Y-117473466D01*
X168188572Y-117473466D02*
X167760001Y-117473466D01*
X167760001Y-117473466D02*
X167474286Y-117616323D01*
X167474286Y-117616323D02*
X167331429Y-117759180D01*
X170045715Y-119473466D02*
X170045715Y-117473466D01*
X170045715Y-116473466D02*
X169902858Y-116616323D01*
X169902858Y-116616323D02*
X170045715Y-116759180D01*
X170045715Y-116759180D02*
X170188572Y-116616323D01*
X170188572Y-116616323D02*
X170045715Y-116473466D01*
X170045715Y-116473466D02*
X170045715Y-116759180D01*
X171474286Y-117473466D02*
X171474286Y-119473466D01*
X171474286Y-117759180D02*
X171617143Y-117616323D01*
X171617143Y-117616323D02*
X171902858Y-117473466D01*
X171902858Y-117473466D02*
X172331429Y-117473466D01*
X172331429Y-117473466D02*
X172617143Y-117616323D01*
X172617143Y-117616323D02*
X172760001Y-117902037D01*
X172760001Y-117902037D02*
X172760001Y-119473466D01*
X175474287Y-117473466D02*
X175474287Y-119902037D01*
X175474287Y-119902037D02*
X175331429Y-120187751D01*
X175331429Y-120187751D02*
X175188572Y-120330609D01*
X175188572Y-120330609D02*
X174902858Y-120473466D01*
X174902858Y-120473466D02*
X174474287Y-120473466D01*
X174474287Y-120473466D02*
X174188572Y-120330609D01*
X175474287Y-119330609D02*
X175188572Y-119473466D01*
X175188572Y-119473466D02*
X174617144Y-119473466D01*
X174617144Y-119473466D02*
X174331429Y-119330609D01*
X174331429Y-119330609D02*
X174188572Y-119187751D01*
X174188572Y-119187751D02*
X174045715Y-118902037D01*
X174045715Y-118902037D02*
X174045715Y-118044894D01*
X174045715Y-118044894D02*
X174188572Y-117759180D01*
X174188572Y-117759180D02*
X174331429Y-117616323D01*
X174331429Y-117616323D02*
X174617144Y-117473466D01*
X174617144Y-117473466D02*
X175188572Y-117473466D01*
X175188572Y-117473466D02*
X175474287Y-117616323D01*
X179045715Y-116759180D02*
X179188572Y-116616323D01*
X179188572Y-116616323D02*
X179474287Y-116473466D01*
X179474287Y-116473466D02*
X180188572Y-116473466D01*
X180188572Y-116473466D02*
X180474287Y-116616323D01*
X180474287Y-116616323D02*
X180617144Y-116759180D01*
X180617144Y-116759180D02*
X180760001Y-117044894D01*
X180760001Y-117044894D02*
X180760001Y-117330609D01*
X180760001Y-117330609D02*
X180617144Y-117759180D01*
X180617144Y-117759180D02*
X178902858Y-119473466D01*
X178902858Y-119473466D02*
X180760001Y-119473466D01*
X100367144Y-114973466D02*
X102081430Y-114973466D01*
X101224287Y-117973466D02*
X101224287Y-114973466D01*
X103081429Y-117973466D02*
X103081429Y-114973466D01*
X104367144Y-117973466D02*
X104367144Y-116402037D01*
X104367144Y-116402037D02*
X104224286Y-116116323D01*
X104224286Y-116116323D02*
X103938572Y-115973466D01*
X103938572Y-115973466D02*
X103510001Y-115973466D01*
X103510001Y-115973466D02*
X103224286Y-116116323D01*
X103224286Y-116116323D02*
X103081429Y-116259180D01*
X105795715Y-117973466D02*
X105795715Y-115973466D01*
X105795715Y-114973466D02*
X105652858Y-115116323D01*
X105652858Y-115116323D02*
X105795715Y-115259180D01*
X105795715Y-115259180D02*
X105938572Y-115116323D01*
X105938572Y-115116323D02*
X105795715Y-114973466D01*
X105795715Y-114973466D02*
X105795715Y-115259180D01*
X107224286Y-115973466D02*
X107224286Y-117973466D01*
X107224286Y-116259180D02*
X107367143Y-116116323D01*
X107367143Y-116116323D02*
X107652858Y-115973466D01*
X107652858Y-115973466D02*
X108081429Y-115973466D01*
X108081429Y-115973466D02*
X108367143Y-116116323D01*
X108367143Y-116116323D02*
X108510001Y-116402037D01*
X108510001Y-116402037D02*
X108510001Y-117973466D01*
X111224287Y-115973466D02*
X111224287Y-118402037D01*
X111224287Y-118402037D02*
X111081429Y-118687751D01*
X111081429Y-118687751D02*
X110938572Y-118830609D01*
X110938572Y-118830609D02*
X110652858Y-118973466D01*
X110652858Y-118973466D02*
X110224287Y-118973466D01*
X110224287Y-118973466D02*
X109938572Y-118830609D01*
X111224287Y-117830609D02*
X110938572Y-117973466D01*
X110938572Y-117973466D02*
X110367144Y-117973466D01*
X110367144Y-117973466D02*
X110081429Y-117830609D01*
X110081429Y-117830609D02*
X109938572Y-117687751D01*
X109938572Y-117687751D02*
X109795715Y-117402037D01*
X109795715Y-117402037D02*
X109795715Y-116544894D01*
X109795715Y-116544894D02*
X109938572Y-116259180D01*
X109938572Y-116259180D02*
X110081429Y-116116323D01*
X110081429Y-116116323D02*
X110367144Y-115973466D01*
X110367144Y-115973466D02*
X110938572Y-115973466D01*
X110938572Y-115973466D02*
X111224287Y-116116323D01*
X116510001Y-117973466D02*
X114795715Y-117973466D01*
X115652858Y-117973466D02*
X115652858Y-114973466D01*
X115652858Y-114973466D02*
X115367144Y-115402037D01*
X115367144Y-115402037D02*
X115081429Y-115687751D01*
X115081429Y-115687751D02*
X114795715Y-115830609D01*
D13*
X144380200Y-86429562D02*
X145142105Y-86429562D01*
X144761152Y-86810515D02*
X144761152Y-86048610D01*
X142824048Y-83993866D02*
X143585953Y-83993866D01*
X143205000Y-84374819D02*
X143205000Y-83612914D01*
D14*
%TO.C,LS2*%
X146851152Y-83815696D02*
G75*
G02*
X132651152Y-83815696I-7100000J0D01*
G01*
X132651152Y-83815696D02*
G75*
G02*
X146851152Y-83815696I7100000J0D01*
G01*
%TO.C,LS1*%
X144325000Y-83820000D02*
G75*
G02*
X135085000Y-83820000I-4620000J0D01*
G01*
X135085000Y-83820000D02*
G75*
G02*
X144325000Y-83820000I4620000J0D01*
G01*
%TO.C,C1*%
X149341138Y-143131958D02*
X147811138Y-143131958D01*
X147811138Y-141291958D02*
X149341138Y-141291958D01*
%TO.C,Q1*%
X156027880Y-80309537D02*
X155187390Y-81150027D01*
X157003687Y-81285344D02*
X156027880Y-80309537D01*
X156163197Y-82125834D02*
X157003687Y-81285344D01*
X156163197Y-82125834D02*
G75*
G02*
X155187390Y-81150027I-2559618J-1583811D01*
G01*
%TO.C,R5*%
X126933579Y-80839645D02*
X126933579Y-81789645D01*
X126933579Y-86579645D02*
X126933579Y-85629645D01*
X127853579Y-81789645D02*
X126013579Y-81789645D01*
X126013579Y-85629645D01*
X127853579Y-85629645D01*
X127853579Y-81789645D01*
%TO.C,D2*%
X116817045Y-107636123D02*
X116817045Y-110726123D01*
X116817045Y-107636293D02*
G75*
G02*
X122367045Y-109181123I2560000J-1544830D01*
G01*
X122367045Y-109181123D02*
G75*
G02*
X116817045Y-110725953I-2990000J0D01*
G01*
X121877045Y-109181123D02*
G75*
G02*
X116877045Y-109181123I-2500000J0D01*
G01*
X116877045Y-109181123D02*
G75*
G02*
X121877045Y-109181123I2500000J0D01*
G01*
%TO.C,SW1*%
X178910000Y-138390000D02*
G75*
G02*
X171810000Y-138390000I-3550000J0D01*
G01*
X171810000Y-138390000D02*
G75*
G02*
X178910000Y-138390000I3550000J0D01*
G01*
X181470000Y-144500000D02*
X169250000Y-144500000D01*
X181470000Y-141990000D02*
X181470000Y-144500000D01*
X181470000Y-137090000D02*
X181470000Y-139690000D01*
X181470000Y-132280000D02*
X181470000Y-134790000D01*
X169250000Y-141990000D02*
X169250000Y-144500000D01*
X169250000Y-137090000D02*
X169250000Y-139690000D01*
X169250000Y-132280000D02*
X181470000Y-132280000D01*
X169250000Y-132280000D02*
X169250000Y-134790000D01*
%TO.C,BT1*%
X110217073Y-156543610D02*
G75*
G02*
X108177074Y-151046553I1J3127058D01*
G01*
X108049681Y-140560130D02*
G75*
G02*
X108187072Y-151036551I-5132609J-5306422D01*
G01*
X108024320Y-140550100D02*
G75*
G02*
X110217073Y-135186552I2192753J2233548D01*
G01*
X126717073Y-142066552D02*
X126717073Y-149666552D01*
X121267073Y-156366552D02*
X126717073Y-149666552D01*
X121267073Y-135366552D02*
X126717073Y-142066552D01*
X111767073Y-156546552D02*
X110237073Y-156546552D01*
X111767073Y-135186552D02*
X110167073Y-135186552D01*
%TO.C,D8*%
X133310000Y-121920000D02*
G75*
G02*
X128310000Y-121920000I-2500000J0D01*
G01*
X128310000Y-121920000D02*
G75*
G02*
X133310000Y-121920000I2500000J0D01*
G01*
X133800000Y-121920000D02*
G75*
G02*
X128250000Y-123464830I-2990000J0D01*
G01*
X128250000Y-120375170D02*
G75*
G02*
X133800000Y-121920000I2560000J-1544830D01*
G01*
X128250000Y-120375000D02*
X128250000Y-123465000D01*
%TO.C,R4*%
X156557579Y-136515159D02*
X158397579Y-136515159D01*
X158397579Y-132675159D01*
X156557579Y-132675159D01*
X156557579Y-136515159D01*
X157477579Y-137465159D02*
X157477579Y-136515159D01*
X157477579Y-131725159D02*
X157477579Y-132675159D01*
%TO.C,R2*%
X133705000Y-136540000D02*
X135545000Y-136540000D01*
X135545000Y-132700000D01*
X133705000Y-132700000D01*
X133705000Y-136540000D01*
X134625000Y-137490000D02*
X134625000Y-136540000D01*
X134625000Y-131750000D02*
X134625000Y-132700000D01*
%TO.C,D9*%
X165673806Y-157475281D02*
G75*
G02*
X160673806Y-157475281I-2500000J0D01*
G01*
X160673806Y-157475281D02*
G75*
G02*
X165673806Y-157475281I2500000J0D01*
G01*
X163173806Y-154485281D02*
G75*
G02*
X164718636Y-160035281I0J-2990000D01*
G01*
X161628976Y-160035281D02*
G75*
G02*
X163173806Y-154485281I1544830J2560000D01*
G01*
X161628806Y-160035281D02*
X164718806Y-160035281D01*
%TO.C,D6*%
X147893806Y-157475281D02*
G75*
G02*
X142893806Y-157475281I-2500000J0D01*
G01*
X142893806Y-157475281D02*
G75*
G02*
X147893806Y-157475281I2500000J0D01*
G01*
X145393806Y-160465281D02*
G75*
G02*
X143848976Y-154915281I0J2990000D01*
G01*
X146938636Y-154915281D02*
G75*
G02*
X145393806Y-160465281I-1544830J-2560000D01*
G01*
X146938806Y-154915281D02*
X143848806Y-154915281D01*
%TO.C,D4*%
X157441259Y-107656259D02*
X157441259Y-110746259D01*
X157441259Y-107656429D02*
G75*
G02*
X162991259Y-109201259I2560000J-1544830D01*
G01*
X162991259Y-109201259D02*
G75*
G02*
X157441259Y-110746089I-2990000J0D01*
G01*
X162501259Y-109201259D02*
G75*
G02*
X157501259Y-109201259I-2500000J0D01*
G01*
X157501259Y-109201259D02*
G75*
G02*
X162501259Y-109201259I2500000J0D01*
G01*
%TO.C,SW2*%
X133415159Y-149794263D02*
X130695159Y-149794263D01*
X130695159Y-160014263D01*
X133415159Y-160014263D01*
X133415159Y-149794263D01*
%TO.C,D10*%
X146030000Y-94975000D02*
X146030000Y-98065000D01*
X146030000Y-94975170D02*
G75*
G02*
X151580000Y-96520000I2560000J-1544830D01*
G01*
X151580000Y-96520000D02*
G75*
G02*
X146030000Y-98064830I-2990000J0D01*
G01*
X151090000Y-96520000D02*
G75*
G02*
X146090000Y-96520000I-2500000J0D01*
G01*
X146090000Y-96520000D02*
G75*
G02*
X151090000Y-96520000I2500000J0D01*
G01*
%TO.C,D5*%
X156783806Y-157475281D02*
G75*
G02*
X151783806Y-157475281I-2500000J0D01*
G01*
X151783806Y-157475281D02*
G75*
G02*
X156783806Y-157475281I2500000J0D01*
G01*
X154283806Y-154485281D02*
G75*
G02*
X155828636Y-160035281I0J-2990000D01*
G01*
X152738976Y-160035281D02*
G75*
G02*
X154283806Y-154485281I1544830J2560000D01*
G01*
X152738806Y-160035281D02*
X155828806Y-160035281D01*
%TO.C,U1*%
X149582579Y-129455159D02*
G75*
G02*
X147582579Y-129455159I-1000000J0D01*
G01*
X150832579Y-139735159D02*
X150832579Y-129455159D01*
X150832579Y-129455159D02*
X149582579Y-129455159D01*
X147582579Y-129455159D02*
X146332579Y-129455159D01*
X146332579Y-139735159D02*
X150832579Y-139735159D01*
X146332579Y-129455159D02*
X146332579Y-139735159D01*
%TO.C,D7*%
X133370000Y-98065000D02*
X133370000Y-94975000D01*
X133370000Y-98064830D02*
G75*
G02*
X127820000Y-96520000I-2560000J1544830D01*
G01*
X127820000Y-96520000D02*
G75*
G02*
X133370000Y-94975170I2990000J0D01*
G01*
X133310000Y-96520000D02*
G75*
G02*
X128310000Y-96520000I-2500000J0D01*
G01*
X128310000Y-96520000D02*
G75*
G02*
X133310000Y-96520000I2500000J0D01*
G01*
%TO.C,D1*%
X110510000Y-99335000D02*
X110510000Y-96245000D01*
X110510000Y-99334830D02*
G75*
G02*
X104960000Y-97790000I-2560000J1544830D01*
G01*
X104960000Y-97790000D02*
G75*
G02*
X110510000Y-96245170I2990000J0D01*
G01*
X110450000Y-97790000D02*
G75*
G02*
X105450000Y-97790000I-2500000J0D01*
G01*
X105450000Y-97790000D02*
G75*
G02*
X110450000Y-97790000I2500000J0D01*
G01*
%TO.C,R1*%
X161637579Y-136515159D02*
X163477579Y-136515159D01*
X163477579Y-132675159D01*
X161637579Y-132675159D01*
X161637579Y-136515159D01*
X162557579Y-137465159D02*
X162557579Y-136515159D01*
X162557579Y-131725159D02*
X162557579Y-132675159D01*
%TO.C,D3*%
X173983385Y-99307112D02*
X173983385Y-96217112D01*
X173983385Y-99306942D02*
G75*
G02*
X168433385Y-97762112I-2560000J1544830D01*
G01*
X168433385Y-97762112D02*
G75*
G02*
X173983385Y-96217282I2990000J0D01*
G01*
X173923385Y-97762112D02*
G75*
G02*
X168923385Y-97762112I-2500000J0D01*
G01*
X168923385Y-97762112D02*
G75*
G02*
X173923385Y-97762112I2500000J0D01*
G01*
%TO.C,D11*%
X151090000Y-121920000D02*
G75*
G02*
X146090000Y-121920000I-2500000J0D01*
G01*
X146090000Y-121920000D02*
G75*
G02*
X151090000Y-121920000I2500000J0D01*
G01*
X145600000Y-121920000D02*
G75*
G02*
X151150000Y-120375170I2990000J0D01*
G01*
X151150000Y-123464830D02*
G75*
G02*
X145600000Y-121920000I-2560000J1544830D01*
G01*
X151150000Y-123465000D02*
X151150000Y-120375000D01*
%TO.C,R3*%
X138785000Y-136540000D02*
X140625000Y-136540000D01*
X140625000Y-132700000D01*
X138785000Y-132700000D01*
X138785000Y-136540000D01*
X139705000Y-137490000D02*
X139705000Y-136540000D01*
X139705000Y-131750000D02*
X139705000Y-132700000D01*
%TO.C,D12*%
X137140000Y-107675000D02*
X137140000Y-110765000D01*
X137140000Y-107675170D02*
G75*
G02*
X142690000Y-109220000I2560000J-1544830D01*
G01*
X142690000Y-109220000D02*
G75*
G02*
X137140000Y-110764830I-2990000J0D01*
G01*
X142200000Y-109220000D02*
G75*
G02*
X137200000Y-109220000I-2500000J0D01*
G01*
X137200000Y-109220000D02*
G75*
G02*
X142200000Y-109220000I2500000J0D01*
G01*
%TD*%
%LPC*%
D15*
%TO.C,LS2*%
X144751152Y-83815696D03*
D16*
X134751152Y-83815696D03*
%TD*%
D17*
%TO.C,LS1*%
X141705000Y-83820000D03*
D18*
X137705000Y-83820000D03*
%TD*%
%TO.C,C1*%
X149826138Y-142211958D03*
X147326138Y-142211958D03*
%TD*%
D19*
%TO.C,Q1*%
X153603579Y-82439645D03*
D20*
X152333579Y-83709645D03*
X153603579Y-84979645D03*
%TD*%
D21*
%TO.C,R5*%
X126933579Y-79899645D03*
X126933579Y-87519645D03*
%TD*%
D22*
%TO.C,D2*%
X118107045Y-109181123D03*
D23*
X120647045Y-109181123D03*
%TD*%
D24*
%TO.C,SW1*%
X181610000Y-140890000D03*
X169110000Y-140890000D03*
X181610000Y-135890000D03*
X169110000Y-135890000D03*
%TD*%
D25*
%TO.C,BT1*%
X116517073Y-145866552D03*
D26*
X116517073Y-133766552D03*
D27*
X116517073Y-135266552D03*
X116517073Y-156466552D03*
D26*
X116517073Y-157966552D03*
%TD*%
D23*
%TO.C,D8*%
X132080000Y-121920000D03*
D22*
X129540000Y-121920000D03*
%TD*%
D21*
%TO.C,R4*%
X157477579Y-130785159D03*
X157477579Y-138405159D03*
%TD*%
%TO.C,R2*%
X134625000Y-130810000D03*
X134625000Y-138430000D03*
%TD*%
D23*
%TO.C,D9*%
X163173806Y-156205281D03*
D22*
X163173806Y-158745281D03*
%TD*%
D23*
%TO.C,D6*%
X145393806Y-158745281D03*
D22*
X145393806Y-156205281D03*
%TD*%
%TO.C,D4*%
X158731259Y-109201259D03*
D23*
X161271259Y-109201259D03*
%TD*%
D18*
%TO.C,SW2*%
X132055159Y-157444263D03*
X132055159Y-152364263D03*
D28*
X132055159Y-154904263D03*
%TD*%
D22*
%TO.C,D10*%
X147320000Y-96520000D03*
D23*
X149860000Y-96520000D03*
%TD*%
%TO.C,D5*%
X154283806Y-156205281D03*
D22*
X154283806Y-158745281D03*
%TD*%
D29*
%TO.C,U1*%
X152392579Y-130785159D03*
X152392579Y-133325159D03*
X152392579Y-135865159D03*
X152392579Y-138405159D03*
X144772579Y-138405159D03*
X144772579Y-135865159D03*
X144772579Y-133325159D03*
D30*
X144772579Y-130785159D03*
%TD*%
D22*
%TO.C,D7*%
X132080000Y-96520000D03*
D23*
X129540000Y-96520000D03*
%TD*%
D22*
%TO.C,D1*%
X109220000Y-97790000D03*
D23*
X106680000Y-97790000D03*
%TD*%
D21*
%TO.C,R1*%
X162557579Y-130785159D03*
X162557579Y-138405159D03*
%TD*%
D22*
%TO.C,D3*%
X172693385Y-97762112D03*
D23*
X170153385Y-97762112D03*
%TD*%
%TO.C,D11*%
X147320000Y-121920000D03*
D22*
X149860000Y-121920000D03*
%TD*%
D21*
%TO.C,R3*%
X139705000Y-130810000D03*
X139705000Y-138430000D03*
%TD*%
D22*
%TO.C,D12*%
X138430000Y-109220000D03*
D23*
X140970000Y-109220000D03*
%TD*%
%LPD*%
M02*
