%TF.GenerationSoftware,KiCad,Pcbnew,9.0.5*%
%TF.CreationDate,2025-12-24T12:41:54-05:00*%
%TF.ProjectId,catch-man,63617463-682d-46d6-916e-2e6b69636164,rev?*%
%TF.SameCoordinates,Original*%
%TF.FileFunction,Copper,L2,Bot*%
%TF.FilePolarity,Positive*%
%FSLAX46Y46*%
G04 Gerber Fmt 4.6, Leading zero omitted, Abs format (unit mm)*
G04 Created by KiCad (PCBNEW 9.0.5) date 2025-12-24 12:41:54*
%MOMM*%
%LPD*%
G01*
G04 APERTURE LIST*
G04 Aperture macros list*
%AMRoundRect*
0 Rectangle with rounded corners*
0 $1 Rounding radius*
0 $2 $3 $4 $5 $6 $7 $8 $9 X,Y pos of 4 corners*
0 Add a 4 corners polygon primitive as box body*
4,1,4,$2,$3,$4,$5,$6,$7,$8,$9,$2,$3,0*
0 Add four circle primitives for the rounded corners*
1,1,$1+$1,$2,$3*
1,1,$1+$1,$4,$5*
1,1,$1+$1,$6,$7*
1,1,$1+$1,$8,$9*
0 Add four rect primitives between the rounded corners*
20,1,$1+$1,$2,$3,$4,$5,0*
20,1,$1+$1,$4,$5,$6,$7,0*
20,1,$1+$1,$6,$7,$8,$9,0*
20,1,$1+$1,$8,$9,$2,$3,0*%
G04 Aperture macros list end*
%TA.AperFunction,EtchedComponent*%
%ADD10C,2.100000*%
%TD*%
%TA.AperFunction,ComponentPad*%
%ADD11R,2.000000X2.000000*%
%TD*%
%TA.AperFunction,ComponentPad*%
%ADD12C,2.000000*%
%TD*%
%TA.AperFunction,ComponentPad*%
%ADD13R,1.600000X1.600000*%
%TD*%
%TA.AperFunction,ComponentPad*%
%ADD14C,1.600000*%
%TD*%
%TA.AperFunction,ComponentPad*%
%ADD15O,1.200000X1.600000*%
%TD*%
%TA.AperFunction,ComponentPad*%
%ADD16C,1.200000*%
%TD*%
%TA.AperFunction,ComponentPad*%
%ADD17C,1.400000*%
%TD*%
%TA.AperFunction,ComponentPad*%
%ADD18R,1.800000X1.800000*%
%TD*%
%TA.AperFunction,ComponentPad*%
%ADD19C,1.800000*%
%TD*%
%TA.AperFunction,ComponentPad*%
%ADD20O,3.200000X1.900000*%
%TD*%
%TA.AperFunction,ComponentPad*%
%ADD21C,3.000000*%
%TD*%
%TA.AperFunction,ComponentPad*%
%ADD22R,1.500000X1.500000*%
%TD*%
%TA.AperFunction,ComponentPad*%
%ADD23O,2.400000X1.600000*%
%TD*%
%TA.AperFunction,ComponentPad*%
%ADD24RoundRect,0.250000X-0.950000X-0.550000X0.950000X-0.550000X0.950000X0.550000X-0.950000X0.550000X0*%
%TD*%
%TA.AperFunction,ViaPad*%
%ADD25C,0.600000*%
%TD*%
%TA.AperFunction,Conductor*%
%ADD26C,0.508000*%
%TD*%
%TA.AperFunction,Conductor*%
%ADD27C,0.254000*%
%TD*%
G04 APERTURE END LIST*
%TO.C,BT1*%
D10*
X117567073Y-156466552D02*
G75*
G02*
X115467073Y-156466552I-1050000J0D01*
G01*
X115467073Y-156466552D02*
G75*
G02*
X117567073Y-156466552I1050000J0D01*
G01*
X117567073Y-135266552D02*
G75*
G02*
X115467073Y-135266552I-1050000J0D01*
G01*
X115467073Y-135266552D02*
G75*
G02*
X117567073Y-135266552I1050000J0D01*
G01*
%TD*%
D11*
%TO.P,LS2,1,1*%
%TO.N,/VCC*%
X144751152Y-83815696D03*
D12*
%TO.P,LS2,2,2*%
%TO.N,Net-(Q1-C)*%
X134751152Y-83815696D03*
%TD*%
D13*
%TO.P,LS1,1,1*%
%TO.N,/VCC*%
X141705000Y-83820000D03*
D14*
%TO.P,LS1,2,2*%
%TO.N,Net-(Q1-C)*%
X137705000Y-83820000D03*
%TD*%
%TO.P,C1,1*%
%TO.N,/VCC*%
X149826138Y-142211958D03*
%TO.P,C1,2*%
%TO.N,GND*%
X147326138Y-142211958D03*
%TD*%
D15*
%TO.P,Q1,1,E*%
%TO.N,GND*%
X153603579Y-82439645D03*
D16*
%TO.P,Q1,2,B*%
%TO.N,Net-(Q1-B)*%
X152333579Y-83709645D03*
%TO.P,Q1,3,C*%
%TO.N,Net-(Q1-C)*%
X153603579Y-84979645D03*
%TD*%
D17*
%TO.P,R5,1*%
%TO.N,Net-(Q1-B)*%
X126933579Y-79899645D03*
%TO.P,R5,2*%
%TO.N,Net-(U1-P3.1)*%
X126933579Y-87519645D03*
%TD*%
D18*
%TO.P,D2,1,K*%
%TO.N,Net-(D1-A)*%
X118107045Y-109181123D03*
D19*
%TO.P,D2,2,A*%
%TO.N,Net-(D1-K)*%
X120647045Y-109181123D03*
%TD*%
D20*
%TO.P,SW1,2,2*%
%TO.N,Net-(U1-P3.0)*%
X181610000Y-140890000D03*
X169110000Y-140890000D03*
%TO.P,SW1,1,1*%
%TO.N,GND*%
X181610000Y-135890000D03*
X169110000Y-135890000D03*
%TD*%
D21*
%TO.P,BT1,1,+*%
%TO.N,Net-(BT1-+)*%
X116517073Y-135266552D03*
X116517073Y-156466552D03*
%TD*%
D19*
%TO.P,D8,2,A*%
%TO.N,Net-(D11-K)*%
X132080000Y-121920000D03*
D18*
%TO.P,D8,1,K*%
%TO.N,Net-(D1-A)*%
X129540000Y-121920000D03*
%TD*%
D17*
%TO.P,R4,2*%
%TO.N,Net-(D11-K)*%
X157477579Y-130785159D03*
%TO.P,R4,1*%
%TO.N,Net-(U1-P3.2)*%
X157477579Y-138405159D03*
%TD*%
%TO.P,R2,2*%
%TO.N,Net-(D1-K)*%
X134625000Y-130810000D03*
%TO.P,R2,1*%
%TO.N,Net-(U1-P5.4)*%
X134625000Y-138430000D03*
%TD*%
D19*
%TO.P,D9,2,A*%
%TO.N,Net-(D1-A)*%
X163173806Y-156205281D03*
D18*
%TO.P,D9,1,K*%
%TO.N,Net-(D10-A)*%
X163173806Y-158745281D03*
%TD*%
D19*
%TO.P,D6,2,A*%
%TO.N,Net-(D10-A)*%
X145393806Y-158745281D03*
D18*
%TO.P,D6,1,K*%
%TO.N,Net-(D1-K)*%
X145393806Y-156205281D03*
%TD*%
%TO.P,D4,1,K*%
%TO.N,Net-(D10-A)*%
X158731259Y-109201259D03*
D19*
%TO.P,D4,2,A*%
%TO.N,Net-(D11-K)*%
X161271259Y-109201259D03*
%TD*%
D14*
%TO.P,SW2,3,C*%
%TO.N,unconnected-(SW2-C-Pad3)*%
X132055159Y-157444263D03*
%TO.P,SW2,2,B*%
%TO.N,Net-(BT1-+)*%
X132055159Y-152364263D03*
D22*
%TO.P,SW2,1,A*%
%TO.N,/VCC*%
X132055159Y-154904263D03*
%TD*%
D18*
%TO.P,D10,1,K*%
%TO.N,Net-(D1-A)*%
X147320000Y-96520000D03*
D19*
%TO.P,D10,2,A*%
%TO.N,Net-(D10-A)*%
X149860000Y-96520000D03*
%TD*%
%TO.P,D5,2,A*%
%TO.N,Net-(D1-K)*%
X154283806Y-156205281D03*
D18*
%TO.P,D5,1,K*%
%TO.N,Net-(D10-A)*%
X154283806Y-158745281D03*
%TD*%
D23*
%TO.P,U1,8,P3.3*%
%TO.N,Net-(U1-P3.3)*%
X152392579Y-130785159D03*
%TO.P,U1,7,P3.2*%
%TO.N,Net-(U1-P3.2)*%
X152392579Y-133325159D03*
%TO.P,U1,6,P3.1*%
%TO.N,Net-(U1-P3.1)*%
X152392579Y-135865159D03*
%TO.P,U1,5,P3.0*%
%TO.N,Net-(U1-P3.0)*%
X152392579Y-138405159D03*
%TO.P,U1,4,GND*%
%TO.N,GND*%
X144772579Y-138405159D03*
%TO.P,U1,3,P5.5*%
%TO.N,Net-(U1-P5.5)*%
X144772579Y-135865159D03*
%TO.P,U1,2,VCC*%
%TO.N,/VCC*%
X144772579Y-133325159D03*
D24*
%TO.P,U1,1,P5.4*%
%TO.N,Net-(U1-P5.4)*%
X144772579Y-130785159D03*
%TD*%
D18*
%TO.P,D7,1,K*%
%TO.N,Net-(D11-K)*%
X132080000Y-96520000D03*
D19*
%TO.P,D7,2,A*%
%TO.N,Net-(D1-A)*%
X129540000Y-96520000D03*
%TD*%
D18*
%TO.P,D1,1,K*%
%TO.N,Net-(D1-K)*%
X109220000Y-97790000D03*
D19*
%TO.P,D1,2,A*%
%TO.N,Net-(D1-A)*%
X106680000Y-97790000D03*
%TD*%
D17*
%TO.P,R1,2*%
%TO.N,Net-(D1-A)*%
X162557579Y-130785159D03*
%TO.P,R1,1*%
%TO.N,Net-(U1-P3.3)*%
X162557579Y-138405159D03*
%TD*%
D18*
%TO.P,D3,1,K*%
%TO.N,Net-(D11-K)*%
X172693385Y-97762112D03*
D19*
%TO.P,D3,2,A*%
%TO.N,Net-(D10-A)*%
X170153385Y-97762112D03*
%TD*%
%TO.P,D11,2,A*%
%TO.N,Net-(D1-K)*%
X147320000Y-121920000D03*
D18*
%TO.P,D11,1,K*%
%TO.N,Net-(D11-K)*%
X149860000Y-121920000D03*
%TD*%
D17*
%TO.P,R3,2*%
%TO.N,Net-(D10-A)*%
X139705000Y-130810000D03*
%TO.P,R3,1*%
%TO.N,Net-(U1-P5.5)*%
X139705000Y-138430000D03*
%TD*%
D18*
%TO.P,D12,1,K*%
%TO.N,Net-(D1-K)*%
X138430000Y-109220000D03*
D19*
%TO.P,D12,2,A*%
%TO.N,Net-(D11-K)*%
X140970000Y-109220000D03*
%TD*%
D25*
%TO.N,Net-(D1-A)*%
X154945000Y-127000000D03*
%TD*%
D26*
%TO.N,Net-(Q1-C)*%
X137705000Y-83820000D02*
X134755456Y-83820000D01*
X134755456Y-83820000D02*
X134751152Y-83815696D01*
%TO.N,/VCC*%
X149826138Y-142211958D02*
X149826138Y-144741138D01*
X149826138Y-144741138D02*
X151135000Y-146050000D01*
X151135000Y-146050000D02*
X184155000Y-146050000D01*
X184155000Y-146050000D02*
X185425000Y-144780000D01*
X185425000Y-144780000D02*
X185425000Y-97790000D01*
X167645000Y-80010000D02*
X148595000Y-80010000D01*
X148595000Y-80010000D02*
X144785000Y-83820000D01*
X185425000Y-97790000D02*
X167645000Y-80010000D01*
X144785000Y-83820000D02*
X141705000Y-83820000D01*
%TO.N,Net-(Q1-C)*%
X153603579Y-84979645D02*
X152405000Y-86178224D01*
X152405000Y-86178224D02*
X152405000Y-86360000D01*
X152405000Y-86360000D02*
X140245000Y-86360000D01*
X140245000Y-86360000D02*
X137705000Y-83820000D01*
D27*
%TO.N,Net-(D11-K)*%
X157485000Y-130792580D02*
X157477579Y-130785159D01*
X157477579Y-130785159D02*
X157477579Y-123182579D01*
X157477579Y-123182579D02*
X156215000Y-121920000D01*
X156215000Y-121920000D02*
X149860000Y-121920000D01*
%TO.N,Net-(D1-A)*%
X154945000Y-127000000D02*
X130815000Y-127000000D01*
X130815000Y-127000000D02*
X129540000Y-125725000D01*
X129540000Y-125725000D02*
X129540000Y-121920000D01*
%TO.N,Net-(D10-A)*%
X145393806Y-158745281D02*
X142245000Y-155596475D01*
X142245000Y-155596475D02*
X142245000Y-151130000D01*
X142245000Y-151130000D02*
X140975000Y-149860000D01*
X140975000Y-149860000D02*
X132085000Y-149860000D01*
X130815000Y-130810000D02*
X133355000Y-128270000D01*
X132085000Y-149860000D02*
X130815000Y-148590000D01*
X130815000Y-148590000D02*
X130815000Y-130810000D01*
X133355000Y-128270000D02*
X137165000Y-128270000D01*
X137165000Y-128270000D02*
X139705000Y-130810000D01*
%TO.N,Net-(D1-K)*%
X145393806Y-156205281D02*
X145393806Y-150468806D01*
X145393806Y-150468806D02*
X143515000Y-148590000D01*
X133355000Y-148590000D02*
X143515000Y-148590000D01*
X132085000Y-133350000D02*
X132085000Y-147320000D01*
X134625000Y-130810000D02*
X132085000Y-133350000D01*
X132085000Y-147320000D02*
X133355000Y-148590000D01*
%TO.N,Net-(U1-P3.1)*%
X152392579Y-135865159D02*
X154945000Y-138417580D01*
X154945000Y-138417580D02*
X154945000Y-139700000D01*
X154945000Y-139700000D02*
X156215000Y-140970000D01*
X170074645Y-87519645D02*
X126933579Y-87519645D01*
X156215000Y-140970000D02*
X165105000Y-140970000D01*
X165105000Y-140970000D02*
X166375000Y-139700000D01*
X166375000Y-139700000D02*
X166375000Y-133350000D01*
X166375000Y-133350000D02*
X168915000Y-130810000D01*
X168915000Y-130810000D02*
X181615000Y-130810000D01*
X181615000Y-130810000D02*
X182885000Y-129540000D01*
X182885000Y-129540000D02*
X182885000Y-100330000D01*
X182885000Y-100330000D02*
X170074645Y-87519645D01*
D26*
%TO.N,GND*%
X184155000Y-135890000D02*
X184155000Y-99060000D01*
X184155000Y-99060000D02*
X167534645Y-82439645D01*
X167534645Y-82439645D02*
X153603579Y-82439645D01*
X184155000Y-135890000D02*
X184155000Y-143510000D01*
X147325000Y-140956548D02*
X147325000Y-142210820D01*
X184155000Y-143510000D02*
X182885000Y-144780000D01*
X151135000Y-139700000D02*
X148581548Y-139700000D01*
X182885000Y-144780000D02*
X153675000Y-144780000D01*
X147325000Y-142210820D02*
X147326138Y-142211958D01*
X153675000Y-144780000D02*
X152405000Y-143510000D01*
X152405000Y-143510000D02*
X152405000Y-140970000D01*
X152405000Y-140970000D02*
X151135000Y-139700000D01*
X148581548Y-139700000D02*
X147325000Y-140956548D01*
D27*
X181610000Y-135890000D02*
X184155000Y-135890000D01*
%TO.N,Net-(U1-P5.4)*%
X143539841Y-130785159D02*
X135895000Y-138430000D01*
X144772579Y-130785159D02*
X143539841Y-130785159D01*
X135895000Y-138430000D02*
X134625000Y-138430000D01*
%TO.N,Net-(U1-P5.5)*%
X144772579Y-135865159D02*
X142269841Y-135865159D01*
X142269841Y-135865159D02*
X139705000Y-138430000D01*
%TO.N,Net-(U1-P3.0)*%
X156215000Y-142240000D02*
X152392579Y-138417579D01*
X152392579Y-138417579D02*
X152392579Y-138405159D01*
%TO.N,Net-(D1-K)*%
X145393806Y-156205281D02*
X154283806Y-156205281D01*
%TO.N,Net-(D10-A)*%
X145393806Y-158745281D02*
X163173806Y-158745281D01*
%TO.N,GND*%
X181610000Y-135890000D02*
X169110000Y-135890000D01*
%TO.N,Net-(U1-P3.0)*%
X181610000Y-140890000D02*
X169110000Y-140890000D01*
X156215000Y-142240000D02*
X167760000Y-142240000D01*
X167760000Y-142240000D02*
X169110000Y-140890000D01*
%TO.N,Net-(U1-P3.3)*%
X152397579Y-130785159D02*
X160017579Y-138405159D01*
X152392579Y-130785159D02*
X152397579Y-130785159D01*
X160017579Y-138405159D02*
X162557579Y-138405159D01*
%TO.N,Net-(U1-P3.2)*%
X152392579Y-133325159D02*
X152397579Y-133325159D01*
X152397579Y-133325159D02*
X157477579Y-138405159D01*
%TO.N,Net-(D1-K)*%
X138392023Y-109189369D02*
X138370229Y-109211163D01*
X138370229Y-109211163D02*
X120677085Y-109211163D01*
X120677085Y-109211163D02*
X120647045Y-109181123D01*
%TO.N,Net-(D11-K)*%
X160660000Y-111125000D02*
X161295000Y-110490000D01*
X149230000Y-111125000D02*
X160660000Y-111125000D01*
X147960000Y-118745000D02*
X149230000Y-118745000D01*
X161295000Y-110490000D02*
X161271259Y-110466259D01*
X161271259Y-110466259D02*
X161271259Y-109201259D01*
X147960000Y-118745000D02*
X147960000Y-112395000D01*
X147960000Y-112395000D02*
X149230000Y-111125000D01*
X149230000Y-118745000D02*
X149865000Y-119380000D01*
X140970000Y-118745000D02*
X147960000Y-118745000D01*
X140970000Y-121280000D02*
X140970000Y-118745000D01*
X149865000Y-119380000D02*
X149860000Y-119385000D01*
X149860000Y-119385000D02*
X149860000Y-121920000D01*
X140340000Y-121920000D02*
X140975000Y-121285000D01*
X140970000Y-118745000D02*
X140970000Y-109220000D01*
X132080000Y-121920000D02*
X140340000Y-121920000D01*
X140975000Y-121285000D02*
X140970000Y-121280000D01*
%TO.N,Net-(D1-A)*%
X129540000Y-121920000D02*
X119385000Y-121920000D01*
X119385000Y-121920000D02*
X118107045Y-120642045D01*
X118107045Y-120642045D02*
X118107045Y-109181123D01*
%TO.N,Net-(D10-A)*%
X158731259Y-109201259D02*
X158731259Y-109243741D01*
X149860000Y-96520000D02*
X149860000Y-101595000D01*
X149860000Y-101595000D02*
X152405000Y-104140000D01*
X152405000Y-104140000D02*
X155580000Y-104140000D01*
X155580000Y-104140000D02*
X158755000Y-107315000D01*
X158755000Y-107315000D02*
X158731259Y-107338741D01*
X158731259Y-107338741D02*
X158731259Y-109201259D01*
%TO.N,Net-(D1-A)*%
X106680000Y-94620000D02*
X107320000Y-93980000D01*
X106680000Y-97790000D02*
X106680000Y-94620000D01*
X107320000Y-93980000D02*
X130175000Y-93980000D01*
%TO.N,Net-(D11-K)*%
X161271259Y-109201259D02*
X172693385Y-97779133D01*
X172693385Y-97779133D02*
X172693385Y-97762112D01*
%TO.N,Net-(D10-A)*%
X158731259Y-109201259D02*
X158731259Y-109184238D01*
X158731259Y-109184238D02*
X170153385Y-97762112D01*
%TO.N,Net-(D1-K)*%
X109220000Y-97790000D02*
X109255922Y-97790000D01*
X109255922Y-97790000D02*
X120647045Y-109181123D01*
%TO.N,Net-(D1-A)*%
X118107045Y-109181123D02*
X118071123Y-109181123D01*
X118071123Y-109181123D02*
X106680000Y-97790000D01*
X146685000Y-93980000D02*
X147320000Y-94615000D01*
X130175000Y-93980000D02*
X146685000Y-93980000D01*
X147320000Y-94615000D02*
X147252381Y-94682619D01*
X147252381Y-94682619D02*
X147252381Y-96505068D01*
X129463239Y-96494172D02*
X129463239Y-94691761D01*
X129463239Y-94691761D02*
X130175000Y-93980000D01*
%TO.N,Net-(D11-K)*%
X132003239Y-96494172D02*
X132003239Y-102158239D01*
X140932023Y-107277023D02*
X140932023Y-109189369D01*
X132003239Y-102158239D02*
X133985000Y-104140000D01*
X133985000Y-104140000D02*
X137795000Y-104140000D01*
X137795000Y-104140000D02*
X140932023Y-107277023D01*
%TD*%
M02*
