M48
; DRILL file {KiCad 9.0.6} date 2026-01-15T23:05:42-0500
; FORMAT={-:-/ absolute / inch / decimal}
; #@! TF.CreationDate,2026-01-15T23:05:42-05:00
; #@! TF.GenerationSoftware,Kicad,Pcbnew,9.0.6
; #@! TF.FileFunction,Plated,1,2,PTH
FMAT,2
INCH
; #@! TA.AperFunction,Plated,PTH,ViaDrill
T1C0.0118
; #@! TA.AperFunction,Plated,PTH,ViaDrill
T2C0.0200
; #@! TA.AperFunction,Plated,PTH,ComponentDrill
T3C0.0276
; #@! TA.AperFunction,Plated,PTH,ComponentDrill
T4C0.0315
; #@! TA.AperFunction,Plated,PTH,ComponentDrill
T5C0.0354
; #@! TA.AperFunction,Plated,PTH,ComponentDrill
T6C0.0394
; #@! TA.AperFunction,Plated,PTH,ComponentDrill
T7C0.0512
; #@! TA.AperFunction,Plated,PTH,ComponentDrill
T8C0.0728
%
G90
G05
T1
X5.23Y-5.58
X5.38Y-4.8
X5.38Y-4.96
X5.38Y-5.08
X5.46Y-5.4
X5.46Y-5.68
X5.54Y-5.52
X5.54Y-5.68
X5.68Y-4.68
X5.68Y-4.84
X5.68Y-4.96
X5.68Y-5.08
X6.22Y-5.04
X6.3Y-5.04
X6.5Y-5.48
X6.5Y-5.62
T2
X4.36Y-6.26
X5.02Y-5.64
T3
X5.54Y-5.14
X5.54Y-5.44
X5.68Y-5.14
X5.68Y-5.44
X6.26Y-5.14
X6.26Y-5.44
X6.4Y-5.14
X6.4Y-5.44
T4
X4.9317Y-5.2205
X4.98Y-6.26
X5.08Y-6.26
X5.18Y-6.26
X5.2317Y-5.2205
X5.7216Y-5.58
X5.82Y-5.14
X5.82Y-5.24
X5.82Y-5.34
X5.82Y-5.44
X5.82Y-5.58
X6.12Y-5.14
X6.12Y-5.24
X6.12Y-5.34
X6.12Y-5.44
T5
X4.2Y-3.85
X4.3Y-3.85
X4.6499Y-4.2985
X4.7499Y-4.2985
X5.1Y-3.8
X5.1Y-4.8
X5.2Y-3.8
X5.2Y-4.8
X5.45Y-4.3
X5.55Y-4.3
X5.7242Y-6.1498
X5.7242Y-6.2498
X5.8Y-3.8
X5.8Y-4.8
X5.9Y-3.8
X5.9Y-4.8
X6.0742Y-6.1498
X6.0742Y-6.2498
X6.2493Y-4.2993
X6.3493Y-4.2993
X6.4242Y-6.1498
X6.4242Y-6.2498
X6.699Y-3.8489
X6.799Y-3.8489
T6
X4.9304Y-5.72
X5.2296Y-5.72
T7
X6.6679Y-5.3431
X6.6679Y-5.54
X7.16Y-5.3431
X7.16Y-5.54
T8
X4.28Y-5.22
X4.28Y-6.0546
M30
