%TF.GenerationSoftware,KiCad,Pcbnew,9.0.5*%
%TF.CreationDate,2025-12-23T23:47:00-05:00*%
%TF.ProjectId,catch-man,63617463-682d-46d6-916e-2e6b69636164,rev?*%
%TF.SameCoordinates,Original*%
%TF.FileFunction,Soldermask,Top*%
%TF.FilePolarity,Negative*%
%FSLAX46Y46*%
G04 Gerber Fmt 4.6, Leading zero omitted, Abs format (unit mm)*
G04 Created by KiCad (PCBNEW 9.0.5) date 2025-12-23 23:47:00*
%MOMM*%
%LPD*%
G01*
G04 APERTURE LIST*
G04 Aperture macros list*
%AMRoundRect*
0 Rectangle with rounded corners*
0 $1 Rounding radius*
0 $2 $3 $4 $5 $6 $7 $8 $9 X,Y pos of 4 corners*
0 Add a 4 corners polygon primitive as box body*
4,1,4,$2,$3,$4,$5,$6,$7,$8,$9,$2,$3,0*
0 Add four circle primitives for the rounded corners*
1,1,$1+$1,$2,$3*
1,1,$1+$1,$4,$5*
1,1,$1+$1,$6,$7*
1,1,$1+$1,$8,$9*
0 Add four rect primitives between the rounded corners*
20,1,$1+$1,$2,$3,$4,$5,0*
20,1,$1+$1,$4,$5,$6,$7,0*
20,1,$1+$1,$6,$7,$8,$9,0*
20,1,$1+$1,$8,$9,$2,$3,0*%
G04 Aperture macros list end*
%ADD10R,1.600000X1.600000*%
%ADD11C,1.600000*%
%ADD12O,1.200000X1.600000*%
%ADD13C,1.200000*%
%ADD14C,1.400000*%
%ADD15R,1.800000X1.800000*%
%ADD16C,1.800000*%
%ADD17O,3.200000X1.900000*%
%ADD18C,15.000000*%
%ADD19R,9.500000X3.000000*%
%ADD20C,3.000000*%
%ADD21R,1.500000X1.500000*%
%ADD22O,2.400000X1.600000*%
%ADD23RoundRect,0.250000X-0.950000X-0.550000X0.950000X-0.550000X0.950000X0.550000X-0.950000X0.550000X0*%
G04 APERTURE END LIST*
D10*
%TO.C,LS1*%
X141705000Y-83820000D03*
D11*
X137705000Y-83820000D03*
%TD*%
%TO.C,C1*%
X149826138Y-142211958D03*
X147326138Y-142211958D03*
%TD*%
D12*
%TO.C,Q1*%
X153603579Y-82439645D03*
D13*
X152333579Y-83709645D03*
X153603579Y-84979645D03*
%TD*%
D14*
%TO.C,R5*%
X126933579Y-79899645D03*
X126933579Y-87519645D03*
%TD*%
D15*
%TO.C,D2*%
X118107045Y-109181123D03*
D16*
X120647045Y-109181123D03*
%TD*%
D17*
%TO.C,SW1*%
X181610000Y-140890000D03*
X169110000Y-140890000D03*
X181610000Y-135890000D03*
X169110000Y-135890000D03*
%TD*%
D18*
%TO.C,BT1*%
X116517073Y-145866552D03*
D19*
X116517073Y-133766552D03*
D20*
X116517073Y-135266552D03*
X116517073Y-156466552D03*
D19*
X116517073Y-157966552D03*
%TD*%
D16*
%TO.C,D8*%
X132080000Y-121920000D03*
D15*
X129540000Y-121920000D03*
%TD*%
D14*
%TO.C,R4*%
X157477579Y-130785159D03*
X157477579Y-138405159D03*
%TD*%
%TO.C,R2*%
X134625000Y-130810000D03*
X134625000Y-138430000D03*
%TD*%
D16*
%TO.C,D9*%
X163173806Y-156205281D03*
D15*
X163173806Y-158745281D03*
%TD*%
D16*
%TO.C,D6*%
X145393806Y-158745281D03*
D15*
X145393806Y-156205281D03*
%TD*%
%TO.C,D4*%
X158731259Y-109201259D03*
D16*
X161271259Y-109201259D03*
%TD*%
D11*
%TO.C,SW2*%
X132055159Y-157444263D03*
X132055159Y-152364263D03*
D21*
X132055159Y-154904263D03*
%TD*%
D15*
%TO.C,D10*%
X147320000Y-96520000D03*
D16*
X149860000Y-96520000D03*
%TD*%
%TO.C,D5*%
X154283806Y-156205281D03*
D15*
X154283806Y-158745281D03*
%TD*%
D22*
%TO.C,U1*%
X152392579Y-130785159D03*
X152392579Y-133325159D03*
X152392579Y-135865159D03*
X152392579Y-138405159D03*
X144772579Y-138405159D03*
X144772579Y-135865159D03*
X144772579Y-133325159D03*
D23*
X144772579Y-130785159D03*
%TD*%
D15*
%TO.C,D7*%
X132080000Y-96520000D03*
D16*
X129540000Y-96520000D03*
%TD*%
D15*
%TO.C,D1*%
X109220000Y-97790000D03*
D16*
X106680000Y-97790000D03*
%TD*%
D14*
%TO.C,R1*%
X162557579Y-130785159D03*
X162557579Y-138405159D03*
%TD*%
D15*
%TO.C,D3*%
X172693385Y-97762112D03*
D16*
X170153385Y-97762112D03*
%TD*%
%TO.C,D11*%
X147320000Y-121920000D03*
D15*
X149860000Y-121920000D03*
%TD*%
D14*
%TO.C,R3*%
X139705000Y-130810000D03*
X139705000Y-138430000D03*
%TD*%
D15*
%TO.C,D12*%
X138430000Y-109220000D03*
D16*
X140970000Y-109220000D03*
%TD*%
M02*
