%TF.GenerationSoftware,KiCad,Pcbnew,9.0.6*%
%TF.CreationDate,2025-12-23T17:03:05-05:00*%
%TF.ProjectId,catch-man,63617463-682d-46d6-916e-2e6b69636164,rev?*%
%TF.SameCoordinates,Original*%
%TF.FileFunction,Soldermask,Top*%
%TF.FilePolarity,Negative*%
%FSLAX46Y46*%
G04 Gerber Fmt 4.6, Leading zero omitted, Abs format (unit mm)*
G04 Created by KiCad (PCBNEW 9.0.6) date 2025-12-23 17:03:05*
%MOMM*%
%LPD*%
G01*
G04 APERTURE LIST*
G04 Aperture macros list*
%AMRoundRect*
0 Rectangle with rounded corners*
0 $1 Rounding radius*
0 $2 $3 $4 $5 $6 $7 $8 $9 X,Y pos of 4 corners*
0 Add a 4 corners polygon primitive as box body*
4,1,4,$2,$3,$4,$5,$6,$7,$8,$9,$2,$3,0*
0 Add four circle primitives for the rounded corners*
1,1,$1+$1,$2,$3*
1,1,$1+$1,$4,$5*
1,1,$1+$1,$6,$7*
1,1,$1+$1,$8,$9*
0 Add four rect primitives between the rounded corners*
20,1,$1+$1,$2,$3,$4,$5,0*
20,1,$1+$1,$4,$5,$6,$7,0*
20,1,$1+$1,$6,$7,$8,$9,0*
20,1,$1+$1,$8,$9,$2,$3,0*%
G04 Aperture macros list end*
%ADD10R,1.500000X1.500000*%
%ADD11C,1.600000*%
%ADD12R,9.500000X3.000000*%
%ADD13C,3.000000*%
%ADD14C,15.000000*%
%ADD15C,1.400000*%
%ADD16R,1.800000X1.800000*%
%ADD17C,1.800000*%
%ADD18O,3.200000X1.900000*%
%ADD19R,1.500000X1.050000*%
%ADD20O,1.500000X1.050000*%
%ADD21R,2.000000X2.000000*%
%ADD22C,2.000000*%
%ADD23RoundRect,0.250000X-0.950000X-0.550000X0.950000X-0.550000X0.950000X0.550000X-0.950000X0.550000X0*%
%ADD24O,2.400000X1.600000*%
G04 APERTURE END LIST*
D10*
%TO.C,SW2*%
X116500000Y-151000000D03*
D11*
X113960000Y-151000000D03*
X119040000Y-151000000D03*
%TD*%
D12*
%TO.C,BT1*%
X111500000Y-144100000D03*
D13*
X111500000Y-142600000D03*
X111500000Y-121400000D03*
D12*
X111500000Y-119900000D03*
D14*
X111500000Y-132000000D03*
%TD*%
D15*
%TO.C,R5*%
X123506042Y-66305612D03*
X123506042Y-73925612D03*
%TD*%
D16*
%TO.C,D2*%
X116265000Y-96000000D03*
D17*
X118805000Y-96000000D03*
%TD*%
D18*
%TO.C,SW1*%
X157750000Y-128500000D03*
X170250000Y-128500000D03*
X157750000Y-133500000D03*
X170250000Y-133500000D03*
%TD*%
D16*
%TO.C,D8*%
X126514999Y-106731224D03*
D17*
X129054999Y-106731224D03*
%TD*%
D15*
%TO.C,R4*%
X135243958Y-127134388D03*
X127623958Y-127134388D03*
%TD*%
%TO.C,R2*%
X135303958Y-119384388D03*
X127683958Y-119384388D03*
%TD*%
D16*
%TO.C,D9*%
X148000000Y-144290000D03*
D17*
X148000000Y-141750000D03*
%TD*%
D16*
%TO.C,D6*%
X129000000Y-144290000D03*
D17*
X129000000Y-141750000D03*
%TD*%
D19*
%TO.C,Q1*%
X150506042Y-68825612D03*
D20*
X150506042Y-70095612D03*
X150506042Y-71365612D03*
%TD*%
D16*
%TO.C,D4*%
X154432085Y-95750000D03*
D17*
X156972085Y-95750000D03*
%TD*%
D16*
%TO.C,D12*%
X133756042Y-96115612D03*
D17*
X136296042Y-96115612D03*
%TD*%
D21*
%TO.C,LS1*%
X132756042Y-70615612D03*
D22*
X140356042Y-70615612D03*
%TD*%
D16*
%TO.C,D10*%
X141216042Y-84365612D03*
D17*
X143756042Y-84365612D03*
%TD*%
D16*
%TO.C,D5*%
X138500000Y-144290000D03*
D17*
X138500000Y-141750000D03*
%TD*%
D23*
%TO.C,U1*%
X140380000Y-119630000D03*
D24*
X140380000Y-122170000D03*
X140380000Y-124710000D03*
X140380000Y-127250000D03*
X148000000Y-127250000D03*
X148000000Y-124710000D03*
X148000000Y-122170000D03*
X148000000Y-119630000D03*
%TD*%
D16*
%TO.C,D7*%
X126249999Y-84231224D03*
D17*
X128789999Y-84231224D03*
%TD*%
D16*
%TO.C,D1*%
X103000000Y-85500000D03*
D17*
X105540000Y-85500000D03*
%TD*%
D15*
%TO.C,R1*%
X135310000Y-122054388D03*
X127690000Y-122054388D03*
%TD*%
D16*
%TO.C,D3*%
X167932085Y-83250000D03*
D17*
X170472085Y-83250000D03*
%TD*%
D16*
%TO.C,D11*%
X142216042Y-107365612D03*
D17*
X144756042Y-107365612D03*
%TD*%
D15*
%TO.C,R3*%
X135243958Y-124634388D03*
X127623958Y-124634388D03*
%TD*%
M02*
