%TF.GenerationSoftware,KiCad,Pcbnew,9.0.5*%
%TF.CreationDate,2025-12-23T23:47:00-05:00*%
%TF.ProjectId,catch-man,63617463-682d-46d6-916e-2e6b69636164,rev?*%
%TF.SameCoordinates,Original*%
%TF.FileFunction,Copper,L1,Top*%
%TF.FilePolarity,Positive*%
%FSLAX46Y46*%
G04 Gerber Fmt 4.6, Leading zero omitted, Abs format (unit mm)*
G04 Created by KiCad (PCBNEW 9.0.5) date 2025-12-23 23:47:00*
%MOMM*%
%LPD*%
G01*
G04 APERTURE LIST*
G04 Aperture macros list*
%AMRoundRect*
0 Rectangle with rounded corners*
0 $1 Rounding radius*
0 $2 $3 $4 $5 $6 $7 $8 $9 X,Y pos of 4 corners*
0 Add a 4 corners polygon primitive as box body*
4,1,4,$2,$3,$4,$5,$6,$7,$8,$9,$2,$3,0*
0 Add four circle primitives for the rounded corners*
1,1,$1+$1,$2,$3*
1,1,$1+$1,$4,$5*
1,1,$1+$1,$6,$7*
1,1,$1+$1,$8,$9*
0 Add four rect primitives between the rounded corners*
20,1,$1+$1,$2,$3,$4,$5,0*
20,1,$1+$1,$4,$5,$6,$7,0*
20,1,$1+$1,$6,$7,$8,$9,0*
20,1,$1+$1,$8,$9,$2,$3,0*%
G04 Aperture macros list end*
%TA.AperFunction,ComponentPad*%
%ADD10R,1.600000X1.600000*%
%TD*%
%TA.AperFunction,ComponentPad*%
%ADD11C,1.600000*%
%TD*%
%TA.AperFunction,ComponentPad*%
%ADD12O,1.200000X1.600000*%
%TD*%
%TA.AperFunction,ComponentPad*%
%ADD13C,1.200000*%
%TD*%
%TA.AperFunction,ComponentPad*%
%ADD14C,1.400000*%
%TD*%
%TA.AperFunction,ComponentPad*%
%ADD15R,1.800000X1.800000*%
%TD*%
%TA.AperFunction,ComponentPad*%
%ADD16C,1.800000*%
%TD*%
%TA.AperFunction,ComponentPad*%
%ADD17O,3.200000X1.900000*%
%TD*%
%TA.AperFunction,SMDPad,CuDef*%
%ADD18C,15.000000*%
%TD*%
%TA.AperFunction,SMDPad,CuDef*%
%ADD19R,9.500000X3.000000*%
%TD*%
%TA.AperFunction,ComponentPad*%
%ADD20C,3.000000*%
%TD*%
%TA.AperFunction,ComponentPad*%
%ADD21R,1.500000X1.500000*%
%TD*%
%TA.AperFunction,ComponentPad*%
%ADD22O,2.400000X1.600000*%
%TD*%
%TA.AperFunction,ComponentPad*%
%ADD23RoundRect,0.250000X-0.950000X-0.550000X0.950000X-0.550000X0.950000X0.550000X-0.950000X0.550000X0*%
%TD*%
%TA.AperFunction,ViaPad*%
%ADD24C,0.600000*%
%TD*%
%TA.AperFunction,Conductor*%
%ADD25C,0.254000*%
%TD*%
%TA.AperFunction,Conductor*%
%ADD26C,0.508000*%
%TD*%
G04 APERTURE END LIST*
D10*
%TO.P,LS1,1,1*%
%TO.N,/VCC*%
X141705000Y-83820000D03*
D11*
%TO.P,LS1,2,2*%
%TO.N,Net-(Q1-C)*%
X137705000Y-83820000D03*
%TD*%
%TO.P,C1,1*%
%TO.N,/VCC*%
X149826138Y-142211958D03*
%TO.P,C1,2*%
%TO.N,GND*%
X147326138Y-142211958D03*
%TD*%
D12*
%TO.P,Q1,1,E*%
%TO.N,GND*%
X153603579Y-82439645D03*
D13*
%TO.P,Q1,2,B*%
%TO.N,Net-(Q1-B)*%
X152333579Y-83709645D03*
%TO.P,Q1,3,C*%
%TO.N,Net-(Q1-C)*%
X153603579Y-84979645D03*
%TD*%
D14*
%TO.P,R5,1*%
%TO.N,Net-(Q1-B)*%
X126933579Y-79899645D03*
%TO.P,R5,2*%
%TO.N,Net-(U1-P3.1)*%
X126933579Y-87519645D03*
%TD*%
D15*
%TO.P,D2,1,K*%
%TO.N,Net-(D1-A)*%
X118107045Y-109181123D03*
D16*
%TO.P,D2,2,A*%
%TO.N,Net-(D1-K)*%
X120647045Y-109181123D03*
%TD*%
D17*
%TO.P,SW1,2,2*%
%TO.N,Net-(U1-P3.0)*%
X181610000Y-140890000D03*
X169110000Y-140890000D03*
%TO.P,SW1,1,1*%
%TO.N,GND*%
X181610000Y-135890000D03*
X169110000Y-135890000D03*
%TD*%
D18*
%TO.P,BT1,2,-*%
%TO.N,GND*%
X116517073Y-145866552D03*
D19*
%TO.P,BT1,1,+*%
%TO.N,Net-(BT1-+)*%
X116517073Y-133766552D03*
D20*
X116517073Y-135266552D03*
X116517073Y-156466552D03*
D19*
X116517073Y-157966552D03*
%TD*%
D16*
%TO.P,D8,2,A*%
%TO.N,Net-(D11-K)*%
X132080000Y-121920000D03*
D15*
%TO.P,D8,1,K*%
%TO.N,Net-(D1-A)*%
X129540000Y-121920000D03*
%TD*%
D14*
%TO.P,R4,2*%
%TO.N,Net-(D11-K)*%
X157477579Y-130785159D03*
%TO.P,R4,1*%
%TO.N,Net-(U1-P3.2)*%
X157477579Y-138405159D03*
%TD*%
%TO.P,R2,2*%
%TO.N,Net-(D1-K)*%
X134625000Y-130810000D03*
%TO.P,R2,1*%
%TO.N,Net-(U1-P5.4)*%
X134625000Y-138430000D03*
%TD*%
D16*
%TO.P,D9,2,A*%
%TO.N,Net-(D1-A)*%
X163173806Y-156205281D03*
D15*
%TO.P,D9,1,K*%
%TO.N,Net-(D10-A)*%
X163173806Y-158745281D03*
%TD*%
D16*
%TO.P,D6,2,A*%
%TO.N,Net-(D10-A)*%
X145393806Y-158745281D03*
D15*
%TO.P,D6,1,K*%
%TO.N,Net-(D1-K)*%
X145393806Y-156205281D03*
%TD*%
%TO.P,D4,1,K*%
%TO.N,Net-(D10-A)*%
X158731259Y-109201259D03*
D16*
%TO.P,D4,2,A*%
%TO.N,Net-(D11-K)*%
X161271259Y-109201259D03*
%TD*%
D11*
%TO.P,SW2,3,C*%
%TO.N,unconnected-(SW2-C-Pad3)*%
X132055159Y-157444263D03*
%TO.P,SW2,2,B*%
%TO.N,Net-(BT1-+)*%
X132055159Y-152364263D03*
D21*
%TO.P,SW2,1,A*%
%TO.N,/VCC*%
X132055159Y-154904263D03*
%TD*%
D15*
%TO.P,D10,1,K*%
%TO.N,Net-(D1-A)*%
X147320000Y-96520000D03*
D16*
%TO.P,D10,2,A*%
%TO.N,Net-(D10-A)*%
X149860000Y-96520000D03*
%TD*%
%TO.P,D5,2,A*%
%TO.N,Net-(D1-K)*%
X154283806Y-156205281D03*
D15*
%TO.P,D5,1,K*%
%TO.N,Net-(D10-A)*%
X154283806Y-158745281D03*
%TD*%
D22*
%TO.P,U1,8,P3.3*%
%TO.N,Net-(U1-P3.3)*%
X152392579Y-130785159D03*
%TO.P,U1,7,P3.2*%
%TO.N,Net-(U1-P3.2)*%
X152392579Y-133325159D03*
%TO.P,U1,6,P3.1*%
%TO.N,Net-(U1-P3.1)*%
X152392579Y-135865159D03*
%TO.P,U1,5,P3.0*%
%TO.N,Net-(U1-P3.0)*%
X152392579Y-138405159D03*
%TO.P,U1,4,GND*%
%TO.N,GND*%
X144772579Y-138405159D03*
%TO.P,U1,3,P5.5*%
%TO.N,Net-(U1-P5.5)*%
X144772579Y-135865159D03*
%TO.P,U1,2,VCC*%
%TO.N,/VCC*%
X144772579Y-133325159D03*
D23*
%TO.P,U1,1,P5.4*%
%TO.N,Net-(U1-P5.4)*%
X144772579Y-130785159D03*
%TD*%
D15*
%TO.P,D7,1,K*%
%TO.N,Net-(D11-K)*%
X132080000Y-96520000D03*
D16*
%TO.P,D7,2,A*%
%TO.N,Net-(D1-A)*%
X129540000Y-96520000D03*
%TD*%
D15*
%TO.P,D1,1,K*%
%TO.N,Net-(D1-K)*%
X109220000Y-97790000D03*
D16*
%TO.P,D1,2,A*%
%TO.N,Net-(D1-A)*%
X106680000Y-97790000D03*
%TD*%
D14*
%TO.P,R1,2*%
%TO.N,Net-(D1-A)*%
X162557579Y-130785159D03*
%TO.P,R1,1*%
%TO.N,Net-(U1-P3.3)*%
X162557579Y-138405159D03*
%TD*%
D15*
%TO.P,D3,1,K*%
%TO.N,Net-(D11-K)*%
X172693385Y-97762112D03*
D16*
%TO.P,D3,2,A*%
%TO.N,Net-(D10-A)*%
X170153385Y-97762112D03*
%TD*%
%TO.P,D11,2,A*%
%TO.N,Net-(D1-K)*%
X147320000Y-121920000D03*
D15*
%TO.P,D11,1,K*%
%TO.N,Net-(D11-K)*%
X149860000Y-121920000D03*
%TD*%
D14*
%TO.P,R3,2*%
%TO.N,Net-(D10-A)*%
X139705000Y-130810000D03*
%TO.P,R3,1*%
%TO.N,Net-(U1-P5.5)*%
X139705000Y-138430000D03*
%TD*%
D15*
%TO.P,D12,1,K*%
%TO.N,Net-(D1-K)*%
X138430000Y-109220000D03*
D16*
%TO.P,D12,2,A*%
%TO.N,Net-(D11-K)*%
X140970000Y-109220000D03*
%TD*%
D24*
%TO.N,Net-(D1-A)*%
X154945000Y-127000000D03*
%TD*%
D25*
%TO.N,Net-(D10-A)*%
X139705000Y-130810000D02*
X139705000Y-128270000D01*
X139705000Y-128270000D02*
X142245000Y-125730000D01*
X142245000Y-125730000D02*
X157485000Y-125730000D01*
X157485000Y-125730000D02*
X158755000Y-124460000D01*
X158755000Y-124460000D02*
X158731259Y-124436259D01*
X158731259Y-124436259D02*
X158731259Y-109201259D01*
%TO.N,Net-(Q1-B)*%
X148633934Y-80010000D02*
X148523579Y-79899645D01*
X148523579Y-79899645D02*
X126933579Y-79899645D01*
X152333579Y-83709645D02*
X148633934Y-80010000D01*
%TO.N,Net-(D1-A)*%
X163173806Y-156205281D02*
X165105000Y-154274087D01*
X165105000Y-154274087D02*
X165105000Y-133332580D01*
X165105000Y-133332580D02*
X162557579Y-130785159D01*
%TO.N,Net-(D1-K)*%
X143515000Y-121920000D02*
X143515000Y-115570000D01*
X143515000Y-115570000D02*
X142245000Y-114300000D01*
X138430000Y-113025000D02*
X138430000Y-109220000D01*
X142245000Y-114300000D02*
X139705000Y-114300000D01*
X139705000Y-114300000D02*
X138430000Y-113025000D01*
%TO.N,Net-(D1-A)*%
X158772420Y-127000000D02*
X154945000Y-127000000D01*
X162557579Y-130785159D02*
X158772420Y-127000000D01*
%TO.N,Net-(D1-K)*%
X134625000Y-130810000D02*
X143515000Y-121920000D01*
X143515000Y-121920000D02*
X147320000Y-121920000D01*
D26*
%TO.N,/VCC*%
X149826138Y-142211958D02*
X149826138Y-140931138D01*
X149826138Y-140931138D02*
X148595000Y-139700000D01*
X148595000Y-139700000D02*
X148595000Y-134620000D01*
X148595000Y-134620000D02*
X147300159Y-133325159D01*
X147300159Y-133325159D02*
X144772579Y-133325159D01*
X148595000Y-147320000D02*
X149865000Y-146050000D01*
X135895000Y-148590000D02*
X137165000Y-147320000D01*
X134660737Y-154904263D02*
X135895000Y-153670000D01*
X149865000Y-146050000D02*
X149826138Y-146011138D01*
X132055159Y-154904263D02*
X134660737Y-154904263D01*
X135895000Y-153670000D02*
X135895000Y-148590000D01*
X137165000Y-147320000D02*
X148595000Y-147320000D01*
X149826138Y-146011138D02*
X149826138Y-142211958D01*
%TO.N,GND*%
X144780000Y-142240000D02*
X144780000Y-140970000D01*
X144780000Y-142240000D02*
X144808042Y-142211958D01*
X144808042Y-142211958D02*
X147326138Y-142211958D01*
X144780000Y-140970000D02*
X144772579Y-140962579D01*
X144772579Y-140962579D02*
X144772579Y-138405159D01*
X143698448Y-145866552D02*
X144785000Y-144780000D01*
X116517073Y-145866552D02*
X143698448Y-145866552D01*
X144785000Y-144780000D02*
X144780000Y-144775000D01*
X144780000Y-144775000D02*
X144780000Y-142240000D01*
%TO.N,Net-(BT1-+)*%
X116517073Y-157966552D02*
X123978448Y-157966552D01*
X123978448Y-157966552D02*
X129580737Y-152364263D01*
X129580737Y-152364263D02*
X132055159Y-152364263D01*
%TD*%
M02*
