%TF.GenerationSoftware,KiCad,Pcbnew,9.0.6*%
%TF.CreationDate,2026-01-15T23:05:42-05:00*%
%TF.ProjectId,catch-man,63617463-682d-46d6-916e-2e6b69636164,rev?*%
%TF.SameCoordinates,Original*%
%TF.FileFunction,Legend,Top*%
%TF.FilePolarity,Positive*%
%FSLAX46Y46*%
G04 Gerber Fmt 4.6, Leading zero omitted, Abs format (unit mm)*
G04 Created by KiCad (PCBNEW 9.0.6) date 2026-01-15 23:05:42*
%MOMM*%
%LPD*%
G01*
G04 APERTURE LIST*
G04 Aperture macros list*
%AMRoundRect*
0 Rectangle with rounded corners*
0 $1 Rounding radius*
0 $2 $3 $4 $5 $6 $7 $8 $9 X,Y pos of 4 corners*
0 Add a 4 corners polygon primitive as box body*
4,1,4,$2,$3,$4,$5,$6,$7,$8,$9,$2,$3,0*
0 Add four circle primitives for the rounded corners*
1,1,$1+$1,$2,$3*
1,1,$1+$1,$4,$5*
1,1,$1+$1,$6,$7*
1,1,$1+$1,$8,$9*
0 Add four rect primitives between the rounded corners*
20,1,$1+$1,$2,$3,$4,$5,0*
20,1,$1+$1,$4,$5,$6,$7,0*
20,1,$1+$1,$6,$7,$8,$9,0*
20,1,$1+$1,$8,$9,$2,$3,0*%
G04 Aperture macros list end*
%ADD10C,0.127000*%
%ADD11C,0.300000*%
%ADD12C,0.600000*%
%ADD13C,0.254000*%
%ADD14C,0.200000*%
%ADD15C,1.000000*%
%ADD16C,0.150000*%
%ADD17C,0.000000*%
%ADD18C,0.120000*%
%ADD19R,9.500000X3.000000*%
%ADD20C,4.000000*%
%ADD21C,15.000000*%
%ADD22RoundRect,0.250000X-0.550000X-0.550000X0.550000X-0.550000X0.550000X0.550000X-0.550000X0.550000X0*%
%ADD23C,1.600000*%
%ADD24R,1.800000X1.800000*%
%ADD25C,1.800000*%
%ADD26O,3.200000X1.900000*%
%ADD27C,1.400000*%
%ADD28R,1.500000X1.500000*%
%ADD29RoundRect,0.250000X-0.950000X-0.550000X0.950000X-0.550000X0.950000X0.550000X-0.950000X0.550000X0*%
%ADD30O,2.400000X1.600000*%
%ADD31R,2.000000X2.000000*%
%ADD32C,2.000000*%
G04 APERTURE END LIST*
D10*
X174195619Y-150188676D02*
X174292381Y-150237056D01*
X174292381Y-150237056D02*
X174485905Y-150237056D01*
X174485905Y-150237056D02*
X174582667Y-150188676D01*
X174582667Y-150188676D02*
X174631048Y-150091914D01*
X174631048Y-150091914D02*
X174631048Y-150043533D01*
X174631048Y-150043533D02*
X174582667Y-149946771D01*
X174582667Y-149946771D02*
X174485905Y-149898390D01*
X174485905Y-149898390D02*
X174340762Y-149898390D01*
X174340762Y-149898390D02*
X174244000Y-149850009D01*
X174244000Y-149850009D02*
X174195619Y-149753247D01*
X174195619Y-149753247D02*
X174195619Y-149704866D01*
X174195619Y-149704866D02*
X174244000Y-149608104D01*
X174244000Y-149608104D02*
X174340762Y-149559723D01*
X174340762Y-149559723D02*
X174485905Y-149559723D01*
X174485905Y-149559723D02*
X174582667Y-149608104D01*
X174921333Y-149559723D02*
X175308381Y-149559723D01*
X175066476Y-149221056D02*
X175066476Y-150091914D01*
X175066476Y-150091914D02*
X175114857Y-150188676D01*
X175114857Y-150188676D02*
X175211619Y-150237056D01*
X175211619Y-150237056D02*
X175308381Y-150237056D01*
X176082476Y-150237056D02*
X176082476Y-149704866D01*
X176082476Y-149704866D02*
X176034095Y-149608104D01*
X176034095Y-149608104D02*
X175937333Y-149559723D01*
X175937333Y-149559723D02*
X175743809Y-149559723D01*
X175743809Y-149559723D02*
X175647047Y-149608104D01*
X176082476Y-150188676D02*
X175985714Y-150237056D01*
X175985714Y-150237056D02*
X175743809Y-150237056D01*
X175743809Y-150237056D02*
X175647047Y-150188676D01*
X175647047Y-150188676D02*
X175598666Y-150091914D01*
X175598666Y-150091914D02*
X175598666Y-149995152D01*
X175598666Y-149995152D02*
X175647047Y-149898390D01*
X175647047Y-149898390D02*
X175743809Y-149850009D01*
X175743809Y-149850009D02*
X175985714Y-149850009D01*
X175985714Y-149850009D02*
X176082476Y-149801628D01*
X176566285Y-150237056D02*
X176566285Y-149559723D01*
X176566285Y-149753247D02*
X176614666Y-149656485D01*
X176614666Y-149656485D02*
X176663047Y-149608104D01*
X176663047Y-149608104D02*
X176759809Y-149559723D01*
X176759809Y-149559723D02*
X176856571Y-149559723D01*
X177050094Y-149559723D02*
X177437142Y-149559723D01*
X177195237Y-149221056D02*
X177195237Y-150091914D01*
X177195237Y-150091914D02*
X177243618Y-150188676D01*
X177243618Y-150188676D02*
X177340380Y-150237056D01*
X177340380Y-150237056D02*
X177437142Y-150237056D01*
D11*
X172696570Y-148501971D02*
X172625142Y-148573400D01*
X172625142Y-148573400D02*
X172410856Y-148644828D01*
X172410856Y-148644828D02*
X172267999Y-148644828D01*
X172267999Y-148644828D02*
X172053713Y-148573400D01*
X172053713Y-148573400D02*
X171910856Y-148430542D01*
X171910856Y-148430542D02*
X171839427Y-148287685D01*
X171839427Y-148287685D02*
X171767999Y-148001971D01*
X171767999Y-148001971D02*
X171767999Y-147787685D01*
X171767999Y-147787685D02*
X171839427Y-147501971D01*
X171839427Y-147501971D02*
X171910856Y-147359114D01*
X171910856Y-147359114D02*
X172053713Y-147216257D01*
X172053713Y-147216257D02*
X172267999Y-147144828D01*
X172267999Y-147144828D02*
X172410856Y-147144828D01*
X172410856Y-147144828D02*
X172625142Y-147216257D01*
X172625142Y-147216257D02*
X172696570Y-147287685D01*
X173339427Y-148644828D02*
X173339427Y-147144828D01*
X173339427Y-147859114D02*
X174196570Y-147859114D01*
X174196570Y-148644828D02*
X174196570Y-147144828D01*
X175196571Y-147144828D02*
X175482285Y-147144828D01*
X175482285Y-147144828D02*
X175625142Y-147216257D01*
X175625142Y-147216257D02*
X175767999Y-147359114D01*
X175767999Y-147359114D02*
X175839428Y-147644828D01*
X175839428Y-147644828D02*
X175839428Y-148144828D01*
X175839428Y-148144828D02*
X175767999Y-148430542D01*
X175767999Y-148430542D02*
X175625142Y-148573400D01*
X175625142Y-148573400D02*
X175482285Y-148644828D01*
X175482285Y-148644828D02*
X175196571Y-148644828D01*
X175196571Y-148644828D02*
X175053714Y-148573400D01*
X175053714Y-148573400D02*
X174910856Y-148430542D01*
X174910856Y-148430542D02*
X174839428Y-148144828D01*
X174839428Y-148144828D02*
X174839428Y-147644828D01*
X174839428Y-147644828D02*
X174910856Y-147359114D01*
X174910856Y-147359114D02*
X175053714Y-147216257D01*
X175053714Y-147216257D02*
X175196571Y-147144828D01*
X176482285Y-148644828D02*
X176482285Y-147144828D01*
X176482285Y-147144828D02*
X176982285Y-148216257D01*
X176982285Y-148216257D02*
X177482285Y-147144828D01*
X177482285Y-147144828D02*
X177482285Y-148644828D01*
X178196571Y-148644828D02*
X178196571Y-147144828D01*
X178196571Y-147144828D02*
X178768000Y-147144828D01*
X178768000Y-147144828D02*
X178910857Y-147216257D01*
X178910857Y-147216257D02*
X178982286Y-147287685D01*
X178982286Y-147287685D02*
X179053714Y-147430542D01*
X179053714Y-147430542D02*
X179053714Y-147644828D01*
X179053714Y-147644828D02*
X178982286Y-147787685D01*
X178982286Y-147787685D02*
X178910857Y-147859114D01*
X178910857Y-147859114D02*
X178768000Y-147930542D01*
X178768000Y-147930542D02*
X178196571Y-147930542D01*
X179696571Y-148501971D02*
X179768000Y-148573400D01*
X179768000Y-148573400D02*
X179696571Y-148644828D01*
X179696571Y-148644828D02*
X179625143Y-148573400D01*
X179625143Y-148573400D02*
X179696571Y-148501971D01*
X179696571Y-148501971D02*
X179696571Y-148644828D01*
X179696571Y-148073400D02*
X179625143Y-147216257D01*
X179625143Y-147216257D02*
X179696571Y-147144828D01*
X179696571Y-147144828D02*
X179768000Y-147216257D01*
X179768000Y-147216257D02*
X179696571Y-148073400D01*
X179696571Y-148073400D02*
X179696571Y-147144828D01*
D12*
G36*
X117040492Y-77627221D02*
G01*
X117210854Y-77754116D01*
X117309794Y-77916726D01*
X117344391Y-78126881D01*
X117309227Y-78325927D01*
X117197357Y-78528660D01*
X117016989Y-78683935D01*
X116795577Y-78734679D01*
X116631509Y-78713225D01*
X116462613Y-78646202D01*
X116135881Y-78521728D01*
X115790867Y-78446485D01*
X115423543Y-78420949D01*
X114973806Y-78454977D01*
X114578306Y-78552635D01*
X114228035Y-78710316D01*
X113914139Y-78929414D01*
X113654304Y-79198841D01*
X113444138Y-79523706D01*
X113294139Y-79882312D01*
X113201719Y-80279918D01*
X113169731Y-80723915D01*
X113214102Y-81301755D01*
X113337576Y-81774572D01*
X113530853Y-82161863D01*
X113792062Y-82478495D01*
X114119883Y-82735208D01*
X114494600Y-82920531D01*
X114925174Y-83035682D01*
X115423543Y-83076035D01*
X115816978Y-83049294D01*
X116160781Y-82972954D01*
X116462613Y-82850782D01*
X116635939Y-82790086D01*
X116775916Y-82772136D01*
X116935770Y-82795716D01*
X117077661Y-82865847D01*
X117207187Y-82987985D01*
X117318329Y-83183776D01*
X117354222Y-83389765D01*
X117334357Y-83539775D01*
X117275575Y-83674002D01*
X117181296Y-83785633D01*
X117050322Y-83869763D01*
X116529701Y-84082117D01*
X115989564Y-84209129D01*
X115423543Y-84251881D01*
X114793123Y-84205580D01*
X114207824Y-84069676D01*
X113659560Y-83845400D01*
X113278243Y-83617955D01*
X112939140Y-83343987D01*
X112638857Y-83021014D01*
X112375575Y-82644763D01*
X112171383Y-82241112D01*
X112021555Y-81791268D01*
X111928117Y-81288249D01*
X111895577Y-80723915D01*
X111947935Y-80070027D01*
X112100522Y-79475959D01*
X112351212Y-78930867D01*
X112694414Y-78439203D01*
X113111861Y-78028041D01*
X113610406Y-77690907D01*
X114161628Y-77445825D01*
X114762487Y-77296405D01*
X115423543Y-77245103D01*
X115995789Y-77288311D01*
X116532400Y-77415741D01*
X117040492Y-77627221D01*
G37*
G36*
X120970097Y-77280442D02*
G01*
X121128812Y-77357943D01*
X121258692Y-77479999D01*
X121349363Y-77646883D01*
X123760040Y-83389765D01*
X123809194Y-83624848D01*
X123766524Y-83858878D01*
X123642498Y-84041588D01*
X123461780Y-84163537D01*
X123260380Y-84203154D01*
X123092624Y-84176302D01*
X122941521Y-84095443D01*
X122817222Y-83970097D01*
X122721397Y-83801375D01*
X122211479Y-82615271D01*
X119291312Y-82615271D01*
X118781821Y-83811206D01*
X118693024Y-83978588D01*
X118570673Y-84100145D01*
X118421592Y-84177728D01*
X118262072Y-84203154D01*
X118030540Y-84166184D01*
X117874825Y-84065951D01*
X117777619Y-83909301D01*
X117742751Y-83693236D01*
X117772243Y-83507307D01*
X118612804Y-81488578D01*
X119771310Y-81488578D01*
X121731481Y-81488578D01*
X120741565Y-79195016D01*
X119771310Y-81488578D01*
X118612804Y-81488578D01*
X120212413Y-77646883D01*
X120312082Y-77470786D01*
X120447496Y-77342983D01*
X120613396Y-77267315D01*
X120800549Y-77254934D01*
X120970097Y-77280442D01*
G37*
G36*
X128659612Y-77293830D02*
G01*
X128904037Y-77334556D01*
X129090884Y-77450694D01*
X129214737Y-77629167D01*
X129257580Y-77862305D01*
X129214577Y-78094618D01*
X129090884Y-78269213D01*
X128904456Y-78381403D01*
X128659612Y-78420949D01*
X127121310Y-78420949D01*
X127121310Y-83556033D01*
X127074626Y-83790478D01*
X126934953Y-83982603D01*
X126729312Y-84110249D01*
X126474616Y-84154001D01*
X126221510Y-84109936D01*
X126023683Y-83982603D01*
X125891705Y-83791267D01*
X125847156Y-83556033D01*
X125847156Y-78420949D01*
X124308426Y-78420949D01*
X124064300Y-78380254D01*
X123877154Y-78264084D01*
X123753634Y-78085647D01*
X123710886Y-77852474D01*
X123754326Y-77628194D01*
X123882283Y-77450694D01*
X124072007Y-77333976D01*
X124308426Y-77293830D01*
X128659612Y-77293830D01*
G37*
G36*
X134889759Y-77627221D02*
G01*
X135060121Y-77754116D01*
X135159061Y-77916726D01*
X135193658Y-78126881D01*
X135158495Y-78325927D01*
X135046624Y-78528660D01*
X134866256Y-78683935D01*
X134644844Y-78734679D01*
X134480776Y-78713225D01*
X134311880Y-78646202D01*
X133985149Y-78521728D01*
X133640134Y-78446485D01*
X133272810Y-78420949D01*
X132823073Y-78454977D01*
X132427573Y-78552635D01*
X132077303Y-78710316D01*
X131763407Y-78929414D01*
X131503571Y-79198841D01*
X131293405Y-79523706D01*
X131143406Y-79882312D01*
X131050986Y-80279918D01*
X131018998Y-80723915D01*
X131063369Y-81301755D01*
X131186843Y-81774572D01*
X131380120Y-82161863D01*
X131641329Y-82478495D01*
X131969150Y-82735208D01*
X132343867Y-82920531D01*
X132774441Y-83035682D01*
X133272810Y-83076035D01*
X133666246Y-83049294D01*
X134010049Y-82972954D01*
X134311880Y-82850782D01*
X134485207Y-82790086D01*
X134625183Y-82772136D01*
X134785037Y-82795716D01*
X134926929Y-82865847D01*
X135056455Y-82987985D01*
X135167596Y-83183776D01*
X135203489Y-83389765D01*
X135183624Y-83539775D01*
X135124843Y-83674002D01*
X135030563Y-83785633D01*
X134899590Y-83869763D01*
X134378968Y-84082117D01*
X133838831Y-84209129D01*
X133272810Y-84251881D01*
X132642390Y-84205580D01*
X132057091Y-84069676D01*
X131508827Y-83845400D01*
X131127510Y-83617955D01*
X130788408Y-83343987D01*
X130488124Y-83021014D01*
X130224843Y-82644763D01*
X130020650Y-82241112D01*
X129870822Y-81791268D01*
X129777385Y-81288249D01*
X129744844Y-80723915D01*
X129797203Y-80070027D01*
X129949790Y-79475959D01*
X130200480Y-78930867D01*
X130543681Y-78439203D01*
X130961128Y-78028041D01*
X131459674Y-77690907D01*
X132010895Y-77445825D01*
X132611754Y-77296405D01*
X133272810Y-77245103D01*
X133845057Y-77288311D01*
X134381668Y-77415741D01*
X134889759Y-77627221D01*
G37*
G36*
X141197697Y-77293830D02*
G01*
X141449513Y-77337163D01*
X141638799Y-77460525D01*
X141762567Y-77648476D01*
X141805495Y-77891797D01*
X141805495Y-83556033D01*
X141760947Y-83791267D01*
X141628969Y-83982603D01*
X141431141Y-84109936D01*
X141178035Y-84154001D01*
X140950343Y-84111202D01*
X140756594Y-83982603D01*
X140624950Y-83791301D01*
X140580495Y-83556033D01*
X140580495Y-81272729D01*
X137454309Y-81272729D01*
X137454309Y-83556033D01*
X137407625Y-83790478D01*
X137267952Y-83982603D01*
X137066038Y-84111515D01*
X136836680Y-84154001D01*
X136592934Y-84110176D01*
X136400706Y-83982603D01*
X136272728Y-83791675D01*
X136229309Y-83556033D01*
X136229309Y-77891797D01*
X136273745Y-77656897D01*
X136405408Y-77465654D01*
X136603270Y-77337990D01*
X136856341Y-77293830D01*
X137084001Y-77336721D01*
X137277782Y-77465654D01*
X137409779Y-77656931D01*
X137454309Y-77891797D01*
X137454309Y-80145609D01*
X140580495Y-80145609D01*
X140580495Y-77891797D01*
X140627067Y-77657685D01*
X140766425Y-77465654D01*
X140968371Y-77336409D01*
X141197697Y-77293830D01*
G37*
G36*
X143625898Y-81733493D02*
G01*
X143390179Y-81691150D01*
X143199328Y-81566797D01*
X143071487Y-81379818D01*
X143027931Y-81145356D01*
X143071047Y-80919356D01*
X143199328Y-80733746D01*
X143390179Y-80609393D01*
X143625898Y-80567050D01*
X145330896Y-80567050D01*
X145566505Y-80610564D01*
X145757467Y-80738875D01*
X145885463Y-80929743D01*
X145928864Y-81165018D01*
X145885593Y-81390199D01*
X145757467Y-81571926D01*
X145567316Y-81692266D01*
X145330896Y-81733493D01*
X143625898Y-81733493D01*
G37*
G36*
X153099346Y-77283999D02*
G01*
X153327806Y-77326740D01*
X153525488Y-77455824D01*
X153661162Y-77647476D01*
X153706716Y-77881966D01*
X153706716Y-83556033D01*
X153664341Y-83792048D01*
X153540021Y-83982603D01*
X153350692Y-84109588D01*
X153099346Y-84154001D01*
X152846656Y-84110843D01*
X152653114Y-83987305D01*
X152525699Y-83798968D01*
X152481716Y-83556033D01*
X152481716Y-79606626D01*
X150864768Y-82076288D01*
X150639515Y-82267347D01*
X150508581Y-82320291D01*
X150374939Y-82331033D01*
X150249823Y-82320584D01*
X150120193Y-82267347D01*
X149894513Y-82076288D01*
X148277564Y-79518577D01*
X148277564Y-83556033D01*
X148236869Y-83800159D01*
X148120699Y-83987305D01*
X147942520Y-84111124D01*
X147709089Y-84154001D01*
X147484809Y-84110561D01*
X147307310Y-83982603D01*
X147190939Y-83792854D01*
X147150872Y-83556033D01*
X147150872Y-77881966D01*
X147195799Y-77655034D01*
X147332100Y-77460525D01*
X147531514Y-77328209D01*
X147768074Y-77283999D01*
X147913082Y-77301875D01*
X148062142Y-77357516D01*
X148194072Y-77443940D01*
X148287395Y-77549002D01*
X150424093Y-80831626D01*
X152618920Y-77549002D01*
X152710096Y-77442899D01*
X152829640Y-77357516D01*
X152964975Y-77301929D01*
X153099346Y-77283999D01*
G37*
G36*
X157762840Y-77280442D02*
G01*
X157921554Y-77357943D01*
X158051434Y-77479999D01*
X158142105Y-77646883D01*
X160552782Y-83389765D01*
X160601936Y-83624848D01*
X160559266Y-83858878D01*
X160435241Y-84041588D01*
X160254523Y-84163537D01*
X160053123Y-84203154D01*
X159885367Y-84176302D01*
X159734264Y-84095443D01*
X159609964Y-83970097D01*
X159514140Y-83801375D01*
X159004222Y-82615271D01*
X156084054Y-82615271D01*
X155574564Y-83811206D01*
X155485766Y-83978588D01*
X155363416Y-84100145D01*
X155214334Y-84177728D01*
X155054815Y-84203154D01*
X154823283Y-84166184D01*
X154667568Y-84065951D01*
X154570362Y-83909301D01*
X154535493Y-83693236D01*
X154564986Y-83507307D01*
X155405546Y-81488578D01*
X156564052Y-81488578D01*
X158524223Y-81488578D01*
X157534307Y-79195016D01*
X156564052Y-81488578D01*
X155405546Y-81488578D01*
X157005155Y-77646883D01*
X157104824Y-77470786D01*
X157240239Y-77342983D01*
X157406139Y-77267315D01*
X157593292Y-77254934D01*
X157762840Y-77280442D01*
G37*
G36*
X166633758Y-77293830D02*
G01*
X166849340Y-77333996D01*
X167015876Y-77450694D01*
X167125303Y-77624869D01*
X167162910Y-77842643D01*
X167162910Y-83556033D01*
X167119490Y-83791675D01*
X166991512Y-83982603D01*
X166800644Y-84110600D01*
X166565370Y-84154001D01*
X166295664Y-84109976D01*
X166177567Y-84054496D01*
X166104605Y-83987305D01*
X162508252Y-79420696D01*
X162508252Y-83605187D01*
X162469493Y-83822555D01*
X162356088Y-83997136D01*
X162184023Y-84113601D01*
X161959438Y-84154001D01*
X161743781Y-84113849D01*
X161576893Y-83997136D01*
X161467796Y-83822994D01*
X161430286Y-83605187D01*
X161430286Y-77891797D01*
X161473687Y-77656523D01*
X161601683Y-77465654D01*
X161792586Y-77337325D01*
X162027826Y-77293830D01*
X162172803Y-77308418D01*
X162316765Y-77352814D01*
X162444113Y-77424069D01*
X162527913Y-77509679D01*
X166094775Y-82056626D01*
X166094775Y-77842643D01*
X166133438Y-77625241D01*
X166246511Y-77450694D01*
X166417575Y-77333791D01*
X166633758Y-77293830D01*
G37*
D13*
X125945485Y-156803368D02*
X125945485Y-155533368D01*
X125945485Y-155533368D02*
X126429295Y-155533368D01*
X126429295Y-155533368D02*
X126550247Y-155593844D01*
X126550247Y-155593844D02*
X126610724Y-155654320D01*
X126610724Y-155654320D02*
X126671200Y-155775272D01*
X126671200Y-155775272D02*
X126671200Y-155956701D01*
X126671200Y-155956701D02*
X126610724Y-156077653D01*
X126610724Y-156077653D02*
X126550247Y-156138130D01*
X126550247Y-156138130D02*
X126429295Y-156198606D01*
X126429295Y-156198606D02*
X125945485Y-156198606D01*
X127457390Y-155533368D02*
X127699295Y-155533368D01*
X127699295Y-155533368D02*
X127820247Y-155593844D01*
X127820247Y-155593844D02*
X127941200Y-155714796D01*
X127941200Y-155714796D02*
X128001676Y-155956701D01*
X128001676Y-155956701D02*
X128001676Y-156380034D01*
X128001676Y-156380034D02*
X127941200Y-156621939D01*
X127941200Y-156621939D02*
X127820247Y-156742892D01*
X127820247Y-156742892D02*
X127699295Y-156803368D01*
X127699295Y-156803368D02*
X127457390Y-156803368D01*
X127457390Y-156803368D02*
X127336438Y-156742892D01*
X127336438Y-156742892D02*
X127215485Y-156621939D01*
X127215485Y-156621939D02*
X127155009Y-156380034D01*
X127155009Y-156380034D02*
X127155009Y-155956701D01*
X127155009Y-155956701D02*
X127215485Y-155714796D01*
X127215485Y-155714796D02*
X127336438Y-155593844D01*
X127336438Y-155593844D02*
X127457390Y-155533368D01*
X128425009Y-155533368D02*
X128727390Y-156803368D01*
X128727390Y-156803368D02*
X128969295Y-155896225D01*
X128969295Y-155896225D02*
X129211200Y-156803368D01*
X129211200Y-156803368D02*
X129513581Y-155533368D01*
X129997390Y-156138130D02*
X130420724Y-156138130D01*
X130602152Y-156803368D02*
X129997390Y-156803368D01*
X129997390Y-156803368D02*
X129997390Y-155533368D01*
X129997390Y-155533368D02*
X130602152Y-155533368D01*
X131872153Y-156803368D02*
X131448819Y-156198606D01*
X131146438Y-156803368D02*
X131146438Y-155533368D01*
X131146438Y-155533368D02*
X131630248Y-155533368D01*
X131630248Y-155533368D02*
X131751200Y-155593844D01*
X131751200Y-155593844D02*
X131811677Y-155654320D01*
X131811677Y-155654320D02*
X131872153Y-155775272D01*
X131872153Y-155775272D02*
X131872153Y-155956701D01*
X131872153Y-155956701D02*
X131811677Y-156077653D01*
X131811677Y-156077653D02*
X131751200Y-156138130D01*
X131751200Y-156138130D02*
X131630248Y-156198606D01*
X131630248Y-156198606D02*
X131146438Y-156198606D01*
D14*
X154283806Y-146045281D02*
X168253806Y-152395281D01*
D15*
X125220652Y-119256197D02*
G75*
G02*
X124549233Y-98224157I-16500002J9999997D01*
G01*
X154074154Y-98474156D02*
X169902737Y-109506197D01*
D14*
X140313806Y-152395281D02*
X154283806Y-146045281D01*
X146663807Y-149206571D02*
X146663807Y-149508917D01*
D15*
X124549235Y-98224156D02*
X108720652Y-109256197D01*
X153402737Y-119506197D02*
X169902737Y-109506197D01*
X125220652Y-119256197D02*
X108720652Y-109256197D01*
D14*
X144123806Y-149855281D02*
X144123806Y-150663463D01*
D15*
X154074154Y-98474155D02*
G75*
G02*
X153402734Y-119506199I15828576J-11032045D01*
G01*
D14*
X146663807Y-146045281D02*
X146663807Y-149206571D01*
X144123806Y-149855281D02*
X144123806Y-146045281D01*
X146663806Y-146045281D02*
X144123806Y-146045281D01*
X140313806Y-152395281D02*
X168253806Y-152395281D01*
X168253806Y-162555281D01*
X140313806Y-162555281D01*
X140313806Y-152395281D01*
D12*
X164617144Y-116473466D02*
X166331430Y-116473466D01*
X165474287Y-119473466D02*
X165474287Y-116473466D01*
X167331429Y-119473466D02*
X167331429Y-116473466D01*
X168617144Y-119473466D02*
X168617144Y-117902037D01*
X168617144Y-117902037D02*
X168474286Y-117616323D01*
X168474286Y-117616323D02*
X168188572Y-117473466D01*
X168188572Y-117473466D02*
X167760001Y-117473466D01*
X167760001Y-117473466D02*
X167474286Y-117616323D01*
X167474286Y-117616323D02*
X167331429Y-117759180D01*
X170045715Y-119473466D02*
X170045715Y-117473466D01*
X170045715Y-116473466D02*
X169902858Y-116616323D01*
X169902858Y-116616323D02*
X170045715Y-116759180D01*
X170045715Y-116759180D02*
X170188572Y-116616323D01*
X170188572Y-116616323D02*
X170045715Y-116473466D01*
X170045715Y-116473466D02*
X170045715Y-116759180D01*
X171474286Y-117473466D02*
X171474286Y-119473466D01*
X171474286Y-117759180D02*
X171617143Y-117616323D01*
X171617143Y-117616323D02*
X171902858Y-117473466D01*
X171902858Y-117473466D02*
X172331429Y-117473466D01*
X172331429Y-117473466D02*
X172617143Y-117616323D01*
X172617143Y-117616323D02*
X172760001Y-117902037D01*
X172760001Y-117902037D02*
X172760001Y-119473466D01*
X175474287Y-117473466D02*
X175474287Y-119902037D01*
X175474287Y-119902037D02*
X175331429Y-120187751D01*
X175331429Y-120187751D02*
X175188572Y-120330609D01*
X175188572Y-120330609D02*
X174902858Y-120473466D01*
X174902858Y-120473466D02*
X174474287Y-120473466D01*
X174474287Y-120473466D02*
X174188572Y-120330609D01*
X175474287Y-119330609D02*
X175188572Y-119473466D01*
X175188572Y-119473466D02*
X174617144Y-119473466D01*
X174617144Y-119473466D02*
X174331429Y-119330609D01*
X174331429Y-119330609D02*
X174188572Y-119187751D01*
X174188572Y-119187751D02*
X174045715Y-118902037D01*
X174045715Y-118902037D02*
X174045715Y-118044894D01*
X174045715Y-118044894D02*
X174188572Y-117759180D01*
X174188572Y-117759180D02*
X174331429Y-117616323D01*
X174331429Y-117616323D02*
X174617144Y-117473466D01*
X174617144Y-117473466D02*
X175188572Y-117473466D01*
X175188572Y-117473466D02*
X175474287Y-117616323D01*
X179045715Y-116759180D02*
X179188572Y-116616323D01*
X179188572Y-116616323D02*
X179474287Y-116473466D01*
X179474287Y-116473466D02*
X180188572Y-116473466D01*
X180188572Y-116473466D02*
X180474287Y-116616323D01*
X180474287Y-116616323D02*
X180617144Y-116759180D01*
X180617144Y-116759180D02*
X180760001Y-117044894D01*
X180760001Y-117044894D02*
X180760001Y-117330609D01*
X180760001Y-117330609D02*
X180617144Y-117759180D01*
X180617144Y-117759180D02*
X178902858Y-119473466D01*
X178902858Y-119473466D02*
X180760001Y-119473466D01*
X100367144Y-114973466D02*
X102081430Y-114973466D01*
X101224287Y-117973466D02*
X101224287Y-114973466D01*
X103081429Y-117973466D02*
X103081429Y-114973466D01*
X104367144Y-117973466D02*
X104367144Y-116402037D01*
X104367144Y-116402037D02*
X104224286Y-116116323D01*
X104224286Y-116116323D02*
X103938572Y-115973466D01*
X103938572Y-115973466D02*
X103510001Y-115973466D01*
X103510001Y-115973466D02*
X103224286Y-116116323D01*
X103224286Y-116116323D02*
X103081429Y-116259180D01*
X105795715Y-117973466D02*
X105795715Y-115973466D01*
X105795715Y-114973466D02*
X105652858Y-115116323D01*
X105652858Y-115116323D02*
X105795715Y-115259180D01*
X105795715Y-115259180D02*
X105938572Y-115116323D01*
X105938572Y-115116323D02*
X105795715Y-114973466D01*
X105795715Y-114973466D02*
X105795715Y-115259180D01*
X107224286Y-115973466D02*
X107224286Y-117973466D01*
X107224286Y-116259180D02*
X107367143Y-116116323D01*
X107367143Y-116116323D02*
X107652858Y-115973466D01*
X107652858Y-115973466D02*
X108081429Y-115973466D01*
X108081429Y-115973466D02*
X108367143Y-116116323D01*
X108367143Y-116116323D02*
X108510001Y-116402037D01*
X108510001Y-116402037D02*
X108510001Y-117973466D01*
X111224287Y-115973466D02*
X111224287Y-118402037D01*
X111224287Y-118402037D02*
X111081429Y-118687751D01*
X111081429Y-118687751D02*
X110938572Y-118830609D01*
X110938572Y-118830609D02*
X110652858Y-118973466D01*
X110652858Y-118973466D02*
X110224287Y-118973466D01*
X110224287Y-118973466D02*
X109938572Y-118830609D01*
X111224287Y-117830609D02*
X110938572Y-117973466D01*
X110938572Y-117973466D02*
X110367144Y-117973466D01*
X110367144Y-117973466D02*
X110081429Y-117830609D01*
X110081429Y-117830609D02*
X109938572Y-117687751D01*
X109938572Y-117687751D02*
X109795715Y-117402037D01*
X109795715Y-117402037D02*
X109795715Y-116544894D01*
X109795715Y-116544894D02*
X109938572Y-116259180D01*
X109938572Y-116259180D02*
X110081429Y-116116323D01*
X110081429Y-116116323D02*
X110367144Y-115973466D01*
X110367144Y-115973466D02*
X110938572Y-115973466D01*
X110938572Y-115973466D02*
X111224287Y-116116323D01*
X116510001Y-117973466D02*
X114795715Y-117973466D01*
X115652858Y-117973466D02*
X115652858Y-114973466D01*
X115652858Y-114973466D02*
X115367144Y-115402037D01*
X115367144Y-115402037D02*
X115081429Y-115687751D01*
X115081429Y-115687751D02*
X114795715Y-115830609D01*
D13*
X124663390Y-161121368D02*
X124905295Y-161121368D01*
X124905295Y-161121368D02*
X125026247Y-161181844D01*
X125026247Y-161181844D02*
X125147200Y-161302796D01*
X125147200Y-161302796D02*
X125207676Y-161544701D01*
X125207676Y-161544701D02*
X125207676Y-161968034D01*
X125207676Y-161968034D02*
X125147200Y-162209939D01*
X125147200Y-162209939D02*
X125026247Y-162330892D01*
X125026247Y-162330892D02*
X124905295Y-162391368D01*
X124905295Y-162391368D02*
X124663390Y-162391368D01*
X124663390Y-162391368D02*
X124542438Y-162330892D01*
X124542438Y-162330892D02*
X124421485Y-162209939D01*
X124421485Y-162209939D02*
X124361009Y-161968034D01*
X124361009Y-161968034D02*
X124361009Y-161544701D01*
X124361009Y-161544701D02*
X124421485Y-161302796D01*
X124421485Y-161302796D02*
X124542438Y-161181844D01*
X124542438Y-161181844D02*
X124663390Y-161121368D01*
X126175295Y-161726130D02*
X125751961Y-161726130D01*
X125751961Y-162391368D02*
X125751961Y-161121368D01*
X125751961Y-161121368D02*
X126356723Y-161121368D01*
X127263866Y-161726130D02*
X126840532Y-161726130D01*
X126840532Y-162391368D02*
X126840532Y-161121368D01*
X126840532Y-161121368D02*
X127445294Y-161121368D01*
X131267390Y-161121368D02*
X131509295Y-161121368D01*
X131509295Y-161121368D02*
X131630247Y-161181844D01*
X131630247Y-161181844D02*
X131751200Y-161302796D01*
X131751200Y-161302796D02*
X131811676Y-161544701D01*
X131811676Y-161544701D02*
X131811676Y-161968034D01*
X131811676Y-161968034D02*
X131751200Y-162209939D01*
X131751200Y-162209939D02*
X131630247Y-162330892D01*
X131630247Y-162330892D02*
X131509295Y-162391368D01*
X131509295Y-162391368D02*
X131267390Y-162391368D01*
X131267390Y-162391368D02*
X131146438Y-162330892D01*
X131146438Y-162330892D02*
X131025485Y-162209939D01*
X131025485Y-162209939D02*
X130965009Y-161968034D01*
X130965009Y-161968034D02*
X130965009Y-161544701D01*
X130965009Y-161544701D02*
X131025485Y-161302796D01*
X131025485Y-161302796D02*
X131146438Y-161181844D01*
X131146438Y-161181844D02*
X131267390Y-161121368D01*
X132355961Y-162391368D02*
X132355961Y-161121368D01*
X132355961Y-161121368D02*
X133081676Y-162391368D01*
X133081676Y-162391368D02*
X133081676Y-161121368D01*
D16*
X126674857Y-129439200D02*
X126817714Y-129486819D01*
X126817714Y-129486819D02*
X127055809Y-129486819D01*
X127055809Y-129486819D02*
X127151047Y-129439200D01*
X127151047Y-129439200D02*
X127198666Y-129391580D01*
X127198666Y-129391580D02*
X127246285Y-129296342D01*
X127246285Y-129296342D02*
X127246285Y-129201104D01*
X127246285Y-129201104D02*
X127198666Y-129105866D01*
X127198666Y-129105866D02*
X127151047Y-129058247D01*
X127151047Y-129058247D02*
X127055809Y-129010628D01*
X127055809Y-129010628D02*
X126865333Y-128963009D01*
X126865333Y-128963009D02*
X126770095Y-128915390D01*
X126770095Y-128915390D02*
X126722476Y-128867771D01*
X126722476Y-128867771D02*
X126674857Y-128772533D01*
X126674857Y-128772533D02*
X126674857Y-128677295D01*
X126674857Y-128677295D02*
X126722476Y-128582057D01*
X126722476Y-128582057D02*
X126770095Y-128534438D01*
X126770095Y-128534438D02*
X126865333Y-128486819D01*
X126865333Y-128486819D02*
X127103428Y-128486819D01*
X127103428Y-128486819D02*
X127246285Y-128534438D01*
X127865333Y-128486819D02*
X128055809Y-128486819D01*
X128055809Y-128486819D02*
X128151047Y-128534438D01*
X128151047Y-128534438D02*
X128246285Y-128629676D01*
X128246285Y-128629676D02*
X128293904Y-128820152D01*
X128293904Y-128820152D02*
X128293904Y-129153485D01*
X128293904Y-129153485D02*
X128246285Y-129343961D01*
X128246285Y-129343961D02*
X128151047Y-129439200D01*
X128151047Y-129439200D02*
X128055809Y-129486819D01*
X128055809Y-129486819D02*
X127865333Y-129486819D01*
X127865333Y-129486819D02*
X127770095Y-129439200D01*
X127770095Y-129439200D02*
X127674857Y-129343961D01*
X127674857Y-129343961D02*
X127627238Y-129153485D01*
X127627238Y-129153485D02*
X127627238Y-128820152D01*
X127627238Y-128820152D02*
X127674857Y-128629676D01*
X127674857Y-128629676D02*
X127770095Y-128534438D01*
X127770095Y-128534438D02*
X127865333Y-128486819D01*
X128722476Y-128486819D02*
X128722476Y-129296342D01*
X128722476Y-129296342D02*
X128770095Y-129391580D01*
X128770095Y-129391580D02*
X128817714Y-129439200D01*
X128817714Y-129439200D02*
X128912952Y-129486819D01*
X128912952Y-129486819D02*
X129103428Y-129486819D01*
X129103428Y-129486819D02*
X129198666Y-129439200D01*
X129198666Y-129439200D02*
X129246285Y-129391580D01*
X129246285Y-129391580D02*
X129293904Y-129296342D01*
X129293904Y-129296342D02*
X129293904Y-128486819D01*
X129770095Y-129486819D02*
X129770095Y-128486819D01*
X129770095Y-128486819D02*
X130341523Y-129486819D01*
X130341523Y-129486819D02*
X130341523Y-128486819D01*
X130817714Y-129486819D02*
X130817714Y-128486819D01*
X130817714Y-128486819D02*
X131055809Y-128486819D01*
X131055809Y-128486819D02*
X131198666Y-128534438D01*
X131198666Y-128534438D02*
X131293904Y-128629676D01*
X131293904Y-128629676D02*
X131341523Y-128724914D01*
X131341523Y-128724914D02*
X131389142Y-128915390D01*
X131389142Y-128915390D02*
X131389142Y-129058247D01*
X131389142Y-129058247D02*
X131341523Y-129248723D01*
X131341523Y-129248723D02*
X131293904Y-129343961D01*
X131293904Y-129343961D02*
X131198666Y-129439200D01*
X131198666Y-129439200D02*
X131055809Y-129486819D01*
X131055809Y-129486819D02*
X130817714Y-129486819D01*
X132461048Y-147901866D02*
X133222953Y-147901866D01*
X132842000Y-148282819D02*
X132842000Y-147520914D01*
D17*
%TO.C,G\u002A\u002A\u002A*%
G36*
X141849778Y-164725913D02*
G01*
X141930501Y-164801025D01*
X141987976Y-164987898D01*
X141992008Y-165010516D01*
X142030998Y-165173457D01*
X142095145Y-165379968D01*
X142170789Y-165592107D01*
X142244267Y-165771929D01*
X142301917Y-165881488D01*
X142308587Y-165889773D01*
X142375046Y-165885408D01*
X142484660Y-165804377D01*
X142615890Y-165669191D01*
X142747195Y-165502362D01*
X142857033Y-165326404D01*
X142868121Y-165305008D01*
X142966356Y-165121710D01*
X143051001Y-164983544D01*
X143100133Y-164923847D01*
X143162184Y-164926746D01*
X143218793Y-165021905D01*
X143272678Y-165217248D01*
X143326556Y-165520700D01*
X143342797Y-165631682D01*
X143379832Y-165871755D01*
X143415658Y-166065790D01*
X143444665Y-166184862D01*
X143454329Y-166206685D01*
X143520758Y-166202586D01*
X143664187Y-166153843D01*
X143856528Y-166070392D01*
X143904420Y-166047485D01*
X144149407Y-165937875D01*
X144306048Y-165896623D01*
X144385337Y-165927637D01*
X144398266Y-166034825D01*
X144359527Y-166209263D01*
X144302446Y-166424675D01*
X144242532Y-166673606D01*
X144221279Y-166768983D01*
X144154797Y-167077379D01*
X144431907Y-167385592D01*
X144594151Y-167582742D01*
X144676164Y-167729791D01*
X144691222Y-167846893D01*
X144654620Y-167960005D01*
X144564059Y-167984449D01*
X144545455Y-167982346D01*
X144427494Y-167990136D01*
X144379918Y-168062231D01*
X144402424Y-168208358D01*
X144494710Y-168438245D01*
X144529027Y-168510726D01*
X144637706Y-168757846D01*
X144679895Y-168914019D01*
X144665525Y-168978884D01*
X144578494Y-169020957D01*
X144412824Y-169069641D01*
X144235524Y-169108218D01*
X144035320Y-169149531D01*
X143929006Y-169187556D01*
X143893232Y-169235650D01*
X143902152Y-169298933D01*
X143933295Y-169423409D01*
X143975424Y-169614853D01*
X144005610Y-169762575D01*
X144041467Y-170004979D01*
X144025633Y-170146394D01*
X143948472Y-170196527D01*
X143800349Y-170165085D01*
X143664013Y-170106705D01*
X143503387Y-170037618D01*
X143391933Y-170001669D01*
X143362670Y-170001491D01*
X143356717Y-170067198D01*
X143360414Y-170224670D01*
X143372791Y-170447732D01*
X143385750Y-170624529D01*
X143406434Y-170913595D01*
X143406662Y-171111213D01*
X143376175Y-171243909D01*
X143304713Y-171338212D01*
X143182018Y-171420648D01*
X143050936Y-171490265D01*
X142892869Y-171562660D01*
X142791791Y-171570088D01*
X142704021Y-171509931D01*
X142663473Y-171467043D01*
X142593550Y-171347896D01*
X142608655Y-171205032D01*
X142614743Y-171186053D01*
X142634738Y-171086007D01*
X142617096Y-170978884D01*
X142551898Y-170834654D01*
X142502451Y-170749457D01*
X142922607Y-170749457D01*
X142956967Y-170830966D01*
X143064586Y-170871317D01*
X143074825Y-170871542D01*
X143158164Y-170863629D01*
X143202281Y-170820972D01*
X143219439Y-170715193D01*
X143221937Y-170531099D01*
X143211917Y-170297500D01*
X143187072Y-170150192D01*
X143153034Y-170096890D01*
X143115432Y-170145308D01*
X143079900Y-170303163D01*
X143075881Y-170330997D01*
X143042500Y-170509770D01*
X143002796Y-170634916D01*
X142980467Y-170667744D01*
X142922607Y-170749457D01*
X142502451Y-170749457D01*
X142429224Y-170623287D01*
X142428395Y-170621922D01*
X142306899Y-170434037D01*
X142201813Y-170293427D01*
X142132125Y-170224958D01*
X142123024Y-170222026D01*
X142042561Y-170260437D01*
X141931622Y-170356428D01*
X141920280Y-170368279D01*
X141798517Y-170469814D01*
X141691026Y-170516029D01*
X141684970Y-170516298D01*
X141566161Y-170547247D01*
X141532471Y-170570683D01*
X141439125Y-170612778D01*
X141286527Y-170642861D01*
X141268997Y-170644692D01*
X141150497Y-170651037D01*
X141081538Y-170623774D01*
X141038066Y-170536443D01*
X140996025Y-170362580D01*
X140990812Y-170338675D01*
X140943136Y-170108781D01*
X140901040Y-169887332D01*
X140885226Y-169794789D01*
X140850599Y-169576543D01*
X140633121Y-169651836D01*
X140494201Y-169714194D01*
X140412725Y-169804677D01*
X140355514Y-169964007D01*
X140344480Y-170006086D01*
X140222162Y-170384035D01*
X140074573Y-170650683D01*
X139897598Y-170811239D01*
X139687120Y-170870912D01*
X139660579Y-170871542D01*
X139495142Y-170818340D01*
X139369784Y-170682057D01*
X139315496Y-170497675D01*
X139315151Y-170481593D01*
X139361190Y-170345127D01*
X139473686Y-170199939D01*
X139614213Y-170085876D01*
X139738481Y-170042638D01*
X139878124Y-170073383D01*
X139969043Y-170116647D01*
X140070321Y-170159777D01*
X140134380Y-170117585D01*
X140144956Y-170101845D01*
X140192464Y-169969684D01*
X140202357Y-169883750D01*
X140170506Y-169781299D01*
X140054465Y-169737494D01*
X140040443Y-169735731D01*
X139946184Y-169716948D01*
X139898164Y-169667860D01*
X139881395Y-169557119D01*
X139880424Y-169401083D01*
X139880431Y-169400239D01*
X140084848Y-169400239D01*
X140136693Y-169442383D01*
X140278896Y-169442878D01*
X140491462Y-169403015D01*
X140628597Y-169365123D01*
X140788969Y-169322931D01*
X140898946Y-169322893D01*
X140972636Y-169381590D01*
X141024146Y-169515604D01*
X141067584Y-169741514D01*
X141093177Y-169911168D01*
X141130170Y-170149730D01*
X141161621Y-170292103D01*
X141196846Y-170359579D01*
X141245163Y-170373447D01*
X141290866Y-170362933D01*
X141585643Y-170253326D01*
X141790284Y-170126126D01*
X141915510Y-169990129D01*
X142012249Y-169871099D01*
X142086441Y-169808576D01*
X142097105Y-169805808D01*
X142155348Y-169852226D01*
X142242416Y-169968994D01*
X142279115Y-170027836D01*
X142448653Y-170308137D01*
X142572399Y-170492140D01*
X142661749Y-170587236D01*
X142728101Y-170600816D01*
X142782853Y-170540272D01*
X142837400Y-170412995D01*
X142844214Y-170394308D01*
X142894424Y-170194954D01*
X142921292Y-169972501D01*
X142921921Y-169953827D01*
X143163636Y-169953827D01*
X143193240Y-169983430D01*
X143222844Y-169953827D01*
X143193240Y-169924223D01*
X143163636Y-169953827D01*
X142921921Y-169953827D01*
X142922302Y-169942519D01*
X142937097Y-169780667D01*
X142968680Y-169675326D01*
X142981631Y-169660498D01*
X143064875Y-169659234D01*
X143219495Y-169691061D01*
X143406933Y-169745059D01*
X143588632Y-169810311D01*
X143710502Y-169866881D01*
X143812676Y-169914626D01*
X143850308Y-169924223D01*
X143868773Y-169874016D01*
X143853003Y-169744368D01*
X143810282Y-169566732D01*
X143747892Y-169372565D01*
X143688800Y-169226659D01*
X143626408Y-169067076D01*
X143599966Y-168951945D01*
X143603622Y-168924282D01*
X143674636Y-168892031D01*
X143826509Y-168859739D01*
X143969635Y-168840755D01*
X144163837Y-168812003D01*
X144310843Y-168774381D01*
X144364104Y-168747438D01*
X144371519Y-168657070D01*
X144301532Y-168480651D01*
X144237255Y-168360079D01*
X144109953Y-168111056D01*
X144057822Y-167938885D01*
X144080676Y-167829082D01*
X144178325Y-167767159D01*
X144229370Y-167754270D01*
X144353795Y-167713932D01*
X144406966Y-167666034D01*
X144406993Y-167665099D01*
X144366636Y-167598130D01*
X144262891Y-167483267D01*
X144170163Y-167393700D01*
X144026741Y-167245107D01*
X143954296Y-167108529D01*
X143945634Y-166947653D01*
X143993562Y-166726171D01*
X144019973Y-166635580D01*
X144065287Y-166467564D01*
X144086342Y-166352982D01*
X144084101Y-166325185D01*
X144019069Y-166331623D01*
X143890030Y-166379301D01*
X143735486Y-166450182D01*
X143593942Y-166526229D01*
X143503899Y-166589404D01*
X143493424Y-166601896D01*
X143409665Y-166674690D01*
X143333127Y-166645447D01*
X143286891Y-166529479D01*
X143282051Y-166461685D01*
X143272219Y-166284615D01*
X143246451Y-166068509D01*
X143210339Y-165843950D01*
X143169477Y-165641520D01*
X143129456Y-165491802D01*
X143095869Y-165425379D01*
X143092377Y-165424456D01*
X143049787Y-165472206D01*
X143045221Y-165507939D01*
X143006502Y-165586224D01*
X142903152Y-165723491D01*
X142754384Y-165895098D01*
X142687455Y-165966796D01*
X142512139Y-166146310D01*
X142387007Y-166247776D01*
X142294873Y-166264430D01*
X142218555Y-166189503D01*
X142140866Y-166016231D01*
X142044624Y-165737848D01*
X142035340Y-165710031D01*
X141962926Y-165500076D01*
X141917240Y-165391898D01*
X141890675Y-165373946D01*
X141875626Y-165434668D01*
X141872573Y-165462819D01*
X141822238Y-165622752D01*
X141739357Y-165679304D01*
X141644836Y-165745798D01*
X141624242Y-165806346D01*
X141585419Y-165910644D01*
X141489950Y-166041613D01*
X141469621Y-166063520D01*
X141315000Y-166223757D01*
X141351334Y-165975699D01*
X141365435Y-165805987D01*
X141329190Y-165705246D01*
X141218899Y-165643490D01*
X141054788Y-165600503D01*
X140954306Y-165579761D01*
X140892022Y-165583877D01*
X140865708Y-165630953D01*
X140873137Y-165739094D01*
X140912082Y-165926400D01*
X140979896Y-166209238D01*
X141043920Y-166508906D01*
X141062001Y-166711490D01*
X141029453Y-166830904D01*
X140941592Y-166881058D01*
X140793735Y-166875865D01*
X140757534Y-166869594D01*
X140616696Y-166855350D01*
X140568706Y-166894870D01*
X140605068Y-167004547D01*
X140647319Y-167082265D01*
X140713083Y-167254862D01*
X140734032Y-167393104D01*
X140727860Y-167487967D01*
X140686468Y-167536926D01*
X140580308Y-167556011D01*
X140425291Y-167560599D01*
X140267641Y-167568080D01*
X140186297Y-167582491D01*
X140189175Y-167595375D01*
X140264404Y-167660270D01*
X140371154Y-167789379D01*
X140483068Y-167945587D01*
X140573791Y-168091780D01*
X140616966Y-168190842D01*
X140617715Y-168198843D01*
X140579789Y-168284762D01*
X140526970Y-168348702D01*
X140468317Y-168438378D01*
X140498999Y-168539278D01*
X140511736Y-168560362D01*
X140554129Y-168696798D01*
X140528472Y-168761049D01*
X140460450Y-168852183D01*
X140350857Y-168997891D01*
X140277273Y-169095368D01*
X140169638Y-169246419D01*
X140099802Y-169361060D01*
X140084848Y-169400239D01*
X139880431Y-169400239D01*
X139883225Y-169085170D01*
X139643594Y-169111374D01*
X139417006Y-169110071D01*
X139132212Y-169072654D01*
X138834602Y-169008681D01*
X138569568Y-168927711D01*
X138397710Y-168849005D01*
X138236126Y-168773626D01*
X138089717Y-168740373D01*
X138084738Y-168740295D01*
X137962668Y-168699447D01*
X137912441Y-168636461D01*
X137850907Y-168539111D01*
X137732111Y-168398688D01*
X137632602Y-168295952D01*
X137431383Y-168047858D01*
X137310288Y-167792689D01*
X137258514Y-167640808D01*
X137424828Y-167640808D01*
X137470935Y-167790148D01*
X137572750Y-167963664D01*
X137721610Y-168140840D01*
X137857908Y-168262988D01*
X138000636Y-168368084D01*
X138106897Y-168433405D01*
X138136837Y-168444036D01*
X138234204Y-168393251D01*
X138338783Y-168265599D01*
X138425481Y-168098137D01*
X138465349Y-167958882D01*
X138503447Y-167810338D01*
X138545441Y-167771523D01*
X138581729Y-167834524D01*
X138602704Y-167991427D01*
X138604662Y-168073668D01*
X138578987Y-168304683D01*
X138494474Y-168464320D01*
X138482037Y-168478121D01*
X138359412Y-168608649D01*
X138615254Y-168701881D01*
X138807389Y-168765926D01*
X138978122Y-168813211D01*
X139019114Y-168821893D01*
X139223933Y-168834784D01*
X139492712Y-168819971D01*
X139775471Y-168781998D01*
X139996037Y-168733072D01*
X140232867Y-168666268D01*
X139918344Y-168522235D01*
X139736474Y-168430148D01*
X139644520Y-168354639D01*
X139620030Y-168274929D01*
X139622307Y-168248299D01*
X139643174Y-168175520D01*
X139698749Y-168139598D01*
X139818715Y-168131493D01*
X139981235Y-168138974D01*
X140194935Y-168141587D01*
X140300137Y-168110856D01*
X140299690Y-168037687D01*
X140196444Y-167912988D01*
X140084848Y-167808313D01*
X139914557Y-167620236D01*
X139841473Y-167456247D01*
X139866706Y-167328193D01*
X139991366Y-167247917D01*
X140031424Y-167238008D01*
X140212092Y-167222602D01*
X140357065Y-167237026D01*
X140463970Y-167252218D01*
X140499301Y-167238711D01*
X140473673Y-167151373D01*
X140412301Y-167020750D01*
X140338453Y-166889740D01*
X140275396Y-166801241D01*
X140253877Y-166786228D01*
X140180355Y-166799938D01*
X140018854Y-166836900D01*
X139796075Y-166890856D01*
X139626294Y-166933280D01*
X139274746Y-167017285D01*
X139001727Y-167068075D01*
X138773087Y-167088831D01*
X138554674Y-167082734D01*
X138323426Y-167054649D01*
X138140185Y-167032375D01*
X138045926Y-167039407D01*
X138013997Y-167079547D01*
X138012587Y-167098978D01*
X137965492Y-167202359D01*
X137850087Y-167323896D01*
X137705194Y-167431300D01*
X137569637Y-167492281D01*
X137534385Y-167496717D01*
X137443091Y-167536159D01*
X137424828Y-167640808D01*
X137258514Y-167640808D01*
X137231218Y-167560735D01*
X137136403Y-167323795D01*
X137116185Y-167278721D01*
X137048012Y-167062700D01*
X137041170Y-166866794D01*
X137094782Y-166725603D01*
X137131034Y-166693363D01*
X137175626Y-166613433D01*
X137183683Y-166549398D01*
X137211002Y-166437976D01*
X137241524Y-166402223D01*
X137353894Y-166389202D01*
X137520294Y-166427044D01*
X137696889Y-166499949D01*
X137839845Y-166592115D01*
X137878615Y-166631878D01*
X138035984Y-166742847D01*
X138282130Y-166805211D01*
X138598585Y-166820577D01*
X138966886Y-166790550D01*
X139368564Y-166716738D01*
X139785155Y-166600746D01*
X139964818Y-166532644D01*
X140622649Y-166532644D01*
X140651726Y-166545722D01*
X140726262Y-166549398D01*
X140832525Y-166512203D01*
X140854545Y-166453337D01*
X140840860Y-166390339D01*
X140779739Y-166415224D01*
X140750932Y-166436583D01*
X140657877Y-166506949D01*
X140622649Y-166532644D01*
X139964818Y-166532644D01*
X140198193Y-166444182D01*
X140237987Y-166426625D01*
X140405672Y-166338656D01*
X140533194Y-166249142D01*
X140558312Y-166223993D01*
X140655693Y-166159880D01*
X140716012Y-166159997D01*
X140779359Y-166155117D01*
X140787841Y-166065374D01*
X140741255Y-165882533D01*
X140706527Y-165779701D01*
X140634306Y-165551239D01*
X140624095Y-165456935D01*
X141412030Y-165456935D01*
X141417435Y-165484342D01*
X141480762Y-165533422D01*
X141548625Y-165541659D01*
X141565035Y-165519602D01*
X141518592Y-165481576D01*
X141473148Y-165461072D01*
X141412030Y-165456935D01*
X140624095Y-165456935D01*
X140618981Y-165409702D01*
X140667524Y-165334639D01*
X140703955Y-165325777D01*
X141170318Y-165325777D01*
X141178446Y-165360976D01*
X141209790Y-165365249D01*
X141258524Y-165343585D01*
X141249262Y-165325777D01*
X141178996Y-165318691D01*
X141170318Y-165325777D01*
X140703955Y-165325777D01*
X140786906Y-165305599D01*
X140869347Y-165302034D01*
X141018442Y-165296534D01*
X141062754Y-165281169D01*
X141015903Y-165247803D01*
X140985369Y-165232711D01*
X140889068Y-165150928D01*
X140867559Y-165073897D01*
X140933054Y-164984028D01*
X141061110Y-164965964D01*
X141221178Y-165018353D01*
X141333925Y-165094543D01*
X141485264Y-165208938D01*
X141577690Y-165235487D01*
X141632451Y-165173498D01*
X141658221Y-165084013D01*
X141707438Y-164879839D01*
X141748574Y-164768312D01*
X141794422Y-164725520D01*
X141849778Y-164725913D01*
G37*
G36*
X136571614Y-167866234D02*
G01*
X136583793Y-167922402D01*
X136547801Y-168040493D01*
X136460305Y-168240535D01*
X136444168Y-168275337D01*
X136363102Y-168470388D01*
X136309302Y-168639871D01*
X136296149Y-168719730D01*
X136306214Y-168801157D01*
X136359575Y-168820317D01*
X136489403Y-168787908D01*
X136498730Y-168785054D01*
X136639644Y-168753933D01*
X136748045Y-168777447D01*
X136878737Y-168869374D01*
X136898380Y-168885541D01*
X137070268Y-169057657D01*
X137175582Y-169249211D01*
X137227740Y-169494239D01*
X137240220Y-169752519D01*
X137234428Y-169982796D01*
X137204691Y-170142777D01*
X137138228Y-170280052D01*
X137073292Y-170374197D01*
X136856351Y-170638582D01*
X136642028Y-170824152D01*
X136391979Y-170963197D01*
X136354041Y-170979887D01*
X136124472Y-171058704D01*
X135874245Y-171114258D01*
X135645264Y-171139725D01*
X135479434Y-171128280D01*
X135466666Y-171124412D01*
X135168356Y-170987472D01*
X134956108Y-170801160D01*
X134816440Y-170546765D01*
X134735870Y-170205575D01*
X134721959Y-170090919D01*
X134708584Y-169900824D01*
X134914729Y-169900824D01*
X134921070Y-170214638D01*
X134972334Y-170495923D01*
X135037451Y-170653906D01*
X135211267Y-170843539D01*
X135452834Y-170944821D01*
X135749899Y-170956701D01*
X136090212Y-170878132D01*
X136352235Y-170766431D01*
X136651374Y-170569636D01*
X136877210Y-170339200D01*
X136980942Y-170196552D01*
X137038958Y-170081922D01*
X137061557Y-169953862D01*
X137059039Y-169770925D01*
X137051153Y-169639251D01*
X137029740Y-169398912D01*
X136995624Y-169240672D01*
X136937484Y-169128221D01*
X136866616Y-169047376D01*
X136710013Y-168890774D01*
X136502792Y-169002369D01*
X136371452Y-169084474D01*
X136299951Y-169151296D01*
X136295571Y-169163849D01*
X136247482Y-169208145D01*
X136206760Y-169213733D01*
X136134403Y-169164533D01*
X136117949Y-169096839D01*
X136066196Y-168989429D01*
X135937436Y-168887636D01*
X135771418Y-168816830D01*
X135651772Y-168799281D01*
X135502492Y-168848182D01*
X135329429Y-168977832D01*
X135160918Y-169162650D01*
X135036891Y-169354398D01*
X134953330Y-169599179D01*
X134914729Y-169900824D01*
X134708584Y-169900824D01*
X134705484Y-169856758D01*
X134720073Y-169680926D01*
X134774864Y-169505386D01*
X134836469Y-169363725D01*
X134981339Y-169102606D01*
X135148869Y-168887500D01*
X135318859Y-168739850D01*
X135471107Y-168681097D01*
X135479833Y-168680866D01*
X135563469Y-168660276D01*
X135564501Y-168576991D01*
X135555662Y-168547649D01*
X135518034Y-168396290D01*
X135494585Y-168262123D01*
X135644289Y-168262123D01*
X135684056Y-168422771D01*
X135816969Y-168570849D01*
X135836713Y-168586720D01*
X135974283Y-168672531D01*
X136044184Y-168665644D01*
X136044185Y-168572054D01*
X135972055Y-168397754D01*
X135933624Y-168326354D01*
X135819806Y-168160726D01*
X135726870Y-168095445D01*
X135665007Y-168132771D01*
X135644289Y-168262123D01*
X135494585Y-168262123D01*
X135485488Y-168210076D01*
X135483882Y-168198193D01*
X135475976Y-168048173D01*
X135515012Y-167972647D01*
X135579415Y-167942572D01*
X135776313Y-167931255D01*
X135942174Y-168033243D01*
X136053318Y-168196134D01*
X136164798Y-168413432D01*
X136301190Y-168132697D01*
X136391518Y-167974519D01*
X136475544Y-167872702D01*
X136514595Y-167851962D01*
X136571614Y-167866234D01*
G37*
G36*
X139340786Y-167220568D02*
G01*
X139438197Y-167313141D01*
X139474300Y-167461317D01*
X139442483Y-167615675D01*
X139401803Y-167676725D01*
X139303011Y-167770639D01*
X139227110Y-167782874D01*
X139157025Y-167746849D01*
X139090608Y-167659602D01*
X139050058Y-167552741D01*
X139059564Y-167409624D01*
X139137569Y-167285368D01*
X139252496Y-167216050D01*
X139340786Y-167220568D01*
G37*
D18*
%TO.C,BT1*%
X103962000Y-153868000D02*
X102432000Y-153868000D01*
X113462000Y-153688000D02*
X118912000Y-146988000D01*
X118912000Y-139388000D02*
X118912000Y-146988000D01*
X113462000Y-132688000D02*
X118912000Y-139388000D01*
X103962000Y-132508000D02*
X102362000Y-132508000D01*
X102412000Y-153865058D02*
G75*
G02*
X100372001Y-148368001I1J3127058D01*
G01*
X100244608Y-137881578D02*
G75*
G02*
X100381999Y-148357999I-5132609J-5306422D01*
G01*
X100219247Y-137871548D02*
G75*
G02*
X102412000Y-132508000I2192753J2233548D01*
G01*
%TO.C,SW3*%
X123884500Y-129940500D02*
X123884500Y-131323500D01*
X123884500Y-129940500D02*
X125267500Y-129940500D01*
X124124500Y-130180500D02*
X124124500Y-135020500D01*
X124124500Y-130180500D02*
X134024500Y-130180500D01*
X124124500Y-135020500D02*
X134024500Y-135020500D01*
X128397833Y-131965500D02*
X128397833Y-133235500D01*
X134024500Y-130180500D02*
X134024500Y-135020500D01*
X127044500Y-131965500D02*
X128397833Y-131965500D01*
X128397833Y-133235500D01*
X127044500Y-133235500D01*
X127044500Y-131965500D01*
G36*
X127044500Y-131965500D02*
G01*
X128397833Y-131965500D01*
X128397833Y-133235500D01*
X127044500Y-133235500D01*
X127044500Y-131965500D01*
G37*
X127044500Y-131965500D02*
X131104500Y-131965500D01*
X131104500Y-133235500D01*
X127044500Y-133235500D01*
X127044500Y-131965500D01*
%TO.C,D2*%
X116817045Y-107636123D02*
X116817045Y-110726123D01*
X116817045Y-107636293D02*
G75*
G02*
X122367045Y-109181123I2560000J-1544830D01*
G01*
X122367045Y-109181123D02*
G75*
G02*
X116817045Y-110725953I-2990000J0D01*
G01*
X121877045Y-109181123D02*
G75*
G02*
X116877045Y-109181123I-2500000J0D01*
G01*
X116877045Y-109181123D02*
G75*
G02*
X121877045Y-109181123I2500000J0D01*
G01*
%TO.C,SW1*%
X181724000Y-144326000D02*
X181724000Y-141816000D01*
X181724000Y-144326000D02*
X169504000Y-144326000D01*
X181724000Y-139516000D02*
X181724000Y-136916000D01*
X181724000Y-134616000D02*
X181724000Y-132106000D01*
X169504000Y-144326000D02*
X169504000Y-141816000D01*
X169504000Y-139516000D02*
X169504000Y-136916000D01*
X169504000Y-134616000D02*
X169504000Y-132106000D01*
X169504000Y-132106000D02*
X181724000Y-132106000D01*
X179164000Y-138216000D02*
G75*
G02*
X172064000Y-138216000I-3550000J0D01*
G01*
X172064000Y-138216000D02*
G75*
G02*
X179164000Y-138216000I3550000J0D01*
G01*
%TO.C,D8*%
X128250000Y-120375000D02*
X128250000Y-123465000D01*
X128250000Y-120375170D02*
G75*
G02*
X133800000Y-121920000I2560000J-1544830D01*
G01*
X133800000Y-121920000D02*
G75*
G02*
X128250000Y-123464830I-2990000J0D01*
G01*
X133310000Y-121920000D02*
G75*
G02*
X128310000Y-121920000I-2500000J0D01*
G01*
X128310000Y-121920000D02*
G75*
G02*
X133310000Y-121920000I2500000J0D01*
G01*
%TO.C,R4*%
X159004000Y-131496000D02*
X159004000Y-132446000D01*
X159004000Y-137236000D02*
X159004000Y-136286000D01*
X158084000Y-136286000D02*
X159924000Y-136286000D01*
X159924000Y-132446000D01*
X158084000Y-132446000D01*
X158084000Y-136286000D01*
%TO.C,R2*%
X140716000Y-137236000D02*
X140716000Y-136286000D01*
X140716000Y-131496000D02*
X140716000Y-132446000D01*
X141636000Y-132446000D02*
X139796000Y-132446000D01*
X139796000Y-136286000D01*
X141636000Y-136286000D01*
X141636000Y-132446000D01*
%TO.C,D9*%
X161628806Y-160035281D02*
X164718806Y-160035281D01*
X161628976Y-160035281D02*
G75*
G02*
X163173806Y-154485281I1544830J2560000D01*
G01*
X163173806Y-154485281D02*
G75*
G02*
X164718636Y-160035281I0J-2990000D01*
G01*
X165673806Y-157475281D02*
G75*
G02*
X160673806Y-157475281I-2500000J0D01*
G01*
X160673806Y-157475281D02*
G75*
G02*
X165673806Y-157475281I2500000J0D01*
G01*
%TO.C,C1*%
X147343000Y-142652000D02*
X145813000Y-142652000D01*
X145813000Y-140812000D02*
X147343000Y-140812000D01*
%TO.C,D6*%
X146938806Y-154915281D02*
X143848806Y-154915281D01*
X145393806Y-160465281D02*
G75*
G02*
X143848976Y-154915281I0J2990000D01*
G01*
X146938636Y-154915281D02*
G75*
G02*
X145393806Y-160465281I-1544830J-2560000D01*
G01*
X147893806Y-157475281D02*
G75*
G02*
X142893806Y-157475281I-2500000J0D01*
G01*
X142893806Y-157475281D02*
G75*
G02*
X147893806Y-157475281I2500000J0D01*
G01*
%TO.C,D4*%
X157441259Y-107656259D02*
X157441259Y-110746259D01*
X157441259Y-107656429D02*
G75*
G02*
X162991259Y-109201259I2560000J-1544830D01*
G01*
X162991259Y-109201259D02*
G75*
G02*
X157441259Y-110746089I-2990000J0D01*
G01*
X162501259Y-109201259D02*
G75*
G02*
X157501259Y-109201259I-2500000J0D01*
G01*
X157501259Y-109201259D02*
G75*
G02*
X162501259Y-109201259I2500000J0D01*
G01*
%TO.C,D12*%
X137140000Y-107675000D02*
X137140000Y-110765000D01*
X137140000Y-107675170D02*
G75*
G02*
X142690000Y-109220000I2560000J-1544830D01*
G01*
X142690000Y-109220000D02*
G75*
G02*
X137140000Y-110764830I-2990000J0D01*
G01*
X142200000Y-109220000D02*
G75*
G02*
X137200000Y-109220000I-2500000J0D01*
G01*
X137200000Y-109220000D02*
G75*
G02*
X142200000Y-109220000I2500000J0D01*
G01*
%TO.C,SW2*%
X134142000Y-160364000D02*
X123922000Y-160364000D01*
X123922000Y-157644000D01*
X134142000Y-157644000D01*
X134142000Y-160364000D01*
%TO.C,D10*%
X146030000Y-94975000D02*
X146030000Y-98065000D01*
X146030000Y-94975170D02*
G75*
G02*
X151580000Y-96520000I2560000J-1544830D01*
G01*
X151580000Y-96520000D02*
G75*
G02*
X146030000Y-98064830I-2990000J0D01*
G01*
X151090000Y-96520000D02*
G75*
G02*
X146090000Y-96520000I-2500000J0D01*
G01*
X146090000Y-96520000D02*
G75*
G02*
X151090000Y-96520000I2500000J0D01*
G01*
%TO.C,D5*%
X152738806Y-160035281D02*
X155828806Y-160035281D01*
X152738976Y-160035281D02*
G75*
G02*
X154283806Y-154485281I1544830J2560000D01*
G01*
X154283806Y-154485281D02*
G75*
G02*
X155828636Y-160035281I0J-2990000D01*
G01*
X156783806Y-157475281D02*
G75*
G02*
X151783806Y-157475281I-2500000J0D01*
G01*
X151783806Y-157475281D02*
G75*
G02*
X156783806Y-157475281I2500000J0D01*
G01*
%TO.C,U1*%
X149388000Y-129226000D02*
X149388000Y-139506000D01*
X149388000Y-139506000D02*
X153888000Y-139506000D01*
X150638000Y-129226000D02*
X149388000Y-129226000D01*
X153888000Y-129226000D02*
X152638000Y-129226000D01*
X153888000Y-139506000D02*
X153888000Y-129226000D01*
X152638000Y-129226000D02*
G75*
G02*
X150638000Y-129226000I-1000000J0D01*
G01*
%TO.C,D7*%
X133370000Y-98065000D02*
X133370000Y-94975000D01*
X127820000Y-96520000D02*
G75*
G02*
X133370000Y-94975170I2990000J0D01*
G01*
X133370000Y-98064830D02*
G75*
G02*
X127820000Y-96520000I-2560000J1544830D01*
G01*
X133310000Y-96520000D02*
G75*
G02*
X128310000Y-96520000I-2500000J0D01*
G01*
X128310000Y-96520000D02*
G75*
G02*
X133310000Y-96520000I2500000J0D01*
G01*
%TO.C,D1*%
X110510000Y-99335000D02*
X110510000Y-96245000D01*
X104960000Y-97790000D02*
G75*
G02*
X110510000Y-96245170I2990000J0D01*
G01*
X110510000Y-99334830D02*
G75*
G02*
X104960000Y-97790000I-2560000J1544830D01*
G01*
X110450000Y-97790000D02*
G75*
G02*
X105450000Y-97790000I-2500000J0D01*
G01*
X105450000Y-97790000D02*
G75*
G02*
X110450000Y-97790000I2500000J0D01*
G01*
%TO.C,R1*%
X162560000Y-131496000D02*
X162560000Y-132446000D01*
X162560000Y-137236000D02*
X162560000Y-136286000D01*
X161640000Y-136286000D02*
X163480000Y-136286000D01*
X163480000Y-132446000D01*
X161640000Y-132446000D01*
X161640000Y-136286000D01*
%TO.C,D3*%
X173983385Y-99307112D02*
X173983385Y-96217112D01*
X168433385Y-97762112D02*
G75*
G02*
X173983385Y-96217282I2990000J0D01*
G01*
X173983385Y-99306942D02*
G75*
G02*
X168433385Y-97762112I-2560000J1544830D01*
G01*
X173923385Y-97762112D02*
G75*
G02*
X168923385Y-97762112I-2500000J0D01*
G01*
X168923385Y-97762112D02*
G75*
G02*
X173923385Y-97762112I2500000J0D01*
G01*
%TO.C,D11*%
X151150000Y-123465000D02*
X151150000Y-120375000D01*
X145600000Y-121920000D02*
G75*
G02*
X151150000Y-120375170I2990000J0D01*
G01*
X151150000Y-123464830D02*
G75*
G02*
X145600000Y-121920000I-2560000J1544830D01*
G01*
X151090000Y-121920000D02*
G75*
G02*
X146090000Y-121920000I-2500000J0D01*
G01*
X146090000Y-121920000D02*
G75*
G02*
X151090000Y-121920000I2500000J0D01*
G01*
%TO.C,R3*%
X144272000Y-131496000D02*
X144272000Y-132446000D01*
X144272000Y-137236000D02*
X144272000Y-136286000D01*
X143352000Y-136286000D02*
X145192000Y-136286000D01*
X145192000Y-132446000D01*
X143352000Y-132446000D01*
X143352000Y-136286000D01*
%TO.C,LS1*%
X136632000Y-145288000D02*
G75*
G02*
X121432000Y-145288000I-7600000J0D01*
G01*
X121432000Y-145288000D02*
G75*
G02*
X136632000Y-145288000I7600000J0D01*
G01*
%TD*%
%LPC*%
D19*
%TO.C,BT1*%
X108712000Y-155288000D03*
D20*
X108712000Y-153788000D03*
X108712000Y-132588000D03*
D19*
X108712000Y-131088000D03*
D21*
X108712000Y-143188000D03*
%TD*%
D22*
%TO.C,SW3*%
X125264500Y-132600500D03*
D23*
X132884500Y-132600500D03*
%TD*%
D24*
%TO.C,D2*%
X118107045Y-109181123D03*
D25*
X120647045Y-109181123D03*
%TD*%
D26*
%TO.C,SW1*%
X181864000Y-140716000D03*
X169364000Y-140716000D03*
X181864000Y-135716000D03*
X169364000Y-135716000D03*
%TD*%
D24*
%TO.C,D8*%
X129540000Y-121920000D03*
D25*
X132080000Y-121920000D03*
%TD*%
D27*
%TO.C,R4*%
X159004000Y-138176000D03*
X159004000Y-130556000D03*
%TD*%
%TO.C,R2*%
X140716000Y-130556000D03*
X140716000Y-138176000D03*
%TD*%
D24*
%TO.C,D9*%
X163173806Y-158745281D03*
D25*
X163173806Y-156205281D03*
%TD*%
D23*
%TO.C,C1*%
X145328000Y-141732000D03*
X147828000Y-141732000D03*
%TD*%
D24*
%TO.C,D6*%
X145393806Y-156205281D03*
D25*
X145393806Y-158745281D03*
%TD*%
D24*
%TO.C,D4*%
X158731259Y-109201259D03*
D25*
X161271259Y-109201259D03*
%TD*%
D24*
%TO.C,D12*%
X138430000Y-109220000D03*
D25*
X140970000Y-109220000D03*
%TD*%
D28*
%TO.C,SW2*%
X129032000Y-159004000D03*
D23*
X131572000Y-159004000D03*
X126492000Y-159004000D03*
%TD*%
D24*
%TO.C,D10*%
X147320000Y-96520000D03*
D25*
X149860000Y-96520000D03*
%TD*%
D24*
%TO.C,D5*%
X154283806Y-158745281D03*
D25*
X154283806Y-156205281D03*
%TD*%
D29*
%TO.C,U1*%
X147828000Y-130556000D03*
D30*
X147828000Y-133096000D03*
X147828000Y-135636000D03*
X147828000Y-138176000D03*
X155448000Y-138176000D03*
X155448000Y-135636000D03*
X155448000Y-133096000D03*
X155448000Y-130556000D03*
%TD*%
D24*
%TO.C,D7*%
X132080000Y-96520000D03*
D25*
X129540000Y-96520000D03*
%TD*%
D24*
%TO.C,D1*%
X109220000Y-97790000D03*
D25*
X106680000Y-97790000D03*
%TD*%
D27*
%TO.C,R1*%
X162560000Y-138176000D03*
X162560000Y-130556000D03*
%TD*%
D24*
%TO.C,D3*%
X172693385Y-97762112D03*
D25*
X170153385Y-97762112D03*
%TD*%
D24*
%TO.C,D11*%
X149860000Y-121920000D03*
D25*
X147320000Y-121920000D03*
%TD*%
D27*
%TO.C,R3*%
X144272000Y-138176000D03*
X144272000Y-130556000D03*
%TD*%
D31*
%TO.C,LS1*%
X132832000Y-145288000D03*
D32*
X125232000Y-145288000D03*
%TD*%
%LPD*%
M02*
