M48
; DRILL file {KiCad 9.0.5} date 2025-12-23T23:47:00-0500
; FORMAT={-:-/ absolute / inch / decimal}
; #@! TF.CreationDate,2025-12-23T23:47:00-05:00
; #@! TF.GenerationSoftware,Kicad,Pcbnew,9.0.5
; #@! TF.FileFunction,Plated,1,2,PTH
FMAT,2
INCH
; #@! TA.AperFunction,Plated,PTH,ViaDrill
T1C0.0118
; #@! TA.AperFunction,Plated,PTH,ComponentDrill
T2C0.0276
; #@! TA.AperFunction,Plated,PTH,ComponentDrill
T3C0.0315
; #@! TA.AperFunction,Plated,PTH,ComponentDrill
T4C0.0354
; #@! TA.AperFunction,Plated,PTH,ComponentDrill
T5C0.0512
; #@! TA.AperFunction,Plated,PTH,ComponentDrill
T6C0.0728
%
G90
G05
T1
X6.1002Y-5.0
T2
X4.9974Y-3.1457
X4.9974Y-3.4457
X5.3002Y-5.15
X5.3002Y-5.45
X5.5002Y-5.15
X5.5002Y-5.45
X5.9974Y-3.2957
X6.0474Y-3.2457
X6.0474Y-3.3457
X6.1999Y-5.149
X6.1999Y-5.449
X6.3999Y-5.149
X6.3999Y-5.449
T3
X5.199Y-5.9986
X5.199Y-6.0986
X5.199Y-6.1986
X5.6997Y-5.149
X5.6997Y-5.249
X5.6997Y-5.349
X5.6997Y-5.449
X5.8002Y-5.5989
X5.8987Y-5.5989
X5.9997Y-5.149
X5.9997Y-5.249
X5.9997Y-5.349
X5.9997Y-5.449
T4
X4.2Y-3.85
X4.3Y-3.85
X4.6499Y-4.2985
X4.7499Y-4.2985
X5.1Y-3.8
X5.1Y-4.8
X5.2Y-3.8
X5.2Y-4.8
X5.4215Y-3.3
X5.45Y-4.3
X5.55Y-4.3
X5.5789Y-3.3
X5.7242Y-6.1498
X5.7242Y-6.2498
X5.8Y-3.8
X5.8Y-4.8
X5.9Y-3.8
X5.9Y-4.8
X6.0742Y-6.1498
X6.0742Y-6.2498
X6.2493Y-4.2993
X6.3493Y-4.2993
X6.4242Y-6.1498
X6.4242Y-6.2498
X6.699Y-3.8489
X6.799Y-3.8489
T5
X6.6579Y-5.35
X6.6579Y-5.5469
X7.15Y-5.35
X7.15Y-5.5469
T6
X4.5873Y-5.3255
X4.5873Y-6.1601
M30
