%TF.GenerationSoftware,KiCad,Pcbnew,8.0.5-dirty*%
%TF.CreationDate,2025-03-15T19:07:53-04:00*%
%TF.ProjectId,var-tone-beeper,7661722d-746f-46e6-952d-626565706572,rev?*%
%TF.SameCoordinates,Original*%
%TF.FileFunction,Legend,Top*%
%TF.FilePolarity,Positive*%
%FSLAX46Y46*%
G04 Gerber Fmt 4.6, Leading zero omitted, Abs format (unit mm)*
G04 Created by KiCad (PCBNEW 8.0.5-dirty) date 2025-03-15 19:07:53*
%MOMM*%
%LPD*%
G01*
G04 APERTURE LIST*
G04 Aperture macros list*
%AMHorizOval*
0 Thick line with rounded ends*
0 $1 width*
0 $2 $3 position (X,Y) of the first rounded end (center of the circle)*
0 $4 $5 position (X,Y) of the second rounded end (center of the circle)*
0 Add line between two ends*
20,1,$1,$2,$3,$4,$5,0*
0 Add two circle primitives to create the rounded ends*
1,1,$1,$2,$3*
1,1,$1,$4,$5*%
%AMFreePoly0*
4,1,19,0.550000,-0.750000,0.000000,-0.750000,0.000000,-0.744911,-0.071157,-0.744911,-0.207708,-0.704816,-0.327430,-0.627875,-0.420627,-0.520320,-0.479746,-0.390866,-0.500000,-0.250000,-0.500000,0.250000,-0.479746,0.390866,-0.420627,0.520320,-0.327430,0.627875,-0.207708,0.704816,-0.071157,0.744911,0.000000,0.744911,0.000000,0.750000,0.550000,0.750000,0.550000,-0.750000,0.550000,-0.750000,
$1*%
%AMFreePoly1*
4,1,19,0.000000,0.744911,0.071157,0.744911,0.207708,0.704816,0.327430,0.627875,0.420627,0.520320,0.479746,0.390866,0.500000,0.250000,0.500000,-0.250000,0.479746,-0.390866,0.420627,-0.520320,0.327430,-0.627875,0.207708,-0.704816,0.071157,-0.744911,0.000000,-0.744911,0.000000,-0.750000,-0.550000,-0.750000,-0.550000,0.750000,0.000000,0.750000,0.000000,0.744911,0.000000,0.744911,
$1*%
G04 Aperture macros list end*
%ADD10C,0.100000*%
%ADD11C,0.150000*%
%ADD12C,0.120000*%
%ADD13C,3.650000*%
%ADD14R,2.170000X2.170000*%
%ADD15C,2.170000*%
%ADD16C,2.000000*%
%ADD17O,3.240000X2.720000*%
%ADD18R,1.800000X1.800000*%
%ADD19C,1.800000*%
%ADD20C,1.400000*%
%ADD21O,1.400000X1.400000*%
%ADD22R,1.600000X1.600000*%
%ADD23O,1.600000X1.600000*%
%ADD24HorizOval,1.900000X-0.562917X-0.325000X0.562917X0.325000X0*%
%ADD25FreePoly0,270.000000*%
%ADD26R,1.500000X1.000000*%
%ADD27FreePoly1,270.000000*%
%ADD28C,1.600000*%
G04 APERTURE END LIST*
D10*
X157734048Y-88976466D02*
X158495953Y-88976466D01*
X158115000Y-89357419D02*
X158115000Y-88595514D01*
X157734048Y-101676466D02*
X158495953Y-101676466D01*
X158115000Y-102057419D02*
X158115000Y-101295514D01*
X122809048Y-86436466D02*
X123570953Y-86436466D01*
X157734048Y-99136466D02*
X158495953Y-99136466D01*
X157734048Y-91516466D02*
X158495953Y-91516466D01*
X135509048Y-101676466D02*
X136270953Y-101676466D01*
X135890000Y-102057419D02*
X135890000Y-101295514D01*
D11*
X188569285Y-97771009D02*
X188712142Y-97818628D01*
X188712142Y-97818628D02*
X188759761Y-97866247D01*
X188759761Y-97866247D02*
X188807380Y-97961485D01*
X188807380Y-97961485D02*
X188807380Y-98104342D01*
X188807380Y-98104342D02*
X188759761Y-98199580D01*
X188759761Y-98199580D02*
X188712142Y-98247200D01*
X188712142Y-98247200D02*
X188616904Y-98294819D01*
X188616904Y-98294819D02*
X188235952Y-98294819D01*
X188235952Y-98294819D02*
X188235952Y-97294819D01*
X188235952Y-97294819D02*
X188569285Y-97294819D01*
X188569285Y-97294819D02*
X188664523Y-97342438D01*
X188664523Y-97342438D02*
X188712142Y-97390057D01*
X188712142Y-97390057D02*
X188759761Y-97485295D01*
X188759761Y-97485295D02*
X188759761Y-97580533D01*
X188759761Y-97580533D02*
X188712142Y-97675771D01*
X188712142Y-97675771D02*
X188664523Y-97723390D01*
X188664523Y-97723390D02*
X188569285Y-97771009D01*
X188569285Y-97771009D02*
X188235952Y-97771009D01*
X189093095Y-97294819D02*
X189664523Y-97294819D01*
X189378809Y-98294819D02*
X189378809Y-97294819D01*
X190521666Y-98294819D02*
X189950238Y-98294819D01*
X190235952Y-98294819D02*
X190235952Y-97294819D01*
X190235952Y-97294819D02*
X190140714Y-97437676D01*
X190140714Y-97437676D02*
X190045476Y-97532914D01*
X190045476Y-97532914D02*
X189950238Y-97580533D01*
X158283571Y-121654700D02*
X159426429Y-121654700D01*
X199578571Y-108064700D02*
X200721429Y-108064700D01*
X177988571Y-108064700D02*
X179131429Y-108064700D01*
X178560000Y-108636128D02*
X178560000Y-107493271D01*
X177988571Y-121654700D02*
X179131429Y-121654700D01*
X158283571Y-108064700D02*
X159426429Y-108064700D01*
X158855000Y-108636128D02*
X158855000Y-107493271D01*
X199578571Y-121654700D02*
X200721429Y-121654700D01*
X200150000Y-122226128D02*
X200150000Y-121083271D01*
D10*
X118672857Y-101642580D02*
X119149047Y-101642580D01*
X119149047Y-101642580D02*
X119149047Y-102642580D01*
X118387142Y-101690200D02*
X118244285Y-101642580D01*
X118244285Y-101642580D02*
X118006190Y-101642580D01*
X118006190Y-101642580D02*
X117910952Y-101690200D01*
X117910952Y-101690200D02*
X117863333Y-101737819D01*
X117863333Y-101737819D02*
X117815714Y-101833057D01*
X117815714Y-101833057D02*
X117815714Y-101928295D01*
X117815714Y-101928295D02*
X117863333Y-102023533D01*
X117863333Y-102023533D02*
X117910952Y-102071152D01*
X117910952Y-102071152D02*
X118006190Y-102118771D01*
X118006190Y-102118771D02*
X118196666Y-102166390D01*
X118196666Y-102166390D02*
X118291904Y-102214009D01*
X118291904Y-102214009D02*
X118339523Y-102261628D01*
X118339523Y-102261628D02*
X118387142Y-102356866D01*
X118387142Y-102356866D02*
X118387142Y-102452104D01*
X118387142Y-102452104D02*
X118339523Y-102547342D01*
X118339523Y-102547342D02*
X118291904Y-102594961D01*
X118291904Y-102594961D02*
X118196666Y-102642580D01*
X118196666Y-102642580D02*
X117958571Y-102642580D01*
X117958571Y-102642580D02*
X117815714Y-102594961D01*
X116863333Y-101642580D02*
X117434761Y-101642580D01*
X117149047Y-101642580D02*
X117149047Y-102642580D01*
X117149047Y-102642580D02*
X117244285Y-102499723D01*
X117244285Y-102499723D02*
X117339523Y-102404485D01*
X117339523Y-102404485D02*
X117434761Y-102356866D01*
D11*
X106358333Y-69234819D02*
X106025000Y-68758628D01*
X105786905Y-69234819D02*
X105786905Y-68234819D01*
X105786905Y-68234819D02*
X106167857Y-68234819D01*
X106167857Y-68234819D02*
X106263095Y-68282438D01*
X106263095Y-68282438D02*
X106310714Y-68330057D01*
X106310714Y-68330057D02*
X106358333Y-68425295D01*
X106358333Y-68425295D02*
X106358333Y-68568152D01*
X106358333Y-68568152D02*
X106310714Y-68663390D01*
X106310714Y-68663390D02*
X106263095Y-68711009D01*
X106263095Y-68711009D02*
X106167857Y-68758628D01*
X106167857Y-68758628D02*
X105786905Y-68758628D01*
X106691667Y-68234819D02*
X107310714Y-68234819D01*
X107310714Y-68234819D02*
X106977381Y-68615771D01*
X106977381Y-68615771D02*
X107120238Y-68615771D01*
X107120238Y-68615771D02*
X107215476Y-68663390D01*
X107215476Y-68663390D02*
X107263095Y-68711009D01*
X107263095Y-68711009D02*
X107310714Y-68806247D01*
X107310714Y-68806247D02*
X107310714Y-69044342D01*
X107310714Y-69044342D02*
X107263095Y-69139580D01*
X107263095Y-69139580D02*
X107215476Y-69187200D01*
X107215476Y-69187200D02*
X107120238Y-69234819D01*
X107120238Y-69234819D02*
X106834524Y-69234819D01*
X106834524Y-69234819D02*
X106739286Y-69187200D01*
X106739286Y-69187200D02*
X106691667Y-69139580D01*
X131913333Y-64574819D02*
X131580000Y-64098628D01*
X131341905Y-64574819D02*
X131341905Y-63574819D01*
X131341905Y-63574819D02*
X131722857Y-63574819D01*
X131722857Y-63574819D02*
X131818095Y-63622438D01*
X131818095Y-63622438D02*
X131865714Y-63670057D01*
X131865714Y-63670057D02*
X131913333Y-63765295D01*
X131913333Y-63765295D02*
X131913333Y-63908152D01*
X131913333Y-63908152D02*
X131865714Y-64003390D01*
X131865714Y-64003390D02*
X131818095Y-64051009D01*
X131818095Y-64051009D02*
X131722857Y-64098628D01*
X131722857Y-64098628D02*
X131341905Y-64098628D01*
X132294286Y-63670057D02*
X132341905Y-63622438D01*
X132341905Y-63622438D02*
X132437143Y-63574819D01*
X132437143Y-63574819D02*
X132675238Y-63574819D01*
X132675238Y-63574819D02*
X132770476Y-63622438D01*
X132770476Y-63622438D02*
X132818095Y-63670057D01*
X132818095Y-63670057D02*
X132865714Y-63765295D01*
X132865714Y-63765295D02*
X132865714Y-63860533D01*
X132865714Y-63860533D02*
X132818095Y-64003390D01*
X132818095Y-64003390D02*
X132246667Y-64574819D01*
X132246667Y-64574819D02*
X132865714Y-64574819D01*
X131318095Y-69514819D02*
X131318095Y-70324342D01*
X131318095Y-70324342D02*
X131365714Y-70419580D01*
X131365714Y-70419580D02*
X131413333Y-70467200D01*
X131413333Y-70467200D02*
X131508571Y-70514819D01*
X131508571Y-70514819D02*
X131699047Y-70514819D01*
X131699047Y-70514819D02*
X131794285Y-70467200D01*
X131794285Y-70467200D02*
X131841904Y-70419580D01*
X131841904Y-70419580D02*
X131889523Y-70324342D01*
X131889523Y-70324342D02*
X131889523Y-69514819D01*
X132889523Y-70514819D02*
X132318095Y-70514819D01*
X132603809Y-70514819D02*
X132603809Y-69514819D01*
X132603809Y-69514819D02*
X132508571Y-69657676D01*
X132508571Y-69657676D02*
X132413333Y-69752914D01*
X132413333Y-69752914D02*
X132318095Y-69800533D01*
X262447630Y-93384572D02*
X262595158Y-93354383D01*
X262595158Y-93354383D02*
X262801354Y-93235336D01*
X262801354Y-93235336D02*
X262860023Y-93146477D01*
X262860023Y-93146477D02*
X262877453Y-93081428D01*
X262877453Y-93081428D02*
X262871074Y-92975140D01*
X262871074Y-92975140D02*
X262823454Y-92892662D01*
X262823454Y-92892662D02*
X262734596Y-92833993D01*
X262734596Y-92833993D02*
X262669547Y-92816563D01*
X262669547Y-92816563D02*
X262563259Y-92822943D01*
X262563259Y-92822943D02*
X262374492Y-92876941D01*
X262374492Y-92876941D02*
X262268204Y-92883321D01*
X262268204Y-92883321D02*
X262203155Y-92865891D01*
X262203155Y-92865891D02*
X262114297Y-92807222D01*
X262114297Y-92807222D02*
X262066678Y-92724744D01*
X262066678Y-92724744D02*
X262060298Y-92618455D01*
X262060298Y-92618455D02*
X262077728Y-92553407D01*
X262077728Y-92553407D02*
X262136397Y-92464548D01*
X262136397Y-92464548D02*
X262342594Y-92345501D01*
X262342594Y-92345501D02*
X262490121Y-92315311D01*
X262754987Y-92107405D02*
X263461183Y-92854383D01*
X263461183Y-92854383D02*
X263268998Y-92140555D01*
X263268998Y-92140555D02*
X263791098Y-92663907D01*
X263791098Y-92663907D02*
X263497294Y-91678834D01*
X264780841Y-92092478D02*
X264285969Y-92378193D01*
X264533405Y-92235336D02*
X264033405Y-91369310D01*
X264033405Y-91369310D02*
X264022355Y-91540647D01*
X264022355Y-91540647D02*
X263987496Y-91670745D01*
X263987496Y-91670745D02*
X263928826Y-91759603D01*
X95869819Y-76398333D02*
X96584104Y-76398333D01*
X96584104Y-76398333D02*
X96726961Y-76445952D01*
X96726961Y-76445952D02*
X96822200Y-76541190D01*
X96822200Y-76541190D02*
X96869819Y-76684047D01*
X96869819Y-76684047D02*
X96869819Y-76779285D01*
X96869819Y-75922142D02*
X95869819Y-75922142D01*
X95869819Y-75922142D02*
X95869819Y-75541190D01*
X95869819Y-75541190D02*
X95917438Y-75445952D01*
X95917438Y-75445952D02*
X95965057Y-75398333D01*
X95965057Y-75398333D02*
X96060295Y-75350714D01*
X96060295Y-75350714D02*
X96203152Y-75350714D01*
X96203152Y-75350714D02*
X96298390Y-75398333D01*
X96298390Y-75398333D02*
X96346009Y-75445952D01*
X96346009Y-75445952D02*
X96393628Y-75541190D01*
X96393628Y-75541190D02*
X96393628Y-75922142D01*
X96869819Y-74398333D02*
X96869819Y-74969761D01*
X96869819Y-74684047D02*
X95869819Y-74684047D01*
X95869819Y-74684047D02*
X96012676Y-74779285D01*
X96012676Y-74779285D02*
X96107914Y-74874523D01*
X96107914Y-74874523D02*
X96155533Y-74969761D01*
X119213333Y-67274580D02*
X119165714Y-67322200D01*
X119165714Y-67322200D02*
X119022857Y-67369819D01*
X119022857Y-67369819D02*
X118927619Y-67369819D01*
X118927619Y-67369819D02*
X118784762Y-67322200D01*
X118784762Y-67322200D02*
X118689524Y-67226961D01*
X118689524Y-67226961D02*
X118641905Y-67131723D01*
X118641905Y-67131723D02*
X118594286Y-66941247D01*
X118594286Y-66941247D02*
X118594286Y-66798390D01*
X118594286Y-66798390D02*
X118641905Y-66607914D01*
X118641905Y-66607914D02*
X118689524Y-66512676D01*
X118689524Y-66512676D02*
X118784762Y-66417438D01*
X118784762Y-66417438D02*
X118927619Y-66369819D01*
X118927619Y-66369819D02*
X119022857Y-66369819D01*
X119022857Y-66369819D02*
X119165714Y-66417438D01*
X119165714Y-66417438D02*
X119213333Y-66465057D01*
X119594286Y-66465057D02*
X119641905Y-66417438D01*
X119641905Y-66417438D02*
X119737143Y-66369819D01*
X119737143Y-66369819D02*
X119975238Y-66369819D01*
X119975238Y-66369819D02*
X120070476Y-66417438D01*
X120070476Y-66417438D02*
X120118095Y-66465057D01*
X120118095Y-66465057D02*
X120165714Y-66560295D01*
X120165714Y-66560295D02*
X120165714Y-66655533D01*
X120165714Y-66655533D02*
X120118095Y-66798390D01*
X120118095Y-66798390D02*
X119546667Y-67369819D01*
X119546667Y-67369819D02*
X120165714Y-67369819D01*
X119213333Y-72354580D02*
X119165714Y-72402200D01*
X119165714Y-72402200D02*
X119022857Y-72449819D01*
X119022857Y-72449819D02*
X118927619Y-72449819D01*
X118927619Y-72449819D02*
X118784762Y-72402200D01*
X118784762Y-72402200D02*
X118689524Y-72306961D01*
X118689524Y-72306961D02*
X118641905Y-72211723D01*
X118641905Y-72211723D02*
X118594286Y-72021247D01*
X118594286Y-72021247D02*
X118594286Y-71878390D01*
X118594286Y-71878390D02*
X118641905Y-71687914D01*
X118641905Y-71687914D02*
X118689524Y-71592676D01*
X118689524Y-71592676D02*
X118784762Y-71497438D01*
X118784762Y-71497438D02*
X118927619Y-71449819D01*
X118927619Y-71449819D02*
X119022857Y-71449819D01*
X119022857Y-71449819D02*
X119165714Y-71497438D01*
X119165714Y-71497438D02*
X119213333Y-71545057D01*
X120165714Y-72449819D02*
X119594286Y-72449819D01*
X119880000Y-72449819D02*
X119880000Y-71449819D01*
X119880000Y-71449819D02*
X119784762Y-71592676D01*
X119784762Y-71592676D02*
X119689524Y-71687914D01*
X119689524Y-71687914D02*
X119594286Y-71735533D01*
D12*
%TO.C,BT1*%
X160255000Y-99240000D02*
X160255000Y-129940000D01*
X160255000Y-129940000D02*
X218455000Y-129940000D01*
X179830000Y-106680000D02*
X181100000Y-106680000D01*
X179830000Y-109220000D02*
X179830000Y-106680000D01*
X179830000Y-119000000D02*
X179830000Y-124080000D01*
X179830000Y-124080000D02*
X197610000Y-124080000D01*
X181100000Y-105410000D02*
X198880000Y-105410000D01*
X181100000Y-106680000D02*
X181100000Y-105410000D01*
X181100000Y-109220000D02*
X179830000Y-109220000D01*
X181100000Y-110490000D02*
X181100000Y-109220000D01*
X197610000Y-119000000D02*
X179830000Y-119000000D01*
X197610000Y-120270000D02*
X197610000Y-119000000D01*
X197610000Y-122810000D02*
X198880000Y-122810000D01*
X197610000Y-124080000D02*
X197610000Y-122810000D01*
X198880000Y-105410000D02*
X198880000Y-110490000D01*
X198880000Y-110490000D02*
X181100000Y-110490000D01*
X198880000Y-120270000D02*
X197610000Y-120270000D01*
X198880000Y-122810000D02*
X198880000Y-120270000D01*
X218455000Y-99240000D02*
X160255000Y-99240000D01*
X218455000Y-129940000D02*
X218455000Y-99240000D01*
D10*
%TO.C,LS1*%
X129530000Y-101600000D02*
G75*
G02*
X106530000Y-101600000I-11500000J0D01*
G01*
X106530000Y-101600000D02*
G75*
G02*
X129530000Y-101600000I11500000J0D01*
G01*
X133030000Y-101600000D02*
G75*
G02*
X103030000Y-101600000I-15000000J0D01*
G01*
X103030000Y-101600000D02*
G75*
G02*
X133030000Y-101600000I15000000J0D01*
G01*
D12*
%TO.C,R3*%
X100695000Y-71040000D02*
X105415000Y-71040000D01*
X100695000Y-72230000D02*
X100695000Y-71050000D01*
X100695000Y-75130000D02*
X100695000Y-74600000D01*
X100695000Y-77580000D02*
X100695000Y-76750000D01*
X100695000Y-80790000D02*
X100695000Y-79300000D01*
X100695000Y-80790000D02*
X105415000Y-80790000D01*
X109225000Y-71050000D02*
X112285000Y-71050000D01*
X109225000Y-80790000D02*
X112285000Y-80790000D01*
X112285000Y-80790000D02*
X112285000Y-71050000D01*
%TO.C,R2*%
X129210000Y-66040000D02*
X130160000Y-66040000D01*
X130160000Y-65120000D02*
X130160000Y-66960000D01*
X130160000Y-66960000D02*
X134000000Y-66960000D01*
X134000000Y-65120000D02*
X130160000Y-65120000D01*
X134000000Y-66960000D02*
X134000000Y-65120000D01*
X134950000Y-66040000D02*
X134000000Y-66040000D01*
%TO.C,U1*%
X129430000Y-71060000D02*
X129430000Y-81340000D01*
X129430000Y-81340000D02*
X134730000Y-81340000D01*
X131080000Y-71060000D02*
X129430000Y-71060000D01*
X134730000Y-71060000D02*
X133080000Y-71060000D01*
X134730000Y-81340000D02*
X134730000Y-71060000D01*
X133080000Y-71060000D02*
G75*
G02*
X131080000Y-71060000I-1000000J0D01*
G01*
%TO.C,SW1*%
X267426417Y-87961415D02*
X266171416Y-85787692D01*
X267426417Y-87961415D02*
X256843585Y-94071415D01*
X265021416Y-83795834D02*
X263721416Y-81544167D01*
X262571416Y-79552310D02*
X261316416Y-77378586D01*
X256843585Y-94071415D02*
X255588585Y-91897692D01*
X254438584Y-89905834D02*
X253138584Y-87654167D01*
X251988585Y-85662308D02*
X250733586Y-83488585D01*
X250733586Y-83488585D02*
X261316416Y-77378586D01*
X262630001Y-85725000D02*
G75*
G02*
X255530001Y-85725000I-3550000J0D01*
G01*
X255530001Y-85725000D02*
G75*
G02*
X262630001Y-85725000I3550000J0D01*
G01*
%TO.C,R1*%
X108280000Y-66040000D02*
X107330000Y-66040000D01*
X107330000Y-66960000D02*
X107330000Y-65120000D01*
X107330000Y-65120000D02*
X103490000Y-65120000D01*
X103490000Y-66960000D02*
X107330000Y-66960000D01*
X103490000Y-65120000D02*
X103490000Y-66960000D01*
X102540000Y-66040000D02*
X103490000Y-66040000D01*
%TO.C,JP1*%
X94315000Y-73515000D02*
X94915000Y-73515000D01*
X93115000Y-74065000D02*
X93115000Y-74665000D01*
X95615000Y-74165000D02*
X95615000Y-76965000D01*
X93415000Y-74365000D02*
X93115000Y-74065000D01*
X93415000Y-74365000D02*
X93115000Y-74665000D01*
X93615000Y-76965000D02*
X93615000Y-74165000D01*
X94915000Y-77615000D02*
X94315000Y-77615000D01*
X94915000Y-73515000D02*
G75*
G02*
X95615000Y-74215000I1J-699999D01*
G01*
X93615000Y-74215000D02*
G75*
G02*
X94315000Y-73515000I699999J1D01*
G01*
X95615000Y-76915000D02*
G75*
G02*
X94915000Y-77615000I-700000J0D01*
G01*
X94315000Y-77615000D02*
G75*
G02*
X93615000Y-76915000I0J700000D01*
G01*
%TO.C,C2*%
X117560000Y-68045000D02*
X117560000Y-68290000D01*
X117560000Y-68045000D02*
X121200000Y-68045000D01*
X117560000Y-70140000D02*
X117560000Y-70385000D01*
X117560000Y-70385000D02*
X121200000Y-70385000D01*
X121200000Y-68045000D02*
X121200000Y-68290000D01*
X121200000Y-70140000D02*
X121200000Y-70385000D01*
%TO.C,C1*%
X117560000Y-73125000D02*
X117560000Y-73370000D01*
X117560000Y-73125000D02*
X121200000Y-73125000D01*
X117560000Y-75220000D02*
X117560000Y-75465000D01*
X117560000Y-75465000D02*
X121200000Y-75465000D01*
X121200000Y-73125000D02*
X121200000Y-73370000D01*
X121200000Y-75220000D02*
X121200000Y-75465000D01*
%TD*%
%LPC*%
D13*
%TO.C,BT1*%
X189355000Y-114580000D03*
D14*
X163195000Y-107950000D03*
D15*
X163195000Y-121540000D03*
%TD*%
D16*
%TO.C,LS1*%
X125530000Y-101600000D03*
X123030000Y-101600000D03*
X113030000Y-101600000D03*
X110530000Y-101600000D03*
%TD*%
D17*
%TO.C,R3*%
X107315000Y-71120000D03*
X107315000Y-80720000D03*
D18*
X99815000Y-73420000D03*
D19*
X99815000Y-75920000D03*
X99815000Y-78420000D03*
%TD*%
D20*
%TO.C,R2*%
X128270000Y-66040000D03*
D21*
X135890000Y-66040000D03*
%TD*%
D22*
%TO.C,U1*%
X128270000Y-72390000D03*
D23*
X128270000Y-74930000D03*
X128270000Y-77470000D03*
X128270000Y-80010000D03*
X135890000Y-80010000D03*
X135890000Y-77470000D03*
X135890000Y-74930000D03*
X135890000Y-72390000D03*
%TD*%
D24*
%TO.C,SW1*%
X265742659Y-84765064D03*
X254917341Y-91015064D03*
X263242659Y-80434937D03*
X252417341Y-86684937D03*
%TD*%
D20*
%TO.C,R1*%
X109220000Y-66040000D03*
D21*
X101600000Y-66040000D03*
%TD*%
D25*
%TO.C,JP1*%
X94615000Y-74265000D03*
D26*
X94615000Y-75565000D03*
D27*
X94615000Y-76865000D03*
%TD*%
D28*
%TO.C,C2*%
X118130000Y-69215000D03*
X120630000Y-69215000D03*
%TD*%
%TO.C,C1*%
X118130000Y-74295000D03*
X120630000Y-74295000D03*
%TD*%
%LPD*%
M02*
