M48
; DRILL file {KiCad 8.0.5-dirty} date 2025-03-15T19:07:53-0400
; FORMAT={-:-/ absolute / inch / decimal}
; #@! TF.CreationDate,2025-03-15T19:07:53-04:00
; #@! TF.GenerationSoftware,Kicad,Pcbnew,8.0.5-dirty
; #@! TF.FileFunction,Plated,1,2,PTH
FMAT,2
INCH
; #@! TA.AperFunction,Plated,PTH,ComponentDrill
T1C0.0276
; #@! TA.AperFunction,Plated,PTH,ComponentDrill
T2C0.0315
; #@! TA.AperFunction,Plated,PTH,ComponentDrill
T3C0.0394
; #@! TA.AperFunction,Plated,PTH,ComponentDrill
T4C0.0433
; #@! TA.AperFunction,Plated,PTH,ComponentDrill
T5C0.0461
; #@! TA.AperFunction,Plated,PTH,ComponentDrill
T6C0.0512
%
G90
G05
T1
X4.0Y-2.6
X4.3Y-2.6
X5.05Y-2.6
X5.35Y-2.6
T2
X4.6508Y-2.725
X4.6508Y-2.925
X4.7492Y-2.725
X4.7492Y-2.925
X5.05Y-2.85
X5.05Y-2.95
X5.05Y-3.05
X5.05Y-3.15
X5.35Y-2.85
X5.35Y-2.95
X5.35Y-3.05
X5.35Y-3.15
T3
X3.9297Y-2.8906
X3.9297Y-2.989
X3.9297Y-3.0874
X4.3516Y-4.0
X4.45Y-4.0
X4.8437Y-4.0
X4.9421Y-4.0
T5
X6.425Y-4.25
X6.425Y-4.785
T6
X9.9377Y-3.4128
X10.0361Y-3.5833
X10.3639Y-3.1667
X10.4623Y-3.3372
T4
G00X4.2112Y-2.8
M15
G01X4.2388Y-2.8
M16
G05
G00X4.2112Y-3.178
M15
G01X4.2388Y-3.178
M16
G05
M30
