%TF.GenerationSoftware,KiCad,Pcbnew,8.0.5-dirty*%
%TF.CreationDate,2025-03-16T13:30:27-04:00*%
%TF.ProjectId,var-tone-beeper,7661722d-746f-46e6-952d-626565706572,rev?*%
%TF.SameCoordinates,Original*%
%TF.FileFunction,Copper,L2,Bot*%
%TF.FilePolarity,Positive*%
%FSLAX46Y46*%
G04 Gerber Fmt 4.6, Leading zero omitted, Abs format (unit mm)*
G04 Created by KiCad (PCBNEW 8.0.5-dirty) date 2025-03-16 13:30:27*
%MOMM*%
%LPD*%
G01*
G04 APERTURE LIST*
G04 Aperture macros list*
%AMHorizOval*
0 Thick line with rounded ends*
0 $1 width*
0 $2 $3 position (X,Y) of the first rounded end (center of the circle)*
0 $4 $5 position (X,Y) of the second rounded end (center of the circle)*
0 Add line between two ends*
20,1,$1,$2,$3,$4,$5,0*
0 Add two circle primitives to create the rounded ends*
1,1,$1,$2,$3*
1,1,$1,$4,$5*%
%AMFreePoly0*
4,1,19,0.550000,-0.750000,0.000000,-0.750000,0.000000,-0.744911,-0.071157,-0.744911,-0.207708,-0.704816,-0.327430,-0.627875,-0.420627,-0.520320,-0.479746,-0.390866,-0.500000,-0.250000,-0.500000,0.250000,-0.479746,0.390866,-0.420627,0.520320,-0.327430,0.627875,-0.207708,0.704816,-0.071157,0.744911,0.000000,0.744911,0.000000,0.750000,0.550000,0.750000,0.550000,-0.750000,0.550000,-0.750000,
$1*%
%AMFreePoly1*
4,1,19,0.000000,0.744911,0.071157,0.744911,0.207708,0.704816,0.327430,0.627875,0.420627,0.520320,0.479746,0.390866,0.500000,0.250000,0.500000,-0.250000,0.479746,-0.390866,0.420627,-0.520320,0.327430,-0.627875,0.207708,-0.704816,0.071157,-0.744911,0.000000,-0.744911,0.000000,-0.750000,-0.550000,-0.750000,-0.550000,0.750000,0.000000,0.750000,0.000000,0.744911,0.000000,0.744911,
$1*%
G04 Aperture macros list end*
%TA.AperFunction,EtchedComponent*%
%ADD10C,0.000000*%
%TD*%
%TA.AperFunction,SMDPad,CuDef*%
%ADD11FreePoly0,270.000000*%
%TD*%
%TA.AperFunction,SMDPad,CuDef*%
%ADD12R,1.500000X1.000000*%
%TD*%
%TA.AperFunction,SMDPad,CuDef*%
%ADD13FreePoly1,270.000000*%
%TD*%
%TA.AperFunction,ComponentPad*%
%ADD14R,3.000000X3.000000*%
%TD*%
%TA.AperFunction,ComponentPad*%
%ADD15C,3.000000*%
%TD*%
%TA.AperFunction,ComponentPad*%
%ADD16HorizOval,1.900000X-0.562917X-0.325000X0.562917X0.325000X0*%
%TD*%
%TA.AperFunction,ComponentPad*%
%ADD17C,2.000000*%
%TD*%
%TA.AperFunction,ComponentPad*%
%ADD18O,3.240000X2.720000*%
%TD*%
%TA.AperFunction,ComponentPad*%
%ADD19R,1.800000X1.800000*%
%TD*%
%TA.AperFunction,ComponentPad*%
%ADD20C,1.800000*%
%TD*%
%TA.AperFunction,ComponentPad*%
%ADD21C,1.400000*%
%TD*%
%TA.AperFunction,ComponentPad*%
%ADD22O,1.400000X1.400000*%
%TD*%
%TA.AperFunction,ComponentPad*%
%ADD23R,1.600000X1.600000*%
%TD*%
%TA.AperFunction,ComponentPad*%
%ADD24O,1.600000X1.600000*%
%TD*%
%TA.AperFunction,ComponentPad*%
%ADD25C,1.600000*%
%TD*%
%TA.AperFunction,Conductor*%
%ADD26C,0.500000*%
%TD*%
G04 APERTURE END LIST*
D10*
%TA.AperFunction,EtchedComponent*%
%TO.C,JP1*%
G36*
X94900000Y-75600000D02*
G01*
X94300000Y-75600000D01*
X94300000Y-75100000D01*
X94900000Y-75100000D01*
X94900000Y-75600000D01*
G37*
%TD.AperFunction*%
%TD*%
D11*
%TO.P,JP1,1,A*%
%TO.N,Net-(JP1-A)*%
X94600000Y-74700000D03*
D12*
%TO.P,JP1,2,C*%
%TO.N,Net-(JP1-C)*%
X94600000Y-76000000D03*
D13*
%TO.P,JP1,3,B*%
%TO.N,Net-(JP1-B)*%
X94600000Y-77300000D03*
%TD*%
D14*
%TO.P,BT1,1,+*%
%TO.N,Net-(BT1-+)*%
X142800000Y-100700000D03*
D15*
%TO.P,BT1,2,-*%
%TO.N,Net-(BT1--)*%
X142800000Y-112400000D03*
%TD*%
D16*
%TO.P,SW1,1,1*%
%TO.N,Net-(BT1-+)*%
X201625318Y-80980127D03*
X190800000Y-87230127D03*
%TO.P,SW1,2,2*%
%TO.N,Net-(U1-R)*%
X199125318Y-76650000D03*
X188300000Y-82900000D03*
%TD*%
D17*
%TO.P,LS1,1,1*%
%TO.N,Net-(U1-Q)*%
X124000000Y-94500000D03*
%TO.P,LS1,2,2*%
%TO.N,Net-(BT1--)*%
X114000000Y-94500000D03*
%TD*%
D18*
%TO.P,R3,*%
%TO.N,*%
X107315000Y-71120000D03*
X107315000Y-80720000D03*
D19*
%TO.P,R3,1,1*%
%TO.N,Net-(JP1-A)*%
X99815000Y-73420000D03*
D20*
%TO.P,R3,2,2*%
%TO.N,Net-(R1-Pad2)*%
X99815000Y-75920000D03*
%TO.P,R3,3,3*%
%TO.N,Net-(JP1-B)*%
X99815000Y-78420000D03*
%TD*%
D21*
%TO.P,R2,1*%
%TO.N,Net-(U1-R)*%
X135910000Y-66040000D03*
D22*
%TO.P,R2,2*%
%TO.N,Net-(U1-DIS)*%
X128290000Y-66040000D03*
%TD*%
D23*
%TO.P,U1,1,GND*%
%TO.N,Net-(BT1--)*%
X128270000Y-72390000D03*
D24*
%TO.P,U1,2,TR*%
%TO.N,Net-(JP1-C)*%
X128270000Y-74930000D03*
%TO.P,U1,3,Q*%
%TO.N,Net-(U1-Q)*%
X128270000Y-77470000D03*
%TO.P,U1,4,R*%
%TO.N,Net-(U1-R)*%
X128270000Y-80010000D03*
%TO.P,U1,5,CV*%
%TO.N,unconnected-(U1-CV-Pad5)*%
X135890000Y-80010000D03*
%TO.P,U1,6,THR*%
%TO.N,Net-(JP1-C)*%
X135890000Y-77470000D03*
%TO.P,U1,7,DIS*%
%TO.N,Net-(U1-DIS)*%
X135890000Y-74930000D03*
%TO.P,U1,8,VCC*%
%TO.N,Net-(U1-R)*%
X135890000Y-72390000D03*
%TD*%
D21*
%TO.P,R1,1*%
%TO.N,Net-(U1-DIS)*%
X109220000Y-66040000D03*
D22*
%TO.P,R1,2*%
%TO.N,Net-(R1-Pad2)*%
X101600000Y-66040000D03*
%TD*%
D25*
%TO.P,C2,1*%
%TO.N,Net-(JP1-C)*%
X118150000Y-68300000D03*
%TO.P,C2,2*%
%TO.N,Net-(BT1--)*%
X120650000Y-68300000D03*
%TD*%
%TO.P,C1,1*%
%TO.N,Net-(JP1-C)*%
X118150000Y-73700000D03*
%TO.P,C1,2*%
%TO.N,Net-(BT1--)*%
X120650000Y-73700000D03*
%TD*%
D26*
%TO.N,Net-(BT1-+)*%
X190800000Y-87230127D02*
X194500000Y-85300000D01*
X194500000Y-85300000D02*
X201625318Y-80980127D01*
%TO.N,Net-(U1-R)*%
X188300000Y-82900000D02*
X192400000Y-80600000D01*
X192400000Y-80600000D02*
X199125318Y-76650000D01*
%TO.N,Net-(BT1-+)*%
X142800000Y-100700000D02*
X149200000Y-94300000D01*
X149200000Y-94300000D02*
X183500000Y-94300000D01*
X183500000Y-94300000D02*
X190569873Y-87230127D01*
X190569873Y-87230127D02*
X190800000Y-87230127D01*
%TO.N,Net-(U1-R)*%
X128270000Y-87670000D02*
X131500000Y-90900000D01*
X128270000Y-80010000D02*
X128270000Y-87670000D01*
X180300000Y-90900000D02*
X188300000Y-82900000D01*
X131500000Y-90900000D02*
X180300000Y-90900000D01*
%TO.N,Net-(BT1--)*%
X142800000Y-112400000D02*
X142800000Y-108000000D01*
X142800000Y-108000000D02*
X140400000Y-105600000D01*
X125100000Y-105600000D02*
X140400000Y-105600000D01*
X114000000Y-94500000D02*
X125100000Y-105600000D01*
X120000000Y-77500000D02*
X115600000Y-77500000D01*
X120650000Y-73700000D02*
X120650000Y-76850000D01*
X120650000Y-76850000D02*
X120000000Y-77500000D01*
X114000000Y-79100000D02*
X114000000Y-94500000D01*
X115600000Y-77500000D02*
X114000000Y-79100000D01*
%TO.N,Net-(JP1-C)*%
X118150000Y-68300000D02*
X118150000Y-73700000D01*
%TO.N,Net-(BT1--)*%
X120650000Y-73700000D02*
X120650000Y-72400000D01*
X120650000Y-72400000D02*
X120650000Y-68300000D01*
X128270000Y-72390000D02*
X120660000Y-72390000D01*
X120660000Y-72390000D02*
X120650000Y-72400000D01*
%TO.N,Net-(JP1-C)*%
X118150000Y-68300000D02*
X94200000Y-68300000D01*
X93395000Y-69105000D02*
X94200000Y-68300000D01*
X93395000Y-75438468D02*
X93395000Y-69105000D01*
X93956532Y-76000000D02*
X93395000Y-75438468D01*
X94600000Y-76000000D02*
X93956532Y-76000000D01*
%TO.N,Net-(U1-Q)*%
X125230000Y-77470000D02*
X124100000Y-78600000D01*
X128270000Y-77470000D02*
X125230000Y-77470000D01*
X124000000Y-78600000D02*
X124000000Y-79200000D01*
X124000000Y-79300000D02*
X124000000Y-94500000D01*
%TO.N,Net-(U1-R)*%
X132300000Y-79000000D02*
X131200000Y-80100000D01*
X135890000Y-72390000D02*
X133110000Y-72390000D01*
X132300000Y-73200000D02*
X132300000Y-79000000D01*
X133110000Y-72390000D02*
X132300000Y-73200000D01*
X131200000Y-80100000D02*
X131110000Y-80010000D01*
X131110000Y-80010000D02*
X128270000Y-80010000D01*
X135910000Y-66040000D02*
X135910000Y-72370000D01*
X135910000Y-72370000D02*
X135890000Y-72390000D01*
%TO.N,Net-(U1-DIS)*%
X109220000Y-66040000D02*
X128290000Y-66040000D01*
%TO.N,Net-(JP1-B)*%
X99815000Y-78420000D02*
X95720000Y-78420000D01*
X95720000Y-78420000D02*
X94600000Y-77300000D01*
%TO.N,Net-(JP1-A)*%
X99815000Y-73420000D02*
X95880000Y-73420000D01*
X95880000Y-73420000D02*
X94600000Y-74700000D01*
%TD*%
M02*
