%TF.GenerationSoftware,KiCad,Pcbnew,8.0.5-dirty*%
%TF.CreationDate,2025-03-15T19:07:53-04:00*%
%TF.ProjectId,var-tone-beeper,7661722d-746f-46e6-952d-626565706572,rev?*%
%TF.SameCoordinates,Original*%
%TF.FileFunction,Copper,L1,Top*%
%TF.FilePolarity,Positive*%
%FSLAX46Y46*%
G04 Gerber Fmt 4.6, Leading zero omitted, Abs format (unit mm)*
G04 Created by KiCad (PCBNEW 8.0.5-dirty) date 2025-03-15 19:07:53*
%MOMM*%
%LPD*%
G01*
G04 APERTURE LIST*
G04 Aperture macros list*
%AMHorizOval*
0 Thick line with rounded ends*
0 $1 width*
0 $2 $3 position (X,Y) of the first rounded end (center of the circle)*
0 $4 $5 position (X,Y) of the second rounded end (center of the circle)*
0 Add line between two ends*
20,1,$1,$2,$3,$4,$5,0*
0 Add two circle primitives to create the rounded ends*
1,1,$1,$2,$3*
1,1,$1,$4,$5*%
%AMFreePoly0*
4,1,19,0.550000,-0.750000,0.000000,-0.750000,0.000000,-0.744911,-0.071157,-0.744911,-0.207708,-0.704816,-0.327430,-0.627875,-0.420627,-0.520320,-0.479746,-0.390866,-0.500000,-0.250000,-0.500000,0.250000,-0.479746,0.390866,-0.420627,0.520320,-0.327430,0.627875,-0.207708,0.704816,-0.071157,0.744911,0.000000,0.744911,0.000000,0.750000,0.550000,0.750000,0.550000,-0.750000,0.550000,-0.750000,
$1*%
%AMFreePoly1*
4,1,19,0.000000,0.744911,0.071157,0.744911,0.207708,0.704816,0.327430,0.627875,0.420627,0.520320,0.479746,0.390866,0.500000,0.250000,0.500000,-0.250000,0.479746,-0.390866,0.420627,-0.520320,0.327430,-0.627875,0.207708,-0.704816,0.071157,-0.744911,0.000000,-0.744911,0.000000,-0.750000,-0.550000,-0.750000,-0.550000,0.750000,0.000000,0.750000,0.000000,0.744911,0.000000,0.744911,
$1*%
G04 Aperture macros list end*
%TA.AperFunction,EtchedComponent*%
%ADD10C,0.000000*%
%TD*%
%TA.AperFunction,ComponentPad*%
%ADD11R,2.170000X2.170000*%
%TD*%
%TA.AperFunction,ComponentPad*%
%ADD12C,2.170000*%
%TD*%
%TA.AperFunction,ComponentPad*%
%ADD13C,2.000000*%
%TD*%
%TA.AperFunction,ComponentPad*%
%ADD14O,3.240000X2.720000*%
%TD*%
%TA.AperFunction,ComponentPad*%
%ADD15R,1.800000X1.800000*%
%TD*%
%TA.AperFunction,ComponentPad*%
%ADD16C,1.800000*%
%TD*%
%TA.AperFunction,ComponentPad*%
%ADD17C,1.400000*%
%TD*%
%TA.AperFunction,ComponentPad*%
%ADD18O,1.400000X1.400000*%
%TD*%
%TA.AperFunction,ComponentPad*%
%ADD19R,1.600000X1.600000*%
%TD*%
%TA.AperFunction,ComponentPad*%
%ADD20O,1.600000X1.600000*%
%TD*%
%TA.AperFunction,ComponentPad*%
%ADD21HorizOval,1.900000X-0.562917X-0.325000X0.562917X0.325000X0*%
%TD*%
%TA.AperFunction,SMDPad,CuDef*%
%ADD22FreePoly0,270.000000*%
%TD*%
%TA.AperFunction,SMDPad,CuDef*%
%ADD23R,1.500000X1.000000*%
%TD*%
%TA.AperFunction,SMDPad,CuDef*%
%ADD24FreePoly1,270.000000*%
%TD*%
%TA.AperFunction,ComponentPad*%
%ADD25C,1.600000*%
%TD*%
%TA.AperFunction,Conductor*%
%ADD26C,1.000000*%
%TD*%
G04 APERTURE END LIST*
D10*
%TA.AperFunction,EtchedComponent*%
%TO.C,JP1*%
G36*
X95215000Y-75165000D02*
G01*
X94815000Y-75165000D01*
X94815000Y-74665000D01*
X95215000Y-74665000D01*
X95215000Y-75165000D01*
G37*
%TD.AperFunction*%
%TA.AperFunction,EtchedComponent*%
G36*
X94415000Y-75165000D02*
G01*
X94015000Y-75165000D01*
X94015000Y-74665000D01*
X94415000Y-74665000D01*
X94415000Y-75165000D01*
G37*
%TD.AperFunction*%
%TD*%
D11*
%TO.P,BT1,1,+*%
%TO.N,Net-(BT1-+)*%
X163195000Y-107950000D03*
D12*
%TO.P,BT1,2,-*%
%TO.N,Net-(BT1--)*%
X163195000Y-121540000D03*
%TD*%
D13*
%TO.P,LS1,1,1*%
%TO.N,Net-(U1-Q)*%
X125530000Y-101600000D03*
X123030000Y-101600000D03*
%TO.P,LS1,2,2*%
%TO.N,Net-(BT1--)*%
X113030000Y-101600000D03*
X110530000Y-101600000D03*
%TD*%
D14*
%TO.P,R3,*%
%TO.N,*%
X107315000Y-71120000D03*
X107315000Y-80720000D03*
D15*
%TO.P,R3,1,1*%
%TO.N,Net-(JP1-A)*%
X99815000Y-73420000D03*
D16*
%TO.P,R3,2,2*%
%TO.N,Net-(R1-Pad2)*%
X99815000Y-75920000D03*
%TO.P,R3,3,3*%
%TO.N,Net-(JP1-B)*%
X99815000Y-78420000D03*
%TD*%
D17*
%TO.P,R2,1*%
%TO.N,Net-(JP1-C)*%
X128270000Y-66040000D03*
D18*
%TO.P,R2,2*%
%TO.N,Net-(U1-DIS)*%
X135890000Y-66040000D03*
%TD*%
D19*
%TO.P,U1,1,GND*%
%TO.N,Net-(BT1--)*%
X128270000Y-72390000D03*
D20*
%TO.P,U1,2,TR*%
%TO.N,Net-(U1-THR)*%
X128270000Y-74930000D03*
%TO.P,U1,3,Q*%
%TO.N,Net-(U1-Q)*%
X128270000Y-77470000D03*
%TO.P,U1,4,R*%
%TO.N,Net-(JP1-C)*%
X128270000Y-80010000D03*
%TO.P,U1,5,CV*%
%TO.N,unconnected-(U1-CV-Pad5)*%
X135890000Y-80010000D03*
%TO.P,U1,6,THR*%
%TO.N,Net-(U1-THR)*%
X135890000Y-77470000D03*
%TO.P,U1,7,DIS*%
%TO.N,Net-(U1-DIS)*%
X135890000Y-74930000D03*
%TO.P,U1,8,VCC*%
%TO.N,Net-(JP1-C)*%
X135890000Y-72390000D03*
%TD*%
D21*
%TO.P,SW1,1,1*%
%TO.N,Net-(BT1-+)*%
X265742659Y-84765064D03*
X254917341Y-91015064D03*
%TO.P,SW1,2,2*%
%TO.N,Net-(JP1-C)*%
X263242659Y-80434937D03*
X252417341Y-86684937D03*
%TD*%
D17*
%TO.P,R1,1*%
%TO.N,Net-(U1-DIS)*%
X109220000Y-66040000D03*
D18*
%TO.P,R1,2*%
%TO.N,Net-(R1-Pad2)*%
X101600000Y-66040000D03*
%TD*%
D22*
%TO.P,JP1,1,A*%
%TO.N,Net-(JP1-A)*%
X94615000Y-74265000D03*
D23*
%TO.P,JP1,2,C*%
%TO.N,Net-(JP1-C)*%
X94615000Y-75565000D03*
D24*
%TO.P,JP1,3,B*%
%TO.N,Net-(JP1-B)*%
X94615000Y-76865000D03*
%TD*%
D25*
%TO.P,C2,1*%
%TO.N,Net-(JP1-C)*%
X118130000Y-69215000D03*
%TO.P,C2,2*%
%TO.N,Net-(BT1--)*%
X120630000Y-69215000D03*
%TD*%
%TO.P,C1,1*%
%TO.N,Net-(JP1-C)*%
X118130000Y-74295000D03*
%TO.P,C1,2*%
%TO.N,Net-(BT1--)*%
X120630000Y-74295000D03*
%TD*%
D26*
%TO.N,Net-(JP1-C)*%
X232410000Y-102235000D02*
X146050000Y-102235000D01*
X252417341Y-86684937D02*
X247960063Y-86684937D01*
X247960063Y-86684937D02*
X232410000Y-102235000D01*
%TO.N,Net-(BT1-+)*%
X249979936Y-91015064D02*
X233045000Y-107950000D01*
X254917341Y-91015064D02*
X249979936Y-91015064D01*
X233045000Y-107950000D02*
X163195000Y-107950000D01*
X265742659Y-84765064D02*
X261167341Y-84765064D01*
X261167341Y-84765064D02*
X254917341Y-91015064D01*
%TD*%
M02*
