%TF.GenerationSoftware,KiCad,Pcbnew,8.0.5-dirty*%
%TF.CreationDate,2025-03-16T13:30:27-04:00*%
%TF.ProjectId,var-tone-beeper,7661722d-746f-46e6-952d-626565706572,rev?*%
%TF.SameCoordinates,Original*%
%TF.FileFunction,Legend,Bot*%
%TF.FilePolarity,Positive*%
%FSLAX46Y46*%
G04 Gerber Fmt 4.6, Leading zero omitted, Abs format (unit mm)*
G04 Created by KiCad (PCBNEW 8.0.5-dirty) date 2025-03-16 13:30:27*
%MOMM*%
%LPD*%
G01*
G04 APERTURE LIST*
G04 Aperture macros list*
%AMHorizOval*
0 Thick line with rounded ends*
0 $1 width*
0 $2 $3 position (X,Y) of the first rounded end (center of the circle)*
0 $4 $5 position (X,Y) of the second rounded end (center of the circle)*
0 Add line between two ends*
20,1,$1,$2,$3,$4,$5,0*
0 Add two circle primitives to create the rounded ends*
1,1,$1,$2,$3*
1,1,$1,$4,$5*%
%AMFreePoly0*
4,1,19,0.550000,-0.750000,0.000000,-0.750000,0.000000,-0.744911,-0.071157,-0.744911,-0.207708,-0.704816,-0.327430,-0.627875,-0.420627,-0.520320,-0.479746,-0.390866,-0.500000,-0.250000,-0.500000,0.250000,-0.479746,0.390866,-0.420627,0.520320,-0.327430,0.627875,-0.207708,0.704816,-0.071157,0.744911,0.000000,0.744911,0.000000,0.750000,0.550000,0.750000,0.550000,-0.750000,0.550000,-0.750000,
$1*%
%AMFreePoly1*
4,1,19,0.000000,0.744911,0.071157,0.744911,0.207708,0.704816,0.327430,0.627875,0.420627,0.520320,0.479746,0.390866,0.500000,0.250000,0.500000,-0.250000,0.479746,-0.390866,0.420627,-0.520320,0.327430,-0.627875,0.207708,-0.704816,0.071157,-0.744911,0.000000,-0.744911,0.000000,-0.750000,-0.550000,-0.750000,-0.550000,0.750000,0.000000,0.750000,0.000000,0.744911,0.000000,0.744911,
$1*%
G04 Aperture macros list end*
%ADD10C,0.100000*%
%ADD11C,0.150000*%
%ADD12C,0.120000*%
%ADD13C,0.000000*%
%ADD14FreePoly0,270.000000*%
%ADD15R,1.500000X1.000000*%
%ADD16FreePoly1,270.000000*%
%ADD17C,3.450000*%
%ADD18R,3.000000X3.000000*%
%ADD19C,3.000000*%
%ADD20HorizOval,1.900000X-0.562917X-0.325000X0.562917X0.325000X0*%
%ADD21C,2.000000*%
%ADD22O,3.240000X2.720000*%
%ADD23R,1.800000X1.800000*%
%ADD24C,1.800000*%
%ADD25C,1.400000*%
%ADD26O,1.400000X1.400000*%
%ADD27R,1.600000X1.600000*%
%ADD28O,1.600000X1.600000*%
%ADD29C,1.600000*%
G04 APERTURE END LIST*
D10*
X162891353Y-106775920D02*
X162653258Y-107442587D01*
X162653258Y-107442587D02*
X162415163Y-106775920D01*
X161605639Y-107442587D02*
X161605639Y-106918777D01*
X161605639Y-106918777D02*
X161653258Y-106823539D01*
X161653258Y-106823539D02*
X161748496Y-106775920D01*
X161748496Y-106775920D02*
X161938972Y-106775920D01*
X161938972Y-106775920D02*
X162034210Y-106823539D01*
X161605639Y-107394968D02*
X161700877Y-107442587D01*
X161700877Y-107442587D02*
X161938972Y-107442587D01*
X161938972Y-107442587D02*
X162034210Y-107394968D01*
X162034210Y-107394968D02*
X162081829Y-107299729D01*
X162081829Y-107299729D02*
X162081829Y-107204491D01*
X162081829Y-107204491D02*
X162034210Y-107109253D01*
X162034210Y-107109253D02*
X161938972Y-107061634D01*
X161938972Y-107061634D02*
X161700877Y-107061634D01*
X161700877Y-107061634D02*
X161605639Y-107014015D01*
X161129448Y-107442587D02*
X161129448Y-106775920D01*
X161129448Y-106966396D02*
X161081829Y-106871158D01*
X161081829Y-106871158D02*
X161034210Y-106823539D01*
X161034210Y-106823539D02*
X160938972Y-106775920D01*
X160938972Y-106775920D02*
X160843734Y-106775920D01*
X160510400Y-107061634D02*
X159748496Y-107061634D01*
X159415162Y-106775920D02*
X159034210Y-106775920D01*
X159272305Y-106442587D02*
X159272305Y-107299729D01*
X159272305Y-107299729D02*
X159224686Y-107394968D01*
X159224686Y-107394968D02*
X159129448Y-107442587D01*
X159129448Y-107442587D02*
X159034210Y-107442587D01*
X158558019Y-107442587D02*
X158653257Y-107394968D01*
X158653257Y-107394968D02*
X158700876Y-107347348D01*
X158700876Y-107347348D02*
X158748495Y-107252110D01*
X158748495Y-107252110D02*
X158748495Y-106966396D01*
X158748495Y-106966396D02*
X158700876Y-106871158D01*
X158700876Y-106871158D02*
X158653257Y-106823539D01*
X158653257Y-106823539D02*
X158558019Y-106775920D01*
X158558019Y-106775920D02*
X158415162Y-106775920D01*
X158415162Y-106775920D02*
X158319924Y-106823539D01*
X158319924Y-106823539D02*
X158272305Y-106871158D01*
X158272305Y-106871158D02*
X158224686Y-106966396D01*
X158224686Y-106966396D02*
X158224686Y-107252110D01*
X158224686Y-107252110D02*
X158272305Y-107347348D01*
X158272305Y-107347348D02*
X158319924Y-107394968D01*
X158319924Y-107394968D02*
X158415162Y-107442587D01*
X158415162Y-107442587D02*
X158558019Y-107442587D01*
X157796114Y-106775920D02*
X157796114Y-107442587D01*
X157796114Y-106871158D02*
X157748495Y-106823539D01*
X157748495Y-106823539D02*
X157653257Y-106775920D01*
X157653257Y-106775920D02*
X157510400Y-106775920D01*
X157510400Y-106775920D02*
X157415162Y-106823539D01*
X157415162Y-106823539D02*
X157367543Y-106918777D01*
X157367543Y-106918777D02*
X157367543Y-107442587D01*
X156510400Y-107394968D02*
X156605638Y-107442587D01*
X156605638Y-107442587D02*
X156796114Y-107442587D01*
X156796114Y-107442587D02*
X156891352Y-107394968D01*
X156891352Y-107394968D02*
X156938971Y-107299729D01*
X156938971Y-107299729D02*
X156938971Y-106918777D01*
X156938971Y-106918777D02*
X156891352Y-106823539D01*
X156891352Y-106823539D02*
X156796114Y-106775920D01*
X156796114Y-106775920D02*
X156605638Y-106775920D01*
X156605638Y-106775920D02*
X156510400Y-106823539D01*
X156510400Y-106823539D02*
X156462781Y-106918777D01*
X156462781Y-106918777D02*
X156462781Y-107014015D01*
X156462781Y-107014015D02*
X156938971Y-107109253D01*
X156034209Y-107061634D02*
X155272305Y-107061634D01*
X154796114Y-107442587D02*
X154796114Y-106442587D01*
X154796114Y-106823539D02*
X154700876Y-106775920D01*
X154700876Y-106775920D02*
X154510400Y-106775920D01*
X154510400Y-106775920D02*
X154415162Y-106823539D01*
X154415162Y-106823539D02*
X154367543Y-106871158D01*
X154367543Y-106871158D02*
X154319924Y-106966396D01*
X154319924Y-106966396D02*
X154319924Y-107252110D01*
X154319924Y-107252110D02*
X154367543Y-107347348D01*
X154367543Y-107347348D02*
X154415162Y-107394968D01*
X154415162Y-107394968D02*
X154510400Y-107442587D01*
X154510400Y-107442587D02*
X154700876Y-107442587D01*
X154700876Y-107442587D02*
X154796114Y-107394968D01*
X153510400Y-107394968D02*
X153605638Y-107442587D01*
X153605638Y-107442587D02*
X153796114Y-107442587D01*
X153796114Y-107442587D02*
X153891352Y-107394968D01*
X153891352Y-107394968D02*
X153938971Y-107299729D01*
X153938971Y-107299729D02*
X153938971Y-106918777D01*
X153938971Y-106918777D02*
X153891352Y-106823539D01*
X153891352Y-106823539D02*
X153796114Y-106775920D01*
X153796114Y-106775920D02*
X153605638Y-106775920D01*
X153605638Y-106775920D02*
X153510400Y-106823539D01*
X153510400Y-106823539D02*
X153462781Y-106918777D01*
X153462781Y-106918777D02*
X153462781Y-107014015D01*
X153462781Y-107014015D02*
X153938971Y-107109253D01*
X152653257Y-107394968D02*
X152748495Y-107442587D01*
X152748495Y-107442587D02*
X152938971Y-107442587D01*
X152938971Y-107442587D02*
X153034209Y-107394968D01*
X153034209Y-107394968D02*
X153081828Y-107299729D01*
X153081828Y-107299729D02*
X153081828Y-106918777D01*
X153081828Y-106918777D02*
X153034209Y-106823539D01*
X153034209Y-106823539D02*
X152938971Y-106775920D01*
X152938971Y-106775920D02*
X152748495Y-106775920D01*
X152748495Y-106775920D02*
X152653257Y-106823539D01*
X152653257Y-106823539D02*
X152605638Y-106918777D01*
X152605638Y-106918777D02*
X152605638Y-107014015D01*
X152605638Y-107014015D02*
X153081828Y-107109253D01*
X152177066Y-106775920D02*
X152177066Y-107775920D01*
X152177066Y-106823539D02*
X152081828Y-106775920D01*
X152081828Y-106775920D02*
X151891352Y-106775920D01*
X151891352Y-106775920D02*
X151796114Y-106823539D01*
X151796114Y-106823539D02*
X151748495Y-106871158D01*
X151748495Y-106871158D02*
X151700876Y-106966396D01*
X151700876Y-106966396D02*
X151700876Y-107252110D01*
X151700876Y-107252110D02*
X151748495Y-107347348D01*
X151748495Y-107347348D02*
X151796114Y-107394968D01*
X151796114Y-107394968D02*
X151891352Y-107442587D01*
X151891352Y-107442587D02*
X152081828Y-107442587D01*
X152081828Y-107442587D02*
X152177066Y-107394968D01*
X150891352Y-107394968D02*
X150986590Y-107442587D01*
X150986590Y-107442587D02*
X151177066Y-107442587D01*
X151177066Y-107442587D02*
X151272304Y-107394968D01*
X151272304Y-107394968D02*
X151319923Y-107299729D01*
X151319923Y-107299729D02*
X151319923Y-106918777D01*
X151319923Y-106918777D02*
X151272304Y-106823539D01*
X151272304Y-106823539D02*
X151177066Y-106775920D01*
X151177066Y-106775920D02*
X150986590Y-106775920D01*
X150986590Y-106775920D02*
X150891352Y-106823539D01*
X150891352Y-106823539D02*
X150843733Y-106918777D01*
X150843733Y-106918777D02*
X150843733Y-107014015D01*
X150843733Y-107014015D02*
X151319923Y-107109253D01*
X150415161Y-107442587D02*
X150415161Y-106775920D01*
X150415161Y-106966396D02*
X150367542Y-106871158D01*
X150367542Y-106871158D02*
X150319923Y-106823539D01*
X150319923Y-106823539D02*
X150224685Y-106775920D01*
X150224685Y-106775920D02*
X150129447Y-106775920D01*
X162796115Y-109052531D02*
X162796115Y-108385864D01*
X162796115Y-108052531D02*
X162843734Y-108100150D01*
X162843734Y-108100150D02*
X162796115Y-108147769D01*
X162796115Y-108147769D02*
X162748496Y-108100150D01*
X162748496Y-108100150D02*
X162796115Y-108052531D01*
X162796115Y-108052531D02*
X162796115Y-108147769D01*
X162367544Y-109004912D02*
X162272306Y-109052531D01*
X162272306Y-109052531D02*
X162081830Y-109052531D01*
X162081830Y-109052531D02*
X161986592Y-109004912D01*
X161986592Y-109004912D02*
X161938973Y-108909673D01*
X161938973Y-108909673D02*
X161938973Y-108862054D01*
X161938973Y-108862054D02*
X161986592Y-108766816D01*
X161986592Y-108766816D02*
X162081830Y-108719197D01*
X162081830Y-108719197D02*
X162224687Y-108719197D01*
X162224687Y-108719197D02*
X162319925Y-108671578D01*
X162319925Y-108671578D02*
X162367544Y-108576340D01*
X162367544Y-108576340D02*
X162367544Y-108528721D01*
X162367544Y-108528721D02*
X162319925Y-108433483D01*
X162319925Y-108433483D02*
X162224687Y-108385864D01*
X162224687Y-108385864D02*
X162081830Y-108385864D01*
X162081830Y-108385864D02*
X161986592Y-108433483D01*
X160891353Y-108385864D02*
X160510401Y-108385864D01*
X160748496Y-108052531D02*
X160748496Y-108909673D01*
X160748496Y-108909673D02*
X160700877Y-109004912D01*
X160700877Y-109004912D02*
X160605639Y-109052531D01*
X160605639Y-109052531D02*
X160510401Y-109052531D01*
X160177067Y-109052531D02*
X160177067Y-108052531D01*
X159748496Y-109052531D02*
X159748496Y-108528721D01*
X159748496Y-108528721D02*
X159796115Y-108433483D01*
X159796115Y-108433483D02*
X159891353Y-108385864D01*
X159891353Y-108385864D02*
X160034210Y-108385864D01*
X160034210Y-108385864D02*
X160129448Y-108433483D01*
X160129448Y-108433483D02*
X160177067Y-108481102D01*
X159272305Y-109052531D02*
X159272305Y-108385864D01*
X159272305Y-108052531D02*
X159319924Y-108100150D01*
X159319924Y-108100150D02*
X159272305Y-108147769D01*
X159272305Y-108147769D02*
X159224686Y-108100150D01*
X159224686Y-108100150D02*
X159272305Y-108052531D01*
X159272305Y-108052531D02*
X159272305Y-108147769D01*
X158843734Y-109004912D02*
X158748496Y-109052531D01*
X158748496Y-109052531D02*
X158558020Y-109052531D01*
X158558020Y-109052531D02*
X158462782Y-109004912D01*
X158462782Y-109004912D02*
X158415163Y-108909673D01*
X158415163Y-108909673D02*
X158415163Y-108862054D01*
X158415163Y-108862054D02*
X158462782Y-108766816D01*
X158462782Y-108766816D02*
X158558020Y-108719197D01*
X158558020Y-108719197D02*
X158700877Y-108719197D01*
X158700877Y-108719197D02*
X158796115Y-108671578D01*
X158796115Y-108671578D02*
X158843734Y-108576340D01*
X158843734Y-108576340D02*
X158843734Y-108528721D01*
X158843734Y-108528721D02*
X158796115Y-108433483D01*
X158796115Y-108433483D02*
X158700877Y-108385864D01*
X158700877Y-108385864D02*
X158558020Y-108385864D01*
X158558020Y-108385864D02*
X158462782Y-108433483D01*
X156796115Y-109052531D02*
X156796115Y-108528721D01*
X156796115Y-108528721D02*
X156843734Y-108433483D01*
X156843734Y-108433483D02*
X156938972Y-108385864D01*
X156938972Y-108385864D02*
X157129448Y-108385864D01*
X157129448Y-108385864D02*
X157224686Y-108433483D01*
X156796115Y-109004912D02*
X156891353Y-109052531D01*
X156891353Y-109052531D02*
X157129448Y-109052531D01*
X157129448Y-109052531D02*
X157224686Y-109004912D01*
X157224686Y-109004912D02*
X157272305Y-108909673D01*
X157272305Y-108909673D02*
X157272305Y-108814435D01*
X157272305Y-108814435D02*
X157224686Y-108719197D01*
X157224686Y-108719197D02*
X157129448Y-108671578D01*
X157129448Y-108671578D02*
X156891353Y-108671578D01*
X156891353Y-108671578D02*
X156796115Y-108623959D01*
X155129448Y-109004912D02*
X155224686Y-109052531D01*
X155224686Y-109052531D02*
X155415162Y-109052531D01*
X155415162Y-109052531D02*
X155510400Y-109004912D01*
X155510400Y-109004912D02*
X155558019Y-108957292D01*
X155558019Y-108957292D02*
X155605638Y-108862054D01*
X155605638Y-108862054D02*
X155605638Y-108576340D01*
X155605638Y-108576340D02*
X155558019Y-108481102D01*
X155558019Y-108481102D02*
X155510400Y-108433483D01*
X155510400Y-108433483D02*
X155415162Y-108385864D01*
X155415162Y-108385864D02*
X155224686Y-108385864D01*
X155224686Y-108385864D02*
X155129448Y-108433483D01*
X154272305Y-109052531D02*
X154272305Y-108528721D01*
X154272305Y-108528721D02*
X154319924Y-108433483D01*
X154319924Y-108433483D02*
X154415162Y-108385864D01*
X154415162Y-108385864D02*
X154605638Y-108385864D01*
X154605638Y-108385864D02*
X154700876Y-108433483D01*
X154272305Y-109004912D02*
X154367543Y-109052531D01*
X154367543Y-109052531D02*
X154605638Y-109052531D01*
X154605638Y-109052531D02*
X154700876Y-109004912D01*
X154700876Y-109004912D02*
X154748495Y-108909673D01*
X154748495Y-108909673D02*
X154748495Y-108814435D01*
X154748495Y-108814435D02*
X154700876Y-108719197D01*
X154700876Y-108719197D02*
X154605638Y-108671578D01*
X154605638Y-108671578D02*
X154367543Y-108671578D01*
X154367543Y-108671578D02*
X154272305Y-108623959D01*
X153938971Y-108385864D02*
X153558019Y-108385864D01*
X153796114Y-108052531D02*
X153796114Y-108909673D01*
X153796114Y-108909673D02*
X153748495Y-109004912D01*
X153748495Y-109004912D02*
X153653257Y-109052531D01*
X153653257Y-109052531D02*
X153558019Y-109052531D01*
X152319923Y-109052531D02*
X152415161Y-109004912D01*
X152415161Y-109004912D02*
X152462780Y-108957292D01*
X152462780Y-108957292D02*
X152510399Y-108862054D01*
X152510399Y-108862054D02*
X152510399Y-108576340D01*
X152510399Y-108576340D02*
X152462780Y-108481102D01*
X152462780Y-108481102D02*
X152415161Y-108433483D01*
X152415161Y-108433483D02*
X152319923Y-108385864D01*
X152319923Y-108385864D02*
X152177066Y-108385864D01*
X152177066Y-108385864D02*
X152081828Y-108433483D01*
X152081828Y-108433483D02*
X152034209Y-108481102D01*
X152034209Y-108481102D02*
X151986590Y-108576340D01*
X151986590Y-108576340D02*
X151986590Y-108862054D01*
X151986590Y-108862054D02*
X152034209Y-108957292D01*
X152034209Y-108957292D02*
X152081828Y-109004912D01*
X152081828Y-109004912D02*
X152177066Y-109052531D01*
X152177066Y-109052531D02*
X152319923Y-109052531D01*
X151558018Y-109052531D02*
X151558018Y-108385864D01*
X151558018Y-108576340D02*
X151510399Y-108481102D01*
X151510399Y-108481102D02*
X151462780Y-108433483D01*
X151462780Y-108433483D02*
X151367542Y-108385864D01*
X151367542Y-108385864D02*
X151272304Y-108385864D01*
X149748494Y-109052531D02*
X149748494Y-108528721D01*
X149748494Y-108528721D02*
X149796113Y-108433483D01*
X149796113Y-108433483D02*
X149891351Y-108385864D01*
X149891351Y-108385864D02*
X150081827Y-108385864D01*
X150081827Y-108385864D02*
X150177065Y-108433483D01*
X149748494Y-109004912D02*
X149843732Y-109052531D01*
X149843732Y-109052531D02*
X150081827Y-109052531D01*
X150081827Y-109052531D02*
X150177065Y-109004912D01*
X150177065Y-109004912D02*
X150224684Y-108909673D01*
X150224684Y-108909673D02*
X150224684Y-108814435D01*
X150224684Y-108814435D02*
X150177065Y-108719197D01*
X150177065Y-108719197D02*
X150081827Y-108671578D01*
X150081827Y-108671578D02*
X149843732Y-108671578D01*
X149843732Y-108671578D02*
X149748494Y-108623959D01*
X148081827Y-109052531D02*
X148081827Y-108052531D01*
X148081827Y-109004912D02*
X148177065Y-109052531D01*
X148177065Y-109052531D02*
X148367541Y-109052531D01*
X148367541Y-109052531D02*
X148462779Y-109004912D01*
X148462779Y-109004912D02*
X148510398Y-108957292D01*
X148510398Y-108957292D02*
X148558017Y-108862054D01*
X148558017Y-108862054D02*
X148558017Y-108576340D01*
X148558017Y-108576340D02*
X148510398Y-108481102D01*
X148510398Y-108481102D02*
X148462779Y-108433483D01*
X148462779Y-108433483D02*
X148367541Y-108385864D01*
X148367541Y-108385864D02*
X148177065Y-108385864D01*
X148177065Y-108385864D02*
X148081827Y-108433483D01*
X147462779Y-109052531D02*
X147558017Y-109004912D01*
X147558017Y-109004912D02*
X147605636Y-108957292D01*
X147605636Y-108957292D02*
X147653255Y-108862054D01*
X147653255Y-108862054D02*
X147653255Y-108576340D01*
X147653255Y-108576340D02*
X147605636Y-108481102D01*
X147605636Y-108481102D02*
X147558017Y-108433483D01*
X147558017Y-108433483D02*
X147462779Y-108385864D01*
X147462779Y-108385864D02*
X147319922Y-108385864D01*
X147319922Y-108385864D02*
X147224684Y-108433483D01*
X147224684Y-108433483D02*
X147177065Y-108481102D01*
X147177065Y-108481102D02*
X147129446Y-108576340D01*
X147129446Y-108576340D02*
X147129446Y-108862054D01*
X147129446Y-108862054D02*
X147177065Y-108957292D01*
X147177065Y-108957292D02*
X147224684Y-109004912D01*
X147224684Y-109004912D02*
X147319922Y-109052531D01*
X147319922Y-109052531D02*
X147462779Y-109052531D01*
X146272303Y-108385864D02*
X146272303Y-109195388D01*
X146272303Y-109195388D02*
X146319922Y-109290626D01*
X146319922Y-109290626D02*
X146367541Y-109338245D01*
X146367541Y-109338245D02*
X146462779Y-109385864D01*
X146462779Y-109385864D02*
X146605636Y-109385864D01*
X146605636Y-109385864D02*
X146700874Y-109338245D01*
X146272303Y-109004912D02*
X146367541Y-109052531D01*
X146367541Y-109052531D02*
X146558017Y-109052531D01*
X146558017Y-109052531D02*
X146653255Y-109004912D01*
X146653255Y-109004912D02*
X146700874Y-108957292D01*
X146700874Y-108957292D02*
X146748493Y-108862054D01*
X146748493Y-108862054D02*
X146748493Y-108576340D01*
X146748493Y-108576340D02*
X146700874Y-108481102D01*
X146700874Y-108481102D02*
X146653255Y-108433483D01*
X146653255Y-108433483D02*
X146558017Y-108385864D01*
X146558017Y-108385864D02*
X146367541Y-108385864D01*
X146367541Y-108385864D02*
X146272303Y-108433483D01*
X145653255Y-108957292D02*
X145605636Y-109004912D01*
X145605636Y-109004912D02*
X145653255Y-109052531D01*
X145653255Y-109052531D02*
X145700874Y-109004912D01*
X145700874Y-109004912D02*
X145653255Y-108957292D01*
X145653255Y-108957292D02*
X145653255Y-109052531D01*
X145843731Y-108100150D02*
X145748493Y-108052531D01*
X145748493Y-108052531D02*
X145510398Y-108052531D01*
X145510398Y-108052531D02*
X145415160Y-108100150D01*
X145415160Y-108100150D02*
X145367541Y-108195388D01*
X145367541Y-108195388D02*
X145367541Y-108290626D01*
X145367541Y-108290626D02*
X145415160Y-108385864D01*
X145415160Y-108385864D02*
X145462779Y-108433483D01*
X145462779Y-108433483D02*
X145558017Y-108481102D01*
X145558017Y-108481102D02*
X145605636Y-108528721D01*
X145605636Y-108528721D02*
X145653255Y-108623959D01*
X145653255Y-108623959D02*
X145653255Y-108671578D01*
X162796115Y-112272419D02*
X162796115Y-111272419D01*
X162796115Y-111653371D02*
X162700877Y-111605752D01*
X162700877Y-111605752D02*
X162510401Y-111605752D01*
X162510401Y-111605752D02*
X162415163Y-111653371D01*
X162415163Y-111653371D02*
X162367544Y-111700990D01*
X162367544Y-111700990D02*
X162319925Y-111796228D01*
X162319925Y-111796228D02*
X162319925Y-112081942D01*
X162319925Y-112081942D02*
X162367544Y-112177180D01*
X162367544Y-112177180D02*
X162415163Y-112224800D01*
X162415163Y-112224800D02*
X162510401Y-112272419D01*
X162510401Y-112272419D02*
X162700877Y-112272419D01*
X162700877Y-112272419D02*
X162796115Y-112224800D01*
X161986591Y-111605752D02*
X161748496Y-112272419D01*
X161510401Y-111605752D02*
X161748496Y-112272419D01*
X161748496Y-112272419D02*
X161843734Y-112510514D01*
X161843734Y-112510514D02*
X161891353Y-112558133D01*
X161891353Y-112558133D02*
X161986591Y-112605752D01*
X160510400Y-111605752D02*
X160129448Y-111605752D01*
X160367543Y-111272419D02*
X160367543Y-112129561D01*
X160367543Y-112129561D02*
X160319924Y-112224800D01*
X160319924Y-112224800D02*
X160224686Y-112272419D01*
X160224686Y-112272419D02*
X160129448Y-112272419D01*
X159796114Y-112272419D02*
X159796114Y-111272419D01*
X159367543Y-112272419D02*
X159367543Y-111748609D01*
X159367543Y-111748609D02*
X159415162Y-111653371D01*
X159415162Y-111653371D02*
X159510400Y-111605752D01*
X159510400Y-111605752D02*
X159653257Y-111605752D01*
X159653257Y-111605752D02*
X159748495Y-111653371D01*
X159748495Y-111653371D02*
X159796114Y-111700990D01*
X158510400Y-112224800D02*
X158605638Y-112272419D01*
X158605638Y-112272419D02*
X158796114Y-112272419D01*
X158796114Y-112272419D02*
X158891352Y-112224800D01*
X158891352Y-112224800D02*
X158938971Y-112129561D01*
X158938971Y-112129561D02*
X158938971Y-111748609D01*
X158938971Y-111748609D02*
X158891352Y-111653371D01*
X158891352Y-111653371D02*
X158796114Y-111605752D01*
X158796114Y-111605752D02*
X158605638Y-111605752D01*
X158605638Y-111605752D02*
X158510400Y-111653371D01*
X158510400Y-111653371D02*
X158462781Y-111748609D01*
X158462781Y-111748609D02*
X158462781Y-111843847D01*
X158462781Y-111843847D02*
X158938971Y-111939085D01*
X157605638Y-112272419D02*
X157605638Y-111748609D01*
X157605638Y-111748609D02*
X157653257Y-111653371D01*
X157653257Y-111653371D02*
X157748495Y-111605752D01*
X157748495Y-111605752D02*
X157938971Y-111605752D01*
X157938971Y-111605752D02*
X158034209Y-111653371D01*
X157605638Y-112224800D02*
X157700876Y-112272419D01*
X157700876Y-112272419D02*
X157938971Y-112272419D01*
X157938971Y-112272419D02*
X158034209Y-112224800D01*
X158034209Y-112224800D02*
X158081828Y-112129561D01*
X158081828Y-112129561D02*
X158081828Y-112034323D01*
X158081828Y-112034323D02*
X158034209Y-111939085D01*
X158034209Y-111939085D02*
X157938971Y-111891466D01*
X157938971Y-111891466D02*
X157700876Y-111891466D01*
X157700876Y-111891466D02*
X157605638Y-111843847D01*
X157129447Y-112272419D02*
X157129447Y-111605752D01*
X157129447Y-111700990D02*
X157081828Y-111653371D01*
X157081828Y-111653371D02*
X156986590Y-111605752D01*
X156986590Y-111605752D02*
X156843733Y-111605752D01*
X156843733Y-111605752D02*
X156748495Y-111653371D01*
X156748495Y-111653371D02*
X156700876Y-111748609D01*
X156700876Y-111748609D02*
X156700876Y-112272419D01*
X156700876Y-111748609D02*
X156653257Y-111653371D01*
X156653257Y-111653371D02*
X156558019Y-111605752D01*
X156558019Y-111605752D02*
X156415162Y-111605752D01*
X156415162Y-111605752D02*
X156319923Y-111653371D01*
X156319923Y-111653371D02*
X156272304Y-111748609D01*
X156272304Y-111748609D02*
X156272304Y-112272419D01*
X155796114Y-112272419D02*
X155796114Y-111272419D01*
X155700876Y-111891466D02*
X155415162Y-112272419D01*
X155415162Y-111605752D02*
X155796114Y-111986704D01*
D11*
X92254819Y-75166666D02*
X92969104Y-75166666D01*
X92969104Y-75166666D02*
X93111961Y-75119047D01*
X93111961Y-75119047D02*
X93207200Y-75023809D01*
X93207200Y-75023809D02*
X93254819Y-74880952D01*
X93254819Y-74880952D02*
X93254819Y-74785714D01*
X93254819Y-75642857D02*
X92254819Y-75642857D01*
X92254819Y-75642857D02*
X92254819Y-76023809D01*
X92254819Y-76023809D02*
X92302438Y-76119047D01*
X92302438Y-76119047D02*
X92350057Y-76166666D01*
X92350057Y-76166666D02*
X92445295Y-76214285D01*
X92445295Y-76214285D02*
X92588152Y-76214285D01*
X92588152Y-76214285D02*
X92683390Y-76166666D01*
X92683390Y-76166666D02*
X92731009Y-76119047D01*
X92731009Y-76119047D02*
X92778628Y-76023809D01*
X92778628Y-76023809D02*
X92778628Y-75642857D01*
X93254819Y-77166666D02*
X93254819Y-76595238D01*
X93254819Y-76880952D02*
X92254819Y-76880952D01*
X92254819Y-76880952D02*
X92397676Y-76785714D01*
X92397676Y-76785714D02*
X92492914Y-76690476D01*
X92492914Y-76690476D02*
X92540533Y-76595238D01*
D12*
%TO.C,JP1*%
X94300000Y-73950000D02*
X94900000Y-73950000D01*
X96100000Y-75100000D02*
X96100000Y-74500000D01*
X93600000Y-77400000D02*
X93600000Y-74600000D01*
X96100000Y-74500000D02*
X95800000Y-74800000D01*
X96100000Y-75100000D02*
X95800000Y-74800000D01*
X95600000Y-74600000D02*
X95600000Y-77400000D01*
X94900000Y-78050000D02*
X94300000Y-78050000D01*
X93600000Y-74650000D02*
G75*
G02*
X94300000Y-73950000I699999J1D01*
G01*
X94900000Y-73950000D02*
G75*
G02*
X95600000Y-74650000I1J-699999D01*
G01*
X94300000Y-78050000D02*
G75*
G02*
X93600000Y-77350000I0J700000D01*
G01*
X95600000Y-77350000D02*
G75*
G02*
X94900000Y-78050000I-700000J0D01*
G01*
D13*
%TO.C,G\u002A\u002A\u002A*%
G36*
X181968144Y-117870706D02*
G01*
X182124518Y-118119800D01*
X182143574Y-118406702D01*
X182062286Y-118620923D01*
X181929141Y-118795825D01*
X181788644Y-118868042D01*
X181636486Y-118843516D01*
X181438440Y-118655250D01*
X181356891Y-118532864D01*
X181293109Y-118223427D01*
X181365483Y-117926382D01*
X181560761Y-117740803D01*
X181737753Y-117731746D01*
X181968144Y-117870706D01*
G37*
G36*
X189224128Y-120097742D02*
G01*
X189148696Y-120401168D01*
X189130976Y-120459989D01*
X189133046Y-120626947D01*
X189300707Y-120668224D01*
X189318202Y-120668687D01*
X189623408Y-120786466D01*
X189964182Y-121082456D01*
X190300026Y-121513673D01*
X190590443Y-122037133D01*
X190713940Y-122321116D01*
X190823779Y-122673017D01*
X190853024Y-123025502D01*
X190846809Y-123113841D01*
X190819997Y-123494919D01*
X190792111Y-123724767D01*
X190630594Y-124408740D01*
X190350606Y-124918719D01*
X189925118Y-125292214D01*
X189327103Y-125566734D01*
X189301508Y-125574487D01*
X188969074Y-125597432D01*
X188510042Y-125546379D01*
X188008418Y-125435010D01*
X187548208Y-125277008D01*
X187472153Y-125243550D01*
X186970888Y-124964811D01*
X186541240Y-124592804D01*
X186106343Y-124062799D01*
X185976169Y-123874068D01*
X185842933Y-123598877D01*
X185783318Y-123278168D01*
X185781859Y-123220164D01*
X186129870Y-123220164D01*
X186175173Y-123476882D01*
X186291476Y-123706679D01*
X186499425Y-123992642D01*
X186952152Y-124454589D01*
X187551827Y-124849100D01*
X188077098Y-125073024D01*
X188759315Y-125230529D01*
X189354833Y-125206712D01*
X189839095Y-125003676D01*
X190187540Y-124623523D01*
X190318078Y-124306819D01*
X190420845Y-123742935D01*
X190433556Y-123113841D01*
X190356175Y-122509140D01*
X190188661Y-122018435D01*
X189940029Y-121634043D01*
X189602219Y-121263543D01*
X189255285Y-121003638D01*
X188956027Y-120905607D01*
X188716176Y-120940788D01*
X188383364Y-121082729D01*
X188125243Y-121286792D01*
X188021495Y-121502113D01*
X187988509Y-121637818D01*
X187843458Y-121736448D01*
X187761823Y-121725244D01*
X187665421Y-121636447D01*
X187656641Y-121611282D01*
X187513303Y-121477325D01*
X187250010Y-121312733D01*
X186834600Y-121089019D01*
X186520662Y-121402957D01*
X186378594Y-121565024D01*
X186262044Y-121790451D01*
X186193652Y-122107671D01*
X186150726Y-122589471D01*
X186134916Y-122853434D01*
X186129870Y-123220164D01*
X185781859Y-123220164D01*
X185771709Y-122816537D01*
X185796726Y-122298770D01*
X185901287Y-121807570D01*
X186112407Y-121423566D01*
X186456985Y-121078529D01*
X186496364Y-121046120D01*
X186758358Y-120861836D01*
X186975666Y-120814699D01*
X187258154Y-120877086D01*
X187276851Y-120882807D01*
X187537112Y-120947778D01*
X187644084Y-120909367D01*
X187664261Y-120746133D01*
X187637893Y-120586041D01*
X187594738Y-120450091D01*
X188169367Y-120450091D01*
X188169369Y-120637709D01*
X188309497Y-120651514D01*
X188585280Y-120479491D01*
X188624862Y-120447676D01*
X188891307Y-120150828D01*
X188971028Y-119828780D01*
X188929496Y-119569473D01*
X188805479Y-119494645D01*
X188619174Y-119625513D01*
X188391006Y-119957543D01*
X188313965Y-120100677D01*
X188169367Y-120450091D01*
X187594738Y-120450091D01*
X187530042Y-120246283D01*
X187367532Y-119855270D01*
X187335182Y-119785504D01*
X187159782Y-119384485D01*
X187087629Y-119147751D01*
X187112044Y-119035153D01*
X187226349Y-119006542D01*
X187304633Y-119048119D01*
X187473077Y-119252228D01*
X187654156Y-119569324D01*
X187927577Y-120132106D01*
X188151059Y-119696495D01*
X188373866Y-119369951D01*
X188706364Y-119165500D01*
X189101080Y-119188185D01*
X189230185Y-119248475D01*
X189308440Y-119399881D01*
X189292591Y-119700622D01*
X189289371Y-119724444D01*
X189271136Y-119828780D01*
X189224128Y-120097742D01*
G37*
G36*
X178901084Y-113960134D02*
G01*
X178998397Y-114110610D01*
X178988145Y-114205295D01*
X178967677Y-114394345D01*
X178822897Y-114852336D01*
X178753278Y-115058481D01*
X178659888Y-115425018D01*
X178676893Y-115604924D01*
X178803881Y-115614705D01*
X178924802Y-115614471D01*
X179120020Y-115742997D01*
X179170373Y-115793412D01*
X179426012Y-115972859D01*
X179762166Y-116149208D01*
X179841940Y-116184403D01*
X180309782Y-116361741D01*
X180669945Y-116498263D01*
X181505074Y-116730789D01*
X182310308Y-116878759D01*
X183048630Y-116938952D01*
X183683020Y-116908149D01*
X184176462Y-116783130D01*
X184491936Y-116560673D01*
X184569656Y-116480962D01*
X184856236Y-116296198D01*
X185210252Y-116150048D01*
X185543830Y-116074186D01*
X185769094Y-116100290D01*
X185830280Y-116171963D01*
X185885047Y-116395327D01*
X185901198Y-116523697D01*
X185990590Y-116683929D01*
X186063263Y-116748561D01*
X186170738Y-117031603D01*
X186157022Y-117424331D01*
X186020357Y-117857381D01*
X185979827Y-117947740D01*
X185789755Y-118422728D01*
X185735036Y-118583247D01*
X185631245Y-118887719D01*
X185388488Y-119399249D01*
X184985111Y-119896598D01*
X184785628Y-120102549D01*
X184547480Y-120384050D01*
X184424125Y-120579205D01*
X184323437Y-120705472D01*
X184078725Y-120787359D01*
X184068744Y-120787515D01*
X183775243Y-120854177D01*
X183451319Y-121005287D01*
X183106801Y-121163066D01*
X182575493Y-121325385D01*
X181978882Y-121453630D01*
X181407964Y-121528640D01*
X180953730Y-121531251D01*
X180473348Y-121478720D01*
X180478949Y-122110331D01*
X180478964Y-122112023D01*
X180477017Y-122424823D01*
X180443399Y-122646823D01*
X180347136Y-122745228D01*
X180158178Y-122782883D01*
X180130067Y-122786417D01*
X179897444Y-122874232D01*
X179833593Y-123079612D01*
X179853424Y-123251883D01*
X179948663Y-123516822D01*
X179969864Y-123548376D01*
X180098282Y-123632955D01*
X180301310Y-123546495D01*
X180483574Y-123459764D01*
X180763513Y-123398130D01*
X181012629Y-123484808D01*
X181294339Y-123713467D01*
X181519858Y-124004522D01*
X181612150Y-124278093D01*
X181611458Y-124310332D01*
X181502629Y-124679956D01*
X181251328Y-124953160D01*
X180919679Y-125059813D01*
X180866475Y-125058550D01*
X180444534Y-124938924D01*
X180089757Y-124617061D01*
X179793890Y-124082520D01*
X179548682Y-123324856D01*
X179526563Y-123240501D01*
X179411874Y-122921097D01*
X179248541Y-122739707D01*
X178970052Y-122614701D01*
X178534080Y-122463763D01*
X178464663Y-122901274D01*
X178432961Y-123086793D01*
X178348573Y-123530725D01*
X178252997Y-123991588D01*
X178242547Y-124039510D01*
X178158268Y-124388049D01*
X178071121Y-124563119D01*
X177932882Y-124617771D01*
X177695327Y-124605052D01*
X177660187Y-124601381D01*
X177354277Y-124541076D01*
X177167150Y-124456688D01*
X177099611Y-124409708D01*
X176861437Y-124347663D01*
X176849299Y-124347126D01*
X176633815Y-124254480D01*
X176389720Y-124050934D01*
X176366982Y-124027178D01*
X176144586Y-123834747D01*
X175983282Y-123757746D01*
X175965039Y-123763622D01*
X175825338Y-123900881D01*
X175614674Y-124182759D01*
X175371114Y-124559406D01*
X175369453Y-124562142D01*
X175222657Y-124815072D01*
X175123532Y-124985864D01*
X174992831Y-125274998D01*
X174957465Y-125489744D01*
X174997547Y-125690303D01*
X175009752Y-125728351D01*
X175040033Y-126014747D01*
X174899859Y-126253597D01*
X174818574Y-126339574D01*
X174642624Y-126460168D01*
X174439996Y-126445277D01*
X174123123Y-126300150D01*
X173860348Y-126160590D01*
X173614384Y-125995333D01*
X173471126Y-125806287D01*
X173410009Y-125540273D01*
X173410465Y-125144114D01*
X173451930Y-124564631D01*
X173465659Y-124377336D01*
X173780322Y-124377336D01*
X173785331Y-124746383D01*
X173819726Y-124958435D01*
X173908166Y-125043949D01*
X174075234Y-125059813D01*
X174095760Y-125059361D01*
X174311500Y-124978471D01*
X174380381Y-124815072D01*
X174264391Y-124651264D01*
X174219628Y-124585454D01*
X174140034Y-124334577D01*
X174073117Y-123976195D01*
X174065060Y-123920399D01*
X173993829Y-123603951D01*
X173918451Y-123506888D01*
X173850214Y-123613741D01*
X173800409Y-123909046D01*
X173780322Y-124377336D01*
X173465659Y-124377336D01*
X173477910Y-124210212D01*
X173502721Y-123763045D01*
X173510132Y-123447366D01*
X173498199Y-123315644D01*
X173439535Y-123316002D01*
X173216108Y-123388068D01*
X172894104Y-123526565D01*
X172620796Y-123643597D01*
X172323858Y-123706628D01*
X172169175Y-123606128D01*
X172137432Y-123322637D01*
X172152600Y-123220093D01*
X173778505Y-123220093D01*
X173837851Y-123279439D01*
X173897196Y-123220093D01*
X173837851Y-123160747D01*
X173778505Y-123220093D01*
X172152600Y-123220093D01*
X172209313Y-122836697D01*
X172269827Y-122540562D01*
X172354281Y-122156779D01*
X172416714Y-121907246D01*
X172434595Y-121780384D01*
X172362880Y-121683970D01*
X172149755Y-121607743D01*
X171748412Y-121524924D01*
X171392984Y-121447590D01*
X171060869Y-121349994D01*
X170886400Y-121265652D01*
X170857593Y-121135618D01*
X170942169Y-120822543D01*
X171160034Y-120327148D01*
X171228829Y-120181847D01*
X171413832Y-119720998D01*
X171458949Y-119428062D01*
X171363575Y-119283536D01*
X171127102Y-119267918D01*
X171089808Y-119272135D01*
X170908261Y-119223132D01*
X170834887Y-118996380D01*
X170865073Y-118761629D01*
X170937402Y-118631942D01*
X171404673Y-118631942D01*
X171404726Y-118633818D01*
X171511317Y-118729837D01*
X171760748Y-118810701D01*
X171863078Y-118836539D01*
X172058832Y-118960675D01*
X172104646Y-119180795D01*
X172000141Y-119525940D01*
X171744941Y-120025150D01*
X171616087Y-120266857D01*
X171475786Y-120620519D01*
X171490650Y-120801678D01*
X171597422Y-120855690D01*
X171892121Y-120931110D01*
X172281432Y-120988748D01*
X172568353Y-121026806D01*
X172872810Y-121091541D01*
X173015169Y-121156193D01*
X173022498Y-121211648D01*
X172969489Y-121442449D01*
X172844415Y-121762360D01*
X172725955Y-122054854D01*
X172600884Y-122444095D01*
X172515242Y-122800196D01*
X172483628Y-123060100D01*
X172520644Y-123160747D01*
X172596085Y-123141509D01*
X172800910Y-123045796D01*
X173045219Y-122932392D01*
X173409465Y-122801582D01*
X173785217Y-122693333D01*
X174095180Y-122629532D01*
X174262057Y-122632065D01*
X174288019Y-122661791D01*
X174351332Y-122872965D01*
X174380992Y-123197425D01*
X174381756Y-123220093D01*
X174383017Y-123257528D01*
X174436878Y-123703475D01*
X174537534Y-124103115D01*
X174551193Y-124140576D01*
X174660543Y-124395725D01*
X174770302Y-124517096D01*
X174903316Y-124489871D01*
X175082434Y-124299235D01*
X175330504Y-123930369D01*
X175670372Y-123368458D01*
X175743942Y-123250499D01*
X175918484Y-123016418D01*
X176035243Y-122923364D01*
X176056619Y-122928914D01*
X176205350Y-123054250D01*
X176399282Y-123292868D01*
X176650318Y-123565497D01*
X177060557Y-123820491D01*
X177651488Y-124040218D01*
X177743107Y-124061295D01*
X177839967Y-124033494D01*
X177910583Y-123898227D01*
X177973631Y-123612815D01*
X178047789Y-123134577D01*
X178099096Y-122794475D01*
X178186173Y-122341600D01*
X178289435Y-122072947D01*
X178437160Y-121955277D01*
X178657628Y-121955353D01*
X178979120Y-122039935D01*
X179254032Y-122115896D01*
X179680156Y-122195807D01*
X179965227Y-122194815D01*
X180069159Y-122110331D01*
X180039181Y-122031789D01*
X179899183Y-121801973D01*
X179683411Y-121499165D01*
X179535899Y-121303754D01*
X179316200Y-121011659D01*
X179179838Y-120828963D01*
X179128406Y-120700162D01*
X179213389Y-120426651D01*
X179238923Y-120384385D01*
X179300430Y-120182114D01*
X179182850Y-120002343D01*
X179076964Y-119874164D01*
X179000935Y-119701926D01*
X179002438Y-119685885D01*
X179088989Y-119487298D01*
X179270859Y-119194231D01*
X179495210Y-118881084D01*
X179709208Y-118622262D01*
X179860017Y-118492168D01*
X179865787Y-118466340D01*
X179702719Y-118437451D01*
X179386682Y-118422454D01*
X179075925Y-118413258D01*
X178863108Y-118374997D01*
X178780131Y-118276851D01*
X178767757Y-118086682D01*
X178809754Y-117809551D01*
X178822090Y-117777174D01*
X179238318Y-117777174D01*
X179309145Y-117804252D01*
X179523453Y-117773796D01*
X179814076Y-117744881D01*
X180176257Y-117775765D01*
X180256560Y-117795629D01*
X180506462Y-117956556D01*
X180557046Y-118213263D01*
X180410537Y-118542006D01*
X180069159Y-118919041D01*
X179845446Y-119128878D01*
X179638471Y-119378859D01*
X179637576Y-119525539D01*
X179848471Y-119587146D01*
X180276869Y-119581908D01*
X180602668Y-119566910D01*
X180843162Y-119583159D01*
X180954572Y-119655170D01*
X180996403Y-119801068D01*
X181000968Y-119854453D01*
X180951873Y-120014244D01*
X180767535Y-120165617D01*
X180402946Y-120350221D01*
X179772430Y-120638960D01*
X180247196Y-120772879D01*
X180689358Y-120870960D01*
X181256199Y-120947083D01*
X181795013Y-120976778D01*
X182205608Y-120950936D01*
X182287784Y-120933532D01*
X182630047Y-120838740D01*
X183015215Y-120710351D01*
X183528094Y-120523453D01*
X183282271Y-120261787D01*
X183257340Y-120234119D01*
X183087919Y-119914099D01*
X183036449Y-119450990D01*
X183040374Y-119286124D01*
X183082422Y-118971584D01*
X183155166Y-118845288D01*
X183239352Y-118923099D01*
X183315726Y-119220882D01*
X183395648Y-119500043D01*
X183569449Y-119835748D01*
X183779095Y-120091649D01*
X183974284Y-120193458D01*
X184034303Y-120172146D01*
X184247324Y-120041198D01*
X184533446Y-119830515D01*
X184806678Y-119585648D01*
X185105094Y-119230468D01*
X185309199Y-118882625D01*
X185401629Y-118583247D01*
X185365018Y-118373460D01*
X185182004Y-118294392D01*
X185111335Y-118285500D01*
X184839587Y-118163253D01*
X184549125Y-117947943D01*
X184317776Y-117704300D01*
X184223365Y-117497055D01*
X184220539Y-117458102D01*
X184156531Y-117377635D01*
X183967573Y-117363537D01*
X183600234Y-117408191D01*
X183136659Y-117464492D01*
X182698810Y-117476713D01*
X182240462Y-117435104D01*
X181693150Y-117333288D01*
X180988410Y-117164886D01*
X180648054Y-117079839D01*
X180201456Y-116971675D01*
X179877700Y-116897579D01*
X179730312Y-116870093D01*
X179687172Y-116900189D01*
X179560764Y-117077601D01*
X179412723Y-117340233D01*
X179289693Y-117602089D01*
X179238318Y-117777174D01*
X178822090Y-117777174D01*
X178941589Y-117463551D01*
X179026289Y-117307752D01*
X179099183Y-117087885D01*
X179002978Y-117008660D01*
X178720643Y-117037216D01*
X178648073Y-117049788D01*
X178351667Y-117060198D01*
X178175536Y-116959655D01*
X178110288Y-116720269D01*
X178146534Y-116314154D01*
X178170334Y-116202756D01*
X178526168Y-116202756D01*
X178570312Y-116320763D01*
X178783333Y-116395327D01*
X178932754Y-116387958D01*
X178991044Y-116361741D01*
X178920424Y-116310230D01*
X178733879Y-116169170D01*
X178676130Y-116126351D01*
X178553603Y-116076466D01*
X178526168Y-116202756D01*
X178170334Y-116202756D01*
X178274881Y-115713419D01*
X178410826Y-115146419D01*
X178488898Y-114770932D01*
X178503791Y-114554146D01*
X178451040Y-114459773D01*
X178326180Y-114451522D01*
X178124747Y-114493104D01*
X177795758Y-114579279D01*
X177574660Y-114703078D01*
X177502001Y-114905031D01*
X177530269Y-115245247D01*
X177603107Y-115742523D01*
X177293143Y-115421301D01*
X177252390Y-115377384D01*
X177061006Y-115114835D01*
X176983178Y-114905750D01*
X176941893Y-114784371D01*
X176752411Y-114651074D01*
X176586261Y-114537706D01*
X176521181Y-114330923D01*
X177101869Y-114330923D01*
X177134765Y-114375141D01*
X177270809Y-114358629D01*
X177397758Y-114260238D01*
X177408594Y-114205295D01*
X177286071Y-114213591D01*
X177194971Y-114254694D01*
X177101869Y-114330923D01*
X176521181Y-114330923D01*
X176485355Y-114217092D01*
X176479236Y-114160659D01*
X176449068Y-114038930D01*
X176395814Y-114074918D01*
X176304227Y-114291779D01*
X176159061Y-114712670D01*
X176140450Y-114768434D01*
X175947516Y-115326503D01*
X175791776Y-115673856D01*
X175638782Y-115824059D01*
X175454084Y-115790675D01*
X175203235Y-115587267D01*
X174851784Y-115227401D01*
X174717613Y-115083670D01*
X174419381Y-114739654D01*
X174212199Y-114464479D01*
X174134579Y-114307542D01*
X174125426Y-114235910D01*
X174040047Y-114140187D01*
X174033047Y-114142037D01*
X173965717Y-114275193D01*
X173885488Y-114575328D01*
X173803572Y-114981135D01*
X173731180Y-115431303D01*
X173679523Y-115864525D01*
X173659813Y-116219492D01*
X173650111Y-116355396D01*
X173557423Y-116587874D01*
X173403988Y-116646497D01*
X173236080Y-116500569D01*
X173215080Y-116475526D01*
X173034574Y-116348881D01*
X172750823Y-116196432D01*
X172441015Y-116054339D01*
X172182333Y-115958760D01*
X172051965Y-115945854D01*
X172047474Y-116001578D01*
X172089680Y-116231277D01*
X172180521Y-116568093D01*
X172233466Y-116749699D01*
X172329547Y-117193699D01*
X172312183Y-117516201D01*
X172166954Y-117789997D01*
X171879439Y-118087877D01*
X171693549Y-118267428D01*
X171485575Y-118497692D01*
X171404673Y-118631942D01*
X170937402Y-118631942D01*
X171029482Y-118466843D01*
X171354728Y-118071623D01*
X171910244Y-117453756D01*
X171776968Y-116835523D01*
X171734363Y-116644324D01*
X171614255Y-116145299D01*
X171499827Y-115713468D01*
X171422167Y-115363777D01*
X171448085Y-115148900D01*
X171607034Y-115086726D01*
X171921049Y-115169423D01*
X172412168Y-115389156D01*
X172508174Y-115435076D01*
X172893756Y-115602369D01*
X173181284Y-115700082D01*
X173314452Y-115708299D01*
X173333826Y-115664552D01*
X173391975Y-115425851D01*
X173463794Y-115036875D01*
X173538038Y-114555607D01*
X173570596Y-114333124D01*
X173678602Y-113724803D01*
X173786624Y-113333203D01*
X173900108Y-113142441D01*
X174024499Y-113136630D01*
X174122992Y-113256303D01*
X174292678Y-113533280D01*
X174489608Y-113900732D01*
X174511835Y-113943624D01*
X174732025Y-114296363D01*
X174995247Y-114630799D01*
X175258321Y-114901803D01*
X175478063Y-115064244D01*
X175611291Y-115072995D01*
X175624662Y-115056385D01*
X175740231Y-114836755D01*
X175887530Y-114476273D01*
X176039171Y-114051004D01*
X176061827Y-113978068D01*
X177716322Y-113978068D01*
X177814019Y-114021495D01*
X177876854Y-114012929D01*
X177893146Y-113942367D01*
X177875750Y-113928162D01*
X177734891Y-113942367D01*
X177716322Y-113978068D01*
X176061827Y-113978068D01*
X176167766Y-113637015D01*
X176245927Y-113310372D01*
X176254010Y-113265031D01*
X176369230Y-112890412D01*
X176531053Y-112739837D01*
X176642022Y-112739049D01*
X176733932Y-112824833D01*
X176816398Y-113048407D01*
X176915061Y-113457710D01*
X176966722Y-113637098D01*
X177076499Y-113761365D01*
X177261783Y-113708144D01*
X177565168Y-113478818D01*
X177791190Y-113326083D01*
X178112073Y-113221060D01*
X178368785Y-113257272D01*
X178500081Y-113437431D01*
X178456961Y-113591853D01*
X178263910Y-113755800D01*
X178202698Y-113786056D01*
X178108778Y-113852944D01*
X178197609Y-113883744D01*
X178496495Y-113894770D01*
X178661763Y-113901917D01*
X178828047Y-113942367D01*
X178901084Y-113960134D01*
G37*
%TD*%
%LPC*%
D14*
%TO.C,JP1*%
X94600000Y-74700000D03*
D15*
X94600000Y-76000000D03*
D16*
X94600000Y-77300000D03*
%TD*%
D17*
%TO.C,BT1*%
X166300000Y-100700000D03*
X166300000Y-123700000D03*
D18*
X142800000Y-100700000D03*
D19*
X142800000Y-112400000D03*
%TD*%
D20*
%TO.C,SW1*%
X201625318Y-80980127D03*
X190800000Y-87230127D03*
X199125318Y-76650000D03*
X188300000Y-82900000D03*
%TD*%
D21*
%TO.C,LS1*%
X124000000Y-94500000D03*
X114000000Y-94500000D03*
%TD*%
D22*
%TO.C,R3*%
X107315000Y-71120000D03*
X107315000Y-80720000D03*
D23*
X99815000Y-73420000D03*
D24*
X99815000Y-75920000D03*
X99815000Y-78420000D03*
%TD*%
D25*
%TO.C,R2*%
X135910000Y-66040000D03*
D26*
X128290000Y-66040000D03*
%TD*%
D27*
%TO.C,U1*%
X128270000Y-72390000D03*
D28*
X128270000Y-74930000D03*
X128270000Y-77470000D03*
X128270000Y-80010000D03*
X135890000Y-80010000D03*
X135890000Y-77470000D03*
X135890000Y-74930000D03*
X135890000Y-72390000D03*
%TD*%
D25*
%TO.C,R1*%
X109220000Y-66040000D03*
D26*
X101600000Y-66040000D03*
%TD*%
D29*
%TO.C,C2*%
X118150000Y-68300000D03*
X120650000Y-68300000D03*
%TD*%
%TO.C,C1*%
X118150000Y-73700000D03*
X120650000Y-73700000D03*
%TD*%
%LPD*%
M02*
