%TF.GenerationSoftware,KiCad,Pcbnew,8.0.5-dirty*%
%TF.CreationDate,2025-03-16T13:30:27-04:00*%
%TF.ProjectId,var-tone-beeper,7661722d-746f-46e6-952d-626565706572,rev?*%
%TF.SameCoordinates,Original*%
%TF.FileFunction,Copper,L1,Top*%
%TF.FilePolarity,Positive*%
%FSLAX46Y46*%
G04 Gerber Fmt 4.6, Leading zero omitted, Abs format (unit mm)*
G04 Created by KiCad (PCBNEW 8.0.5-dirty) date 2025-03-16 13:30:27*
%MOMM*%
%LPD*%
G01*
G04 APERTURE LIST*
G04 Aperture macros list*
%AMHorizOval*
0 Thick line with rounded ends*
0 $1 width*
0 $2 $3 position (X,Y) of the first rounded end (center of the circle)*
0 $4 $5 position (X,Y) of the second rounded end (center of the circle)*
0 Add line between two ends*
20,1,$1,$2,$3,$4,$5,0*
0 Add two circle primitives to create the rounded ends*
1,1,$1,$2,$3*
1,1,$1,$4,$5*%
G04 Aperture macros list end*
%TA.AperFunction,ComponentPad*%
%ADD10R,3.000000X3.000000*%
%TD*%
%TA.AperFunction,ComponentPad*%
%ADD11C,3.000000*%
%TD*%
%TA.AperFunction,ComponentPad*%
%ADD12HorizOval,1.900000X-0.562917X-0.325000X0.562917X0.325000X0*%
%TD*%
%TA.AperFunction,ComponentPad*%
%ADD13C,2.000000*%
%TD*%
%TA.AperFunction,ComponentPad*%
%ADD14O,3.240000X2.720000*%
%TD*%
%TA.AperFunction,ComponentPad*%
%ADD15R,1.800000X1.800000*%
%TD*%
%TA.AperFunction,ComponentPad*%
%ADD16C,1.800000*%
%TD*%
%TA.AperFunction,ComponentPad*%
%ADD17C,1.400000*%
%TD*%
%TA.AperFunction,ComponentPad*%
%ADD18O,1.400000X1.400000*%
%TD*%
%TA.AperFunction,ComponentPad*%
%ADD19R,1.600000X1.600000*%
%TD*%
%TA.AperFunction,ComponentPad*%
%ADD20O,1.600000X1.600000*%
%TD*%
%TA.AperFunction,ComponentPad*%
%ADD21C,1.600000*%
%TD*%
%TA.AperFunction,Conductor*%
%ADD22C,0.500000*%
%TD*%
G04 APERTURE END LIST*
D10*
%TO.P,BT1,1,+*%
%TO.N,Net-(BT1-+)*%
X142800000Y-100700000D03*
D11*
%TO.P,BT1,2,-*%
%TO.N,Net-(BT1--)*%
X142800000Y-112400000D03*
%TD*%
D12*
%TO.P,SW1,1,1*%
%TO.N,Net-(BT1-+)*%
X201625318Y-80980127D03*
X190800000Y-87230127D03*
%TO.P,SW1,2,2*%
%TO.N,Net-(U1-R)*%
X199125318Y-76650000D03*
X188300000Y-82900000D03*
%TD*%
D13*
%TO.P,LS1,1,1*%
%TO.N,Net-(U1-Q)*%
X124000000Y-94500000D03*
%TO.P,LS1,2,2*%
%TO.N,Net-(BT1--)*%
X114000000Y-94500000D03*
%TD*%
D14*
%TO.P,R3,*%
%TO.N,*%
X107315000Y-71120000D03*
X107315000Y-80720000D03*
D15*
%TO.P,R3,1,1*%
%TO.N,Net-(JP1-A)*%
X99815000Y-73420000D03*
D16*
%TO.P,R3,2,2*%
%TO.N,Net-(R1-Pad2)*%
X99815000Y-75920000D03*
%TO.P,R3,3,3*%
%TO.N,Net-(JP1-B)*%
X99815000Y-78420000D03*
%TD*%
D17*
%TO.P,R2,1*%
%TO.N,Net-(U1-R)*%
X135910000Y-66040000D03*
D18*
%TO.P,R2,2*%
%TO.N,Net-(U1-DIS)*%
X128290000Y-66040000D03*
%TD*%
D19*
%TO.P,U1,1,GND*%
%TO.N,Net-(BT1--)*%
X128270000Y-72390000D03*
D20*
%TO.P,U1,2,TR*%
%TO.N,Net-(JP1-C)*%
X128270000Y-74930000D03*
%TO.P,U1,3,Q*%
%TO.N,Net-(U1-Q)*%
X128270000Y-77470000D03*
%TO.P,U1,4,R*%
%TO.N,Net-(U1-R)*%
X128270000Y-80010000D03*
%TO.P,U1,5,CV*%
%TO.N,unconnected-(U1-CV-Pad5)*%
X135890000Y-80010000D03*
%TO.P,U1,6,THR*%
%TO.N,Net-(JP1-C)*%
X135890000Y-77470000D03*
%TO.P,U1,7,DIS*%
%TO.N,Net-(U1-DIS)*%
X135890000Y-74930000D03*
%TO.P,U1,8,VCC*%
%TO.N,Net-(U1-R)*%
X135890000Y-72390000D03*
%TD*%
D17*
%TO.P,R1,1*%
%TO.N,Net-(U1-DIS)*%
X109220000Y-66040000D03*
D18*
%TO.P,R1,2*%
%TO.N,Net-(R1-Pad2)*%
X101600000Y-66040000D03*
%TD*%
D21*
%TO.P,C2,1*%
%TO.N,Net-(JP1-C)*%
X118150000Y-68300000D03*
%TO.P,C2,2*%
%TO.N,Net-(BT1--)*%
X120650000Y-68300000D03*
%TD*%
%TO.P,C1,1*%
%TO.N,Net-(JP1-C)*%
X118150000Y-73700000D03*
%TO.P,C1,2*%
%TO.N,Net-(BT1--)*%
X120650000Y-73700000D03*
%TD*%
D22*
%TO.N,Net-(R1-Pad2)*%
X101600000Y-66040000D02*
X98860000Y-66040000D01*
X98860000Y-66040000D02*
X97400000Y-67500000D01*
X97400000Y-67500000D02*
X97400000Y-74900000D01*
X97400000Y-74900000D02*
X98420000Y-75920000D01*
X98420000Y-75920000D02*
X99815000Y-75920000D01*
%TO.N,Net-(U1-DIS)*%
X128290000Y-66040000D02*
X128290000Y-68490000D01*
X128290000Y-68490000D02*
X134730000Y-74930000D01*
X134730000Y-74930000D02*
X135890000Y-74930000D01*
%TO.N,Net-(JP1-C)*%
X118150000Y-75250000D02*
X119300000Y-76400000D01*
X118150000Y-73700000D02*
X118150000Y-75250000D01*
X119300000Y-76400000D02*
X126800000Y-76400000D01*
X126800000Y-76400000D02*
X128270000Y-74930000D01*
X135890000Y-77470000D02*
X133970000Y-77470000D01*
X133970000Y-77470000D02*
X131430000Y-74930000D01*
X131430000Y-74930000D02*
X128270000Y-74930000D01*
%TO.N,Net-(U1-R)*%
X135910000Y-72370000D02*
X135890000Y-72390000D01*
%TD*%
M02*
