M48
; DRILL file {KiCad 8.0.5-dirty} date 2025-03-16T13:30:27-0400
; FORMAT={-:-/ absolute / inch / decimal}
; #@! TF.CreationDate,2025-03-16T13:30:27-04:00
; #@! TF.GenerationSoftware,Kicad,Pcbnew,8.0.5-dirty
; #@! TF.FileFunction,Plated,1,2,PTH
FMAT,2
INCH
; #@! TA.AperFunction,Plated,PTH,ComponentDrill
T1C0.0276
; #@! TA.AperFunction,Plated,PTH,ComponentDrill
T2C0.0315
; #@! TA.AperFunction,Plated,PTH,ComponentDrill
T3C0.0394
; #@! TA.AperFunction,Plated,PTH,ComponentDrill
T4C0.0433
; #@! TA.AperFunction,Plated,PTH,ComponentDrill
T5C0.0512
%
G90
G05
T1
X4.0Y-2.6
X4.3Y-2.6
X5.0508Y-2.6
X5.3508Y-2.6
T2
X4.6516Y-2.689
X4.6516Y-2.9016
X4.75Y-2.689
X4.75Y-2.9016
X5.05Y-2.85
X5.05Y-2.95
X5.05Y-3.05
X5.05Y-3.15
X5.35Y-2.85
X5.35Y-2.95
X5.35Y-3.05
X5.35Y-3.15
T3
X3.9297Y-2.8906
X3.9297Y-2.989
X3.9297Y-3.0874
X4.4882Y-3.7205
X4.8819Y-3.7205
T4
X5.622Y-3.9646
X5.622Y-4.4252
T5
X7.4134Y-3.2638
X7.5118Y-3.4343
X7.8396Y-3.0177
X7.938Y-3.1882
T4
G00X4.2112Y-2.8
M15
G01X4.2388Y-2.8
M16
G05
G00X4.2112Y-3.178
M15
G01X4.2388Y-3.178
M16
G05
M30
