M48
; DRILL file {KiCad 9.0.5} date 2025-12-27T16:16:39-0500
; FORMAT={-:-/ absolute / inch / decimal}
; #@! TF.CreationDate,2025-12-27T16:16:39-05:00
; #@! TF.GenerationSoftware,Kicad,Pcbnew,9.0.5
; #@! TF.FileFunction,Plated,1,2,PTH
FMAT,2
INCH
; #@! TA.AperFunction,Plated,PTH,ViaDrill
T1C0.0118
; #@! TA.AperFunction,Plated,PTH,ComponentDrill
T2C0.0276
; #@! TA.AperFunction,Plated,PTH,ComponentDrill
T3C0.0295
; #@! TA.AperFunction,Plated,PTH,ComponentDrill
T4C0.0315
; #@! TA.AperFunction,Plated,PTH,ComponentDrill
T5C0.0394
; #@! TA.AperFunction,Plated,PTH,ComponentDrill
T6C0.0512
%
G90
G05
T1
X5.7482Y-4.6182
X5.9232Y-3.6077
X6.21Y-4.53
T2
X5.3985Y-3.9979
X5.3985Y-4.2979
X5.4985Y-3.9979
X5.4985Y-4.2979
X5.5985Y-3.9979
X5.5985Y-4.2979
X5.6985Y-3.9979
X5.6985Y-4.2979
X5.7985Y-3.9979
X5.7985Y-4.2979
X5.8985Y-3.9979
X5.8985Y-4.2979
X5.9985Y-3.9979
X5.9985Y-4.2979
T3
X5.28Y-3.1413
X5.28Y-3.22
T4
X5.0999Y-3.3998
X5.0999Y-3.6998
X5.0999Y-3.9491
X5.0999Y-4.0491
X5.0999Y-4.1491
X5.25Y-4.55
X5.25Y-4.6484
X5.3985Y-4.4479
X5.3985Y-4.7479
X5.4482Y-3.1978
X5.4482Y-3.2978
X5.4482Y-3.3978
X5.4482Y-3.4978
X5.4482Y-3.5978
X5.4482Y-3.6978
X5.4985Y-4.4479
X5.4985Y-4.7479
X5.5985Y-4.4479
X5.5985Y-4.7479
X5.6985Y-4.4479
X5.6985Y-4.7479
X5.7482Y-3.1978
X5.7482Y-3.2978
X5.7482Y-3.3978
X5.7482Y-3.4978
X5.7482Y-3.5978
X5.7482Y-3.6978
X5.7985Y-4.4479
X5.7985Y-4.7479
X5.8985Y-4.4479
X5.8985Y-4.7479
X5.9985Y-4.4479
X5.9985Y-4.7479
X6.0985Y-4.4479
X6.0985Y-4.7479
X6.0991Y-3.3979
X6.0991Y-3.6979
T5
X5.1Y-4.45
X5.1Y-4.55
X5.1Y-4.65
X5.1Y-4.75
X5.2048Y-5.35
X5.9922Y-5.35
T6
X5.0999Y-2.9994
X5.0999Y-3.2553
X6.0991Y-2.9977
X6.0991Y-3.2536
X6.1485Y-3.992
X6.1485Y-4.2479
M30
