%TF.GenerationSoftware,KiCad,Pcbnew,9.0.5*%
%TF.CreationDate,2025-12-27T16:16:39-05:00*%
%TF.ProjectId,led-letter-5x7,6c65642d-6c65-4747-9465-722d3578372e,rev?*%
%TF.SameCoordinates,Original*%
%TF.FileFunction,Soldermask,Top*%
%TF.FilePolarity,Negative*%
%FSLAX46Y46*%
G04 Gerber Fmt 4.6, Leading zero omitted, Abs format (unit mm)*
G04 Created by KiCad (PCBNEW 9.0.5) date 2025-12-27 16:16:39*
%MOMM*%
%LPD*%
G01*
G04 APERTURE LIST*
G04 Aperture macros list*
%AMRoundRect*
0 Rectangle with rounded corners*
0 $1 Rounding radius*
0 $2 $3 $4 $5 $6 $7 $8 $9 X,Y pos of 4 corners*
0 Add a 4 corners polygon primitive as box body*
4,1,4,$2,$3,$4,$5,$6,$7,$8,$9,$2,$3,0*
0 Add four circle primitives for the rounded corners*
1,1,$1+$1,$2,$3*
1,1,$1+$1,$4,$5*
1,1,$1+$1,$6,$7*
1,1,$1+$1,$8,$9*
0 Add four rect primitives between the rounded corners*
20,1,$1+$1,$2,$3,$4,$5,0*
20,1,$1+$1,$4,$5,$6,$7,0*
20,1,$1+$1,$6,$7,$8,$9,0*
20,1,$1+$1,$8,$9,$2,$3,0*%
G04 Aperture macros list end*
%ADD10R,1.700000X1.700000*%
%ADD11C,1.700000*%
%ADD12C,1.400000*%
%ADD13R,2.250000X2.250000*%
%ADD14C,2.250000*%
%ADD15RoundRect,0.250000X0.550000X-0.950000X0.550000X0.950000X-0.550000X0.950000X-0.550000X-0.950000X0*%
%ADD16O,1.600000X2.400000*%
%ADD17C,1.600000*%
%ADD18RoundRect,0.250000X-0.550000X0.550000X-0.550000X-0.550000X0.550000X-0.550000X0.550000X0.550000X0*%
%ADD19R,1.500000X1.500000*%
%ADD20RoundRect,0.250000X-0.950000X-0.550000X0.950000X-0.550000X0.950000X0.550000X-0.950000X0.550000X0*%
%ADD21O,2.400000X1.600000*%
%ADD22RoundRect,0.250000X0.625000X-0.350000X0.625000X0.350000X-0.625000X0.350000X-0.625000X-0.350000X0*%
%ADD23O,1.750000X1.200000*%
%ADD24C,2.000000*%
G04 APERTURE END LIST*
D10*
%TO.C,J1*%
X129540000Y-113030000D03*
D11*
X129540000Y-115570000D03*
X129540000Y-118110000D03*
X129540000Y-120650000D03*
%TD*%
D12*
%TO.C,R4*%
X144741979Y-109167387D03*
X144741979Y-101547387D03*
%TD*%
D13*
%TO.C,SW4*%
X129537054Y-82683801D03*
D14*
X129537054Y-76183801D03*
%TD*%
D15*
%TO.C,U1*%
X137121979Y-120597387D03*
D16*
X139661979Y-120597387D03*
X142201979Y-120597387D03*
X144741979Y-120597387D03*
X147281979Y-120597387D03*
X149821979Y-120597387D03*
X152361979Y-120597387D03*
X154901979Y-120597387D03*
X154901979Y-112977387D03*
X152361979Y-112977387D03*
X149821979Y-112977387D03*
X147281979Y-112977387D03*
X144741979Y-112977387D03*
X142201979Y-112977387D03*
X139661979Y-112977387D03*
X137121979Y-112977387D03*
%TD*%
D12*
%TO.C,R7*%
X137121979Y-109167387D03*
X137121979Y-101547387D03*
%TD*%
D17*
%TO.C,C1*%
X133350000Y-115570000D03*
X133350000Y-118070000D03*
%TD*%
D18*
%TO.C,D2*%
X154918111Y-86306691D03*
D17*
X154918111Y-93926691D03*
%TD*%
D12*
%TO.C,R5*%
X142201979Y-109167387D03*
X142201979Y-101547387D03*
%TD*%
D13*
%TO.C,SW2*%
X156171979Y-107897387D03*
D14*
X156171979Y-101397387D03*
%TD*%
D19*
%TO.C,SW1*%
X129537764Y-102848111D03*
D17*
X129537764Y-105388111D03*
X129537764Y-100308111D03*
%TD*%
D12*
%TO.C,R2*%
X149821979Y-109167387D03*
X149821979Y-101547387D03*
%TD*%
%TO.C,R6*%
X139661979Y-109167387D03*
X139661979Y-101547387D03*
%TD*%
D13*
%TO.C,SW3*%
X154918111Y-82641925D03*
D14*
X154918111Y-76141925D03*
%TD*%
D12*
%TO.C,R1*%
X152361979Y-109167387D03*
X152361979Y-101547387D03*
%TD*%
D18*
%TO.C,D1*%
X129537054Y-86355582D03*
D17*
X129537054Y-93975582D03*
%TD*%
D20*
%TO.C,LED1*%
X138383986Y-81224455D03*
D21*
X138383986Y-83764455D03*
X138383986Y-86304455D03*
X138383986Y-88844455D03*
X138383986Y-91384455D03*
X138383986Y-93924455D03*
X146003986Y-93924455D03*
X146003986Y-91384455D03*
X146003986Y-88844455D03*
X146003986Y-86304455D03*
X146003986Y-83764455D03*
X146003986Y-81224455D03*
%TD*%
D12*
%TO.C,R3*%
X147281979Y-109167387D03*
X147281979Y-101547387D03*
%TD*%
D22*
%TO.C,J2*%
X134112000Y-81788000D03*
D23*
X134112000Y-79788000D03*
%TD*%
D24*
%TO.C,BT1*%
X132201979Y-135890000D03*
X152201979Y-135890000D03*
%TD*%
M02*
