%TF.GenerationSoftware,KiCad,Pcbnew,9.0.5*%
%TF.CreationDate,2025-12-27T16:16:39-05:00*%
%TF.ProjectId,led-letter-5x7,6c65642d-6c65-4747-9465-722d3578372e,rev?*%
%TF.SameCoordinates,Original*%
%TF.FileFunction,Copper,L2,Bot*%
%TF.FilePolarity,Positive*%
%FSLAX46Y46*%
G04 Gerber Fmt 4.6, Leading zero omitted, Abs format (unit mm)*
G04 Created by KiCad (PCBNEW 9.0.5) date 2025-12-27 16:16:39*
%MOMM*%
%LPD*%
G01*
G04 APERTURE LIST*
G04 Aperture macros list*
%AMRoundRect*
0 Rectangle with rounded corners*
0 $1 Rounding radius*
0 $2 $3 $4 $5 $6 $7 $8 $9 X,Y pos of 4 corners*
0 Add a 4 corners polygon primitive as box body*
4,1,4,$2,$3,$4,$5,$6,$7,$8,$9,$2,$3,0*
0 Add four circle primitives for the rounded corners*
1,1,$1+$1,$2,$3*
1,1,$1+$1,$4,$5*
1,1,$1+$1,$6,$7*
1,1,$1+$1,$8,$9*
0 Add four rect primitives between the rounded corners*
20,1,$1+$1,$2,$3,$4,$5,0*
20,1,$1+$1,$4,$5,$6,$7,0*
20,1,$1+$1,$6,$7,$8,$9,0*
20,1,$1+$1,$8,$9,$2,$3,0*%
G04 Aperture macros list end*
%TA.AperFunction,ComponentPad*%
%ADD10R,1.700000X1.700000*%
%TD*%
%TA.AperFunction,ComponentPad*%
%ADD11C,1.700000*%
%TD*%
%TA.AperFunction,ComponentPad*%
%ADD12C,1.400000*%
%TD*%
%TA.AperFunction,ComponentPad*%
%ADD13R,2.250000X2.250000*%
%TD*%
%TA.AperFunction,ComponentPad*%
%ADD14C,2.250000*%
%TD*%
%TA.AperFunction,ComponentPad*%
%ADD15RoundRect,0.250000X0.550000X-0.950000X0.550000X0.950000X-0.550000X0.950000X-0.550000X-0.950000X0*%
%TD*%
%TA.AperFunction,ComponentPad*%
%ADD16O,1.600000X2.400000*%
%TD*%
%TA.AperFunction,ComponentPad*%
%ADD17C,1.600000*%
%TD*%
%TA.AperFunction,ComponentPad*%
%ADD18RoundRect,0.250000X-0.550000X0.550000X-0.550000X-0.550000X0.550000X-0.550000X0.550000X0.550000X0*%
%TD*%
%TA.AperFunction,ComponentPad*%
%ADD19R,1.500000X1.500000*%
%TD*%
%TA.AperFunction,ComponentPad*%
%ADD20RoundRect,0.250000X-0.950000X-0.550000X0.950000X-0.550000X0.950000X0.550000X-0.950000X0.550000X0*%
%TD*%
%TA.AperFunction,ComponentPad*%
%ADD21O,2.400000X1.600000*%
%TD*%
%TA.AperFunction,ComponentPad*%
%ADD22RoundRect,0.250000X0.625000X-0.350000X0.625000X0.350000X-0.625000X0.350000X-0.625000X-0.350000X0*%
%TD*%
%TA.AperFunction,ComponentPad*%
%ADD23O,1.750000X1.200000*%
%TD*%
%TA.AperFunction,ComponentPad*%
%ADD24C,2.000000*%
%TD*%
%TA.AperFunction,ViaPad*%
%ADD25C,0.600000*%
%TD*%
%TA.AperFunction,Conductor*%
%ADD26C,0.254000*%
%TD*%
%TA.AperFunction,Conductor*%
%ADD27C,0.508000*%
%TD*%
G04 APERTURE END LIST*
D10*
%TO.P,J1,1,Pin_1*%
%TO.N,VCC*%
X129540000Y-113030000D03*
D11*
%TO.P,J1,2,Pin_2*%
%TO.N,/RxD*%
X129540000Y-115570000D03*
%TO.P,J1,3,Pin_3*%
%TO.N,GND*%
X129540000Y-118110000D03*
%TO.P,J1,4,Pin_4*%
%TO.N,/TxD*%
X129540000Y-120650000D03*
%TD*%
D12*
%TO.P,R4,1*%
%TO.N,Net-(U1-CMPO{slash}ECI_2{slash}T1CLKO{slash}MOSI_4{slash}T0{slash}ADC12{slash}P3.4)*%
X144741979Y-109167387D03*
%TO.P,R4,2*%
%TO.N,Net-(LED1-ROW4)*%
X144741979Y-101547387D03*
%TD*%
D13*
%TO.P,SW4,1,1*%
%TO.N,Net-(D1-K)*%
X129537054Y-82683801D03*
D14*
%TO.P,SW4,2,2*%
%TO.N,/RxD*%
X129537054Y-76183801D03*
%TD*%
D15*
%TO.P,U1,1,P1.0/ADC0/RxD2/CCP1*%
%TO.N,Net-(U1-P1.0{slash}ADC0{slash}RxD2{slash}CCP1)*%
X137121979Y-120597387D03*
D16*
%TO.P,U1,2,P1.1/ADC1/TxD2/CCP0*%
%TO.N,/COL1*%
X139661979Y-120597387D03*
%TO.P,U1,3,P1.6/ADC6/RxD_3/MCLKO_2/XTALO*%
%TO.N,/COL2*%
X142201979Y-120597387D03*
%TO.P,U1,4,P1.7/ADC7/TxD_3/XTALI*%
%TO.N,/COL3*%
X144741979Y-120597387D03*
%TO.P,U1,5,MCLKO/RST/P5.4*%
%TO.N,/COL4*%
X147281979Y-120597387D03*
%TO.P,U1,6,VCC*%
%TO.N,VCC*%
X149821979Y-120597387D03*
%TO.P,U1,7,P5.5*%
%TO.N,/COL5*%
X152361979Y-120597387D03*
%TO.P,U1,8,GND*%
%TO.N,GND*%
X154901979Y-120597387D03*
%TO.P,U1,9,INT4/RxD/ADC8/P3.0*%
%TO.N,/RxD*%
X154901979Y-112977387D03*
%TO.P,U1,10,TxD/ADC9/P3.1*%
%TO.N,/TxD*%
X152361979Y-112977387D03*
%TO.P,U1,11,INT0/SCLK_4/SCL_4/ADC10/P3.2*%
%TO.N,Net-(U1-INT0{slash}SCLK_4{slash}SCL_4{slash}ADC10{slash}P3.2)*%
X149821979Y-112977387D03*
%TO.P,U1,12,INT1/MISO_4/SDA_4/ADC11/P3.3*%
%TO.N,Net-(U1-INT1{slash}MISO_4{slash}SDA_4{slash}ADC11{slash}P3.3)*%
X147281979Y-112977387D03*
%TO.P,U1,13,CMPO/ECI_2/T1CLKO/MOSI_4/T0/ADC12/P3.4*%
%TO.N,Net-(U1-CMPO{slash}ECI_2{slash}T1CLKO{slash}MOSI_4{slash}T0{slash}ADC12{slash}P3.4)*%
X144741979Y-112977387D03*
%TO.P,U1,14,SS_4/CCP0_2/T0CLKO/T1/ADC13/P3.5*%
%TO.N,Net-(U1-SS_4{slash}CCP0_2{slash}T0CLKO{slash}T1{slash}ADC13{slash}P3.5)*%
X142201979Y-112977387D03*
%TO.P,U1,15,INT2/CMP-/CCP1_2/RxD_2/ADC14/P3.6*%
%TO.N,Net-(U1-INT2{slash}CMP-{slash}CCP1_2{slash}RxD_2{slash}ADC14{slash}P3.6)*%
X139661979Y-112977387D03*
%TO.P,U1,16,INT3/CMP+/CCP2/CCP2_2/TxD_2/P3.7*%
%TO.N,Net-(U1-INT3{slash}CMP+{slash}CCP2{slash}CCP2_2{slash}TxD_2{slash}P3.7)*%
X137121979Y-112977387D03*
%TD*%
D12*
%TO.P,R7,1*%
%TO.N,Net-(U1-INT3{slash}CMP+{slash}CCP2{slash}CCP2_2{slash}TxD_2{slash}P3.7)*%
X137121979Y-109167387D03*
%TO.P,R7,2*%
%TO.N,Net-(LED1-ROW7)*%
X137121979Y-101547387D03*
%TD*%
D17*
%TO.P,C1,1*%
%TO.N,VCC*%
X133350000Y-115570000D03*
%TO.P,C1,2*%
%TO.N,GND*%
X133350000Y-118070000D03*
%TD*%
D18*
%TO.P,D2,1,K*%
%TO.N,Net-(D2-K)*%
X154918111Y-86306691D03*
D17*
%TO.P,D2,2,A*%
%TO.N,/COL3*%
X154918111Y-93926691D03*
%TD*%
D12*
%TO.P,R5,1*%
%TO.N,Net-(U1-SS_4{slash}CCP0_2{slash}T0CLKO{slash}T1{slash}ADC13{slash}P3.5)*%
X142201979Y-109167387D03*
%TO.P,R5,2*%
%TO.N,Net-(LED1-ROW5)*%
X142201979Y-101547387D03*
%TD*%
D13*
%TO.P,SW2,1,1*%
%TO.N,Net-(U1-P1.0{slash}ADC0{slash}RxD2{slash}CCP1)*%
X156171979Y-107897387D03*
D14*
%TO.P,SW2,2,2*%
%TO.N,GND*%
X156171979Y-101397387D03*
%TD*%
D19*
%TO.P,SW1,1,B*%
%TO.N,VCC*%
X129537764Y-102848111D03*
D17*
%TO.P,SW1,2,C*%
%TO.N,GND*%
X129537764Y-105388111D03*
%TO.P,SW1,3,A*%
%TO.N,Net-(BT1-+)*%
X129537764Y-100308111D03*
%TD*%
D12*
%TO.P,R2,1*%
%TO.N,Net-(U1-INT0{slash}SCLK_4{slash}SCL_4{slash}ADC10{slash}P3.2)*%
X149821979Y-109167387D03*
%TO.P,R2,2*%
%TO.N,Net-(LED1-ROW2)*%
X149821979Y-101547387D03*
%TD*%
%TO.P,R6,1*%
%TO.N,Net-(U1-INT2{slash}CMP-{slash}CCP1_2{slash}RxD_2{slash}ADC14{slash}P3.6)*%
X139661979Y-109167387D03*
%TO.P,R6,2*%
%TO.N,Net-(LED1-ROW6)*%
X139661979Y-101547387D03*
%TD*%
D13*
%TO.P,SW3,1,1*%
%TO.N,Net-(D2-K)*%
X154918111Y-82641925D03*
D14*
%TO.P,SW3,2,2*%
%TO.N,/RxD*%
X154918111Y-76141925D03*
%TD*%
D12*
%TO.P,R1,1*%
%TO.N,/TxD*%
X152361979Y-109167387D03*
%TO.P,R1,2*%
%TO.N,Net-(LED1-ROW1)*%
X152361979Y-101547387D03*
%TD*%
D18*
%TO.P,D1,1,K*%
%TO.N,Net-(D1-K)*%
X129537054Y-86355582D03*
D17*
%TO.P,D1,2,A*%
%TO.N,/COL2*%
X129537054Y-93975582D03*
%TD*%
D20*
%TO.P,LED1,1,COL1*%
%TO.N,/COL1*%
X138383986Y-81224455D03*
D21*
%TO.P,LED1,2,ROW3*%
%TO.N,Net-(LED1-ROW3)*%
X138383986Y-83764455D03*
%TO.P,LED1,3,COL2*%
%TO.N,/COL2*%
X138383986Y-86304455D03*
%TO.P,LED1,4,ROW5*%
%TO.N,Net-(LED1-ROW5)*%
X138383986Y-88844455D03*
%TO.P,LED1,5,ROW6*%
%TO.N,Net-(LED1-ROW6)*%
X138383986Y-91384455D03*
%TO.P,LED1,6,ROW7*%
%TO.N,Net-(LED1-ROW7)*%
X138383986Y-93924455D03*
%TO.P,LED1,7,COL4*%
%TO.N,/COL4*%
X146003986Y-93924455D03*
%TO.P,LED1,8,COL5*%
%TO.N,/COL5*%
X146003986Y-91384455D03*
%TO.P,LED1,9,ROW4*%
%TO.N,Net-(LED1-ROW4)*%
X146003986Y-88844455D03*
%TO.P,LED1,10,COL3*%
%TO.N,/COL3*%
X146003986Y-86304455D03*
%TO.P,LED1,11,ROW2*%
%TO.N,Net-(LED1-ROW2)*%
X146003986Y-83764455D03*
%TO.P,LED1,12,ROW1*%
%TO.N,Net-(LED1-ROW1)*%
X146003986Y-81224455D03*
%TD*%
D12*
%TO.P,R3,1*%
%TO.N,Net-(U1-INT1{slash}MISO_4{slash}SDA_4{slash}ADC11{slash}P3.3)*%
X147281979Y-109167387D03*
%TO.P,R3,2*%
%TO.N,Net-(LED1-ROW3)*%
X147281979Y-101547387D03*
%TD*%
D22*
%TO.P,J2,1,Pin_1*%
%TO.N,Net-(BT1-+)*%
X134112000Y-81788000D03*
D23*
%TO.P,J2,2,Pin_2*%
%TO.N,GND*%
X134112000Y-79788000D03*
%TD*%
D24*
%TO.P,BT1,1,+*%
%TO.N,Net-(BT1-+)*%
X132201979Y-135890000D03*
%TO.P,BT1,2,-*%
%TO.N,GND*%
X152201979Y-135890000D03*
%TD*%
D25*
%TO.N,/COL5*%
X150448978Y-91636159D03*
%TO.N,/COL4*%
X146003986Y-117301986D03*
%TO.N,/TxD*%
X157734000Y-115062000D03*
%TD*%
D26*
%TO.N,GND*%
X156171979Y-101397387D02*
X154432000Y-103137366D01*
X156464000Y-111506000D02*
X156464000Y-119035366D01*
X154432000Y-103137366D02*
X154432000Y-109474000D01*
X154432000Y-109474000D02*
X156464000Y-111506000D01*
X156464000Y-119035366D02*
X154901979Y-120597387D01*
%TO.N,Net-(U1-P1.0{slash}ADC0{slash}RxD2{slash}CCP1)*%
X137121979Y-120597387D02*
X139460592Y-122936000D01*
X139460592Y-122936000D02*
X155194000Y-122936000D01*
X155194000Y-122936000D02*
X156972000Y-121158000D01*
X156972000Y-121158000D02*
X156972000Y-108697408D01*
X156972000Y-108697408D02*
X156171979Y-107897387D01*
D27*
%TO.N,GND*%
X128746000Y-80042000D02*
X127508000Y-81280000D01*
X127508000Y-116078000D02*
X127508000Y-107417875D01*
X127508000Y-81280000D02*
X127508000Y-107417875D01*
X129540000Y-118110000D02*
X127508000Y-116078000D01*
X129540000Y-118110000D02*
X133310000Y-118110000D01*
X133310000Y-118110000D02*
X133350000Y-118070000D01*
X133604000Y-80042000D02*
X128746000Y-80042000D01*
X127508000Y-107417875D02*
X129537764Y-105388111D01*
%TO.N,Net-(BT1-+)*%
X132171255Y-100308111D02*
X134741979Y-97737387D01*
X133604000Y-82042000D02*
X134741979Y-83179979D01*
X134741979Y-83179979D02*
X134741979Y-97737387D01*
X129537764Y-100308111D02*
X132171255Y-100308111D01*
%TO.N,VCC*%
X131318000Y-113538000D02*
X133350000Y-115570000D01*
X129537764Y-102848111D02*
X131572000Y-104882347D01*
X129540000Y-113030000D02*
X130810000Y-113030000D01*
X131572000Y-113284000D02*
X131318000Y-113538000D01*
X130810000Y-113030000D02*
X131318000Y-113538000D01*
X131572000Y-104882347D02*
X131572000Y-113284000D01*
D26*
%TO.N,Net-(LED1-ROW6)*%
X140361979Y-93362448D02*
X138383986Y-91384455D01*
X139661979Y-101547387D02*
X140361979Y-100847387D01*
X140361979Y-100847387D02*
X140361979Y-93362448D01*
%TO.N,Net-(LED1-ROW5)*%
X142201979Y-101547387D02*
X142201979Y-92662448D01*
X142201979Y-92662448D02*
X138383986Y-88844455D01*
%TO.N,Net-(LED1-ROW1)*%
X152361979Y-101547387D02*
X152361979Y-87582448D01*
X152361979Y-87582448D02*
X146003986Y-81224455D01*
%TO.N,Net-(LED1-ROW7)*%
X137121979Y-95186462D02*
X138383986Y-93924455D01*
X137121979Y-101547387D02*
X137121979Y-95186462D01*
%TO.N,Net-(LED1-ROW3)*%
X147981979Y-100847387D02*
X147981979Y-88545979D01*
X147281979Y-101547387D02*
X147981979Y-100847387D01*
X147066000Y-87630000D02*
X142249531Y-87630000D01*
X147981979Y-88545979D02*
X147066000Y-87630000D01*
X142249531Y-87630000D02*
X138383986Y-83764455D01*
%TO.N,Net-(LED1-ROW2)*%
X149821979Y-101547387D02*
X149821979Y-87582448D01*
X149821979Y-87582448D02*
X146003986Y-83764455D01*
%TO.N,Net-(LED1-ROW4)*%
X144741979Y-101547387D02*
X144041979Y-100847387D01*
X144041979Y-100847387D02*
X144041979Y-90806462D01*
X144041979Y-90806462D02*
X146003986Y-88844455D01*
%TO.N,Net-(U1-INT0{slash}SCLK_4{slash}SCL_4{slash}ADC10{slash}P3.2)*%
X149821979Y-109167387D02*
X149821979Y-112977387D01*
%TO.N,Net-(U1-INT1{slash}MISO_4{slash}SDA_4{slash}ADC11{slash}P3.3)*%
X147281979Y-109167387D02*
X147281979Y-112977387D01*
%TO.N,Net-(U1-CMPO{slash}ECI_2{slash}T1CLKO{slash}MOSI_4{slash}T0{slash}ADC12{slash}P3.4)*%
X144741979Y-109167387D02*
X144741979Y-112977387D01*
%TO.N,Net-(U1-SS_4{slash}CCP0_2{slash}T0CLKO{slash}T1{slash}ADC13{slash}P3.5)*%
X142201979Y-109167387D02*
X142201979Y-112977387D01*
%TO.N,Net-(U1-INT2{slash}CMP-{slash}CCP1_2{slash}RxD_2{slash}ADC14{slash}P3.6)*%
X139661979Y-109167387D02*
X139661979Y-112977387D01*
%TO.N,Net-(U1-INT3{slash}CMP+{slash}CCP2{slash}CCP2_2{slash}TxD_2{slash}P3.7)*%
X137121979Y-109167387D02*
X137121979Y-112977387D01*
%TO.N,/COL2*%
X142201979Y-120597387D02*
X143329979Y-119469387D01*
X143329979Y-91250448D02*
X138383986Y-86304455D01*
X143329979Y-119469387D02*
X143329979Y-91250448D01*
%TO.N,Net-(D1-K)*%
X129537054Y-82683801D02*
X129537054Y-86355582D01*
%TO.N,/COL3*%
X146403986Y-86304455D02*
X146003986Y-86304455D01*
X148844000Y-88744469D02*
X146403986Y-86304455D01*
X148590000Y-99568000D02*
X148844000Y-99314000D01*
X148844000Y-99314000D02*
X148844000Y-88744469D01*
X144741979Y-120597387D02*
X148590000Y-116749366D01*
X148590000Y-116749366D02*
X148590000Y-99568000D01*
%TO.N,Net-(D2-K)*%
X154918111Y-82641925D02*
X154918111Y-86306691D01*
%TO.N,/COL1*%
X136093979Y-101973199D02*
X136093979Y-83514462D01*
X139661979Y-120597387D02*
X140816979Y-119442387D01*
X140816979Y-106696199D02*
X136093979Y-101973199D01*
X136093979Y-83514462D02*
X138383986Y-81224455D01*
X140816979Y-119442387D02*
X140816979Y-106696199D01*
%TO.N,/COL5*%
X151233979Y-119469387D02*
X151233979Y-92421160D01*
X151233979Y-92421160D02*
X150448978Y-91636159D01*
X152361979Y-120597387D02*
X151233979Y-119469387D01*
%TO.N,/COL4*%
X146003986Y-117094000D02*
X146003986Y-117301986D01*
X146003986Y-93924455D02*
X146003986Y-117094000D01*
%TO.N,/RxD*%
X153670000Y-111745408D02*
X153670000Y-99568000D01*
X153670000Y-99568000D02*
X153162000Y-99060000D01*
X153122018Y-77938018D02*
X154918111Y-76141925D01*
X153162000Y-99060000D02*
X153162000Y-77978000D01*
X132093253Y-78740000D02*
X152320036Y-78740000D01*
X154901979Y-112977387D02*
X153670000Y-111745408D01*
X152320036Y-78740000D02*
X153122018Y-77938018D01*
X129537054Y-76183801D02*
X132093253Y-78740000D01*
X153162000Y-77978000D02*
X153122018Y-77938018D01*
%TO.N,/TxD*%
X155382468Y-123391000D02*
X157734000Y-121039468D01*
X129540000Y-120650000D02*
X132281000Y-123391000D01*
X152361979Y-109167387D02*
X152361979Y-112977387D01*
X132281000Y-123391000D02*
X155382468Y-123391000D01*
X157734000Y-121039468D02*
X157734000Y-115062000D01*
%TD*%
M02*
